M48
INCH
T61C0.012
T60C0.048
T59C0.128
T58C0.129
T57C0.045
T56C0.030
%
T61
X006600Y013850
X006600Y013450
X006850Y013650
X007000Y016450
X007000Y016150
X007000Y015850
X007000Y015550
X007100Y013850
X007100Y013450
X007750Y011450
X007750Y010100
X008800Y013200
X008800Y012600
X008950Y011515
X009658Y013200
X009658Y012600
X011350Y016200
X011700Y016200
X012050Y016200
X012100Y009235
X012250Y011650
X012250Y011050
X012250Y010450
X012400Y016200
X012450Y010750
X012750Y016200
X013100Y016200
X013600Y013600
X013600Y013300
X013800Y001850
X014050Y011500
X014050Y007600
X014300Y001850
X015200Y014450
X015550Y014450
X015800Y022000
X015800Y021700
X015900Y014450
X016000Y016950
X016000Y009550
X016250Y014450
X016500Y016950
X016950Y012350
X016950Y011750
X017000Y016950
X017150Y012650
X017150Y012050
X018000Y016950
X018700Y020150
X018700Y019800
X018700Y019450
X018700Y019100
X019700Y013100
X019700Y012700
X019950Y012900
X020200Y013100
X020200Y012700
X021450Y019300
X021450Y018950
X021450Y018600
X021600Y013400
X021600Y012900
X021600Y012400
X021600Y011900
X021800Y020350
X021800Y020000
X021800Y019650
X021800Y019300
X021800Y018950
X021800Y018600
X022150Y020350
X022150Y020000
X022150Y019650
X022150Y019300
X022150Y018950
X022150Y018600
X022400Y012900
X022400Y012400
X022700Y013400
X022700Y011900
X024150Y021650
X025100Y010800
X025100Y010100
X025400Y010800
X025400Y010100
X025700Y010800
X025700Y010100
X026800Y003950
X026800Y002650
X026800Y001350
T56
X005700Y009350
X005700Y008350
X005700Y007350
X006700Y009850
X006700Y008850
X006700Y007850
T57
X009550Y017300
X010550Y017300
X011550Y017300
T60
X002200Y018500
X002200Y016500
X002200Y014500
X002200Y012500
T59
X003200Y010600
X003200Y006600
T58
X001700Y021300
X001700Y001700
X033300Y021300
X033300Y001700
M30
