G04 start of page 3 for group 1 idx 1 *
G04 Title: (unknown), bottom *
G04 Creator: pcb 20140316 *
G04 CreationDate: Wed 03 Jan 2018 04:45:06 AM GMT UTC *
G04 For: railfan *
G04 Format: Gerber/RS-274X *
G04 PCB-Dimensions (mil): 3500.00 2300.00 *
G04 PCB-Coordinate-Origin: lower left *
%MOIN*%
%FSLAX25Y25*%
%LNBOTTOM*%
%ADD54C,0.0480*%
%ADD53C,0.1280*%
%ADD52C,0.1285*%
%ADD51C,0.0450*%
%ADD50C,0.0300*%
%ADD49C,0.0120*%
%ADD48C,0.0260*%
%ADD47C,0.0800*%
%ADD46C,0.1440*%
%ADD45C,0.2937*%
%ADD44C,0.0787*%
%ADD43C,0.0700*%
%ADD42C,0.0100*%
%ADD41C,0.0001*%
G54D41*G36*
X221496Y227500D02*X230500D01*
Y175000D01*
X347500D01*
Y22978D01*
X347018Y24142D01*
X345728Y26247D01*
X344124Y28124D01*
X342247Y29728D01*
X340142Y31018D01*
X337862Y31962D01*
X335461Y32539D01*
X333000Y32732D01*
X330539Y32539D01*
X328138Y31962D01*
X325858Y31018D01*
X323753Y29728D01*
X321876Y28124D01*
X320272Y26247D01*
X318982Y24142D01*
X318038Y21862D01*
X317461Y19461D01*
X317268Y17000D01*
X317461Y14539D01*
X318038Y12138D01*
X318982Y9858D01*
X320272Y7753D01*
X321876Y5876D01*
X323753Y4272D01*
X325858Y2982D01*
X327022Y2500D01*
X221496D01*
Y117500D01*
X225256D01*
X225369Y117369D01*
X225644Y117134D01*
X225953Y116944D01*
X226287Y116806D01*
X226639Y116721D01*
X227000Y116693D01*
X227361Y116721D01*
X227713Y116806D01*
X228047Y116944D01*
X228356Y117134D01*
X228631Y117369D01*
X228866Y117644D01*
X229056Y117953D01*
X229194Y118287D01*
X229279Y118639D01*
X229300Y119000D01*
X229279Y119361D01*
X229194Y119713D01*
X229056Y120047D01*
X228866Y120356D01*
X228631Y120631D01*
X228356Y120866D01*
X228047Y121056D01*
X227713Y121194D01*
X227361Y121279D01*
X227000Y121307D01*
X226639Y121279D01*
X226287Y121194D01*
X225953Y121056D01*
X225644Y120866D01*
X225369Y120631D01*
X225256Y120500D01*
X221496D01*
Y122500D01*
X222256D01*
X222369Y122369D01*
X222644Y122134D01*
X222953Y121944D01*
X223287Y121806D01*
X223639Y121721D01*
X224000Y121693D01*
X224361Y121721D01*
X224713Y121806D01*
X225047Y121944D01*
X225356Y122134D01*
X225631Y122369D01*
X225866Y122644D01*
X226056Y122953D01*
X226194Y123287D01*
X226279Y123639D01*
X226300Y124000D01*
X226279Y124361D01*
X226194Y124713D01*
X226056Y125047D01*
X225866Y125356D01*
X225631Y125631D01*
X225356Y125866D01*
X225047Y126056D01*
X224713Y126194D01*
X224361Y126279D01*
X224000Y126307D01*
X223639Y126279D01*
X223287Y126194D01*
X222953Y126056D01*
X222644Y125866D01*
X222369Y125631D01*
X222256Y125500D01*
X221496D01*
Y127500D01*
X222256D01*
X222369Y127369D01*
X222644Y127134D01*
X222953Y126944D01*
X223287Y126806D01*
X223639Y126721D01*
X224000Y126693D01*
X224361Y126721D01*
X224713Y126806D01*
X225047Y126944D01*
X225356Y127134D01*
X225631Y127369D01*
X225866Y127644D01*
X226056Y127953D01*
X226194Y128287D01*
X226279Y128639D01*
X226300Y129000D01*
X226279Y129361D01*
X226194Y129713D01*
X226056Y130047D01*
X225866Y130356D01*
X225631Y130631D01*
X225356Y130866D01*
X225047Y131056D01*
X224713Y131194D01*
X224361Y131279D01*
X224000Y131307D01*
X223639Y131279D01*
X223287Y131194D01*
X222953Y131056D01*
X222644Y130866D01*
X222369Y130631D01*
X222256Y130500D01*
X221496D01*
Y132500D01*
X225256D01*
X225369Y132369D01*
X225644Y132134D01*
X225953Y131944D01*
X226287Y131806D01*
X226639Y131721D01*
X227000Y131693D01*
X227361Y131721D01*
X227713Y131806D01*
X228047Y131944D01*
X228356Y132134D01*
X228631Y132369D01*
X228866Y132644D01*
X229056Y132953D01*
X229194Y133287D01*
X229279Y133639D01*
X229300Y134000D01*
X229279Y134361D01*
X229194Y134713D01*
X229056Y135047D01*
X228866Y135356D01*
X228631Y135631D01*
X228356Y135866D01*
X228047Y136056D01*
X227713Y136194D01*
X227361Y136279D01*
X227000Y136307D01*
X226639Y136279D01*
X226287Y136194D01*
X225953Y136056D01*
X225644Y135866D01*
X225369Y135631D01*
X225256Y135500D01*
X221496D01*
Y227500D01*
G37*
G36*
X165996D02*X221496D01*
Y135500D01*
X217744D01*
X217631Y135631D01*
X217356Y135866D01*
X217047Y136056D01*
X216713Y136194D01*
X216361Y136279D01*
X216000Y136307D01*
X215639Y136279D01*
X215287Y136194D01*
X214953Y136056D01*
X214644Y135866D01*
X214369Y135631D01*
X214134Y135356D01*
X213944Y135047D01*
X213806Y134713D01*
X213721Y134361D01*
X213693Y134000D01*
X213721Y133639D01*
X213806Y133287D01*
X213944Y132953D01*
X214134Y132644D01*
X214369Y132369D01*
X214644Y132134D01*
X214953Y131944D01*
X215287Y131806D01*
X215639Y131721D01*
X216000Y131693D01*
X216361Y131721D01*
X216713Y131806D01*
X217047Y131944D01*
X217356Y132134D01*
X217631Y132369D01*
X217744Y132500D01*
X221496D01*
Y130500D01*
X217744D01*
X217631Y130631D01*
X217356Y130866D01*
X217047Y131056D01*
X216713Y131194D01*
X216361Y131279D01*
X216000Y131307D01*
X215639Y131279D01*
X215287Y131194D01*
X214953Y131056D01*
X214644Y130866D01*
X214369Y130631D01*
X214134Y130356D01*
X213944Y130047D01*
X213806Y129713D01*
X213721Y129361D01*
X213693Y129000D01*
X213721Y128639D01*
X213806Y128287D01*
X213944Y127953D01*
X214134Y127644D01*
X214369Y127369D01*
X214644Y127134D01*
X214953Y126944D01*
X215287Y126806D01*
X215639Y126721D01*
X216000Y126693D01*
X216361Y126721D01*
X216713Y126806D01*
X217047Y126944D01*
X217356Y127134D01*
X217631Y127369D01*
X217744Y127500D01*
X221496D01*
Y125500D01*
X217744D01*
X217631Y125631D01*
X217356Y125866D01*
X217047Y126056D01*
X216713Y126194D01*
X216361Y126279D01*
X216000Y126307D01*
X215639Y126279D01*
X215287Y126194D01*
X214953Y126056D01*
X214644Y125866D01*
X214369Y125631D01*
X214134Y125356D01*
X213944Y125047D01*
X213806Y124713D01*
X213721Y124361D01*
X213693Y124000D01*
X213721Y123639D01*
X213806Y123287D01*
X213944Y122953D01*
X214134Y122644D01*
X214369Y122369D01*
X214644Y122134D01*
X214953Y121944D01*
X215287Y121806D01*
X215639Y121721D01*
X216000Y121693D01*
X216361Y121721D01*
X216713Y121806D01*
X217047Y121944D01*
X217356Y122134D01*
X217631Y122369D01*
X217744Y122500D01*
X221496D01*
Y120500D01*
X217744D01*
X217631Y120631D01*
X217356Y120866D01*
X217047Y121056D01*
X216713Y121194D01*
X216361Y121279D01*
X216000Y121307D01*
X215639Y121279D01*
X215287Y121194D01*
X214953Y121056D01*
X214644Y120866D01*
X214369Y120631D01*
X214134Y120356D01*
X213944Y120047D01*
X213806Y119713D01*
X213721Y119361D01*
X213693Y119000D01*
X213721Y118639D01*
X213806Y118287D01*
X213944Y117953D01*
X214134Y117644D01*
X214369Y117369D01*
X214644Y117134D01*
X214953Y116944D01*
X215287Y116806D01*
X215639Y116721D01*
X216000Y116693D01*
X216361Y116721D01*
X216713Y116806D01*
X217047Y116944D01*
X217356Y117134D01*
X217631Y117369D01*
X217744Y117500D01*
X221496D01*
Y2500D01*
X165996D01*
Y113875D01*
X167621Y115500D01*
X168362D01*
X168453Y115444D01*
X168787Y115306D01*
X169139Y115221D01*
X169500Y115193D01*
X169861Y115221D01*
X170213Y115306D01*
X170547Y115444D01*
X170856Y115634D01*
X171131Y115869D01*
X171366Y116144D01*
X171556Y116453D01*
X171694Y116787D01*
X171779Y117139D01*
X171800Y117500D01*
X171779Y117861D01*
X171695Y118208D01*
X171861Y118221D01*
X172213Y118306D01*
X172547Y118444D01*
X172856Y118634D01*
X173131Y118869D01*
X173366Y119144D01*
X173556Y119453D01*
X173694Y119787D01*
X173779Y120139D01*
X173800Y120500D01*
X173779Y120861D01*
X173694Y121213D01*
X173556Y121547D01*
X173366Y121856D01*
X173131Y122131D01*
X172856Y122366D01*
X172547Y122556D01*
X172213Y122694D01*
X171861Y122779D01*
X171695Y122792D01*
X171779Y123139D01*
X171800Y123500D01*
X171779Y123861D01*
X171695Y124208D01*
X171861Y124221D01*
X172213Y124306D01*
X172547Y124444D01*
X172856Y124634D01*
X173131Y124869D01*
X173366Y125144D01*
X173556Y125453D01*
X173694Y125787D01*
X173779Y126139D01*
X173800Y126500D01*
X173779Y126861D01*
X173694Y127213D01*
X173556Y127547D01*
X173366Y127856D01*
X173131Y128131D01*
X172856Y128366D01*
X172547Y128556D01*
X172213Y128694D01*
X171861Y128779D01*
X171500Y128807D01*
X171139Y128779D01*
X170787Y128694D01*
X170453Y128556D01*
X170144Y128366D01*
X169869Y128131D01*
X169756Y128000D01*
X167559D01*
X167500Y128005D01*
X167265Y127986D01*
X167035Y127931D01*
X166817Y127841D01*
X166616Y127717D01*
X166615Y127717D01*
X166436Y127564D01*
X166398Y127519D01*
X165996Y127118D01*
Y167423D01*
X166047Y167444D01*
X166356Y167634D01*
X166631Y167869D01*
X166866Y168144D01*
X167056Y168453D01*
X167194Y168787D01*
X167279Y169139D01*
X167300Y169500D01*
X167279Y169861D01*
X167203Y170176D01*
X167706Y169672D01*
X167693Y169500D01*
X167721Y169139D01*
X167806Y168787D01*
X167944Y168453D01*
X168134Y168144D01*
X168369Y167869D01*
X168644Y167634D01*
X168953Y167444D01*
X169287Y167306D01*
X169639Y167221D01*
X170000Y167193D01*
X170361Y167221D01*
X170713Y167306D01*
X171047Y167444D01*
X171356Y167634D01*
X171631Y167869D01*
X171866Y168144D01*
X172056Y168453D01*
X172194Y168787D01*
X172271Y169108D01*
X172898Y168481D01*
X172936Y168436D01*
X173116Y168283D01*
X173317Y168159D01*
X173535Y168069D01*
X173765Y168014D01*
X174000Y167995D01*
X174059Y168000D01*
X178256D01*
X178369Y167869D01*
X178644Y167634D01*
X178953Y167444D01*
X179287Y167306D01*
X179639Y167221D01*
X180000Y167193D01*
X180361Y167221D01*
X180713Y167306D01*
X181047Y167444D01*
X181356Y167634D01*
X181631Y167869D01*
X181866Y168144D01*
X182056Y168453D01*
X182194Y168787D01*
X182279Y169139D01*
X182300Y169500D01*
X182279Y169861D01*
X182194Y170213D01*
X182056Y170547D01*
X181866Y170856D01*
X181631Y171131D01*
X181356Y171366D01*
X181047Y171556D01*
X180713Y171694D01*
X180361Y171779D01*
X180000Y171807D01*
X179639Y171779D01*
X179287Y171694D01*
X178953Y171556D01*
X178644Y171366D01*
X178369Y171131D01*
X178256Y171000D01*
X174621D01*
X170102Y175519D01*
X170064Y175564D01*
X169884Y175717D01*
X169683Y175841D01*
X169465Y175931D01*
X169235Y175986D01*
X169235Y175986D01*
X169000Y176005D01*
X168941Y176000D01*
X165996D01*
Y227500D01*
G37*
G36*
Y2500D02*X146996D01*
Y104500D01*
X155941D01*
X156000Y104495D01*
X156235Y104514D01*
X156235Y104514D01*
X156465Y104569D01*
X156683Y104659D01*
X156884Y104783D01*
X157064Y104936D01*
X157102Y104981D01*
X165996Y113875D01*
Y2500D01*
G37*
G36*
X146996Y227500D02*X165996D01*
Y176000D01*
X158059D01*
X158000Y176005D01*
X157765Y175986D01*
X157535Y175931D01*
X157317Y175841D01*
X157116Y175717D01*
X157115Y175717D01*
X156936Y175564D01*
X156898Y175519D01*
X153981Y172602D01*
X153936Y172564D01*
X153783Y172384D01*
X153659Y172183D01*
X153569Y171965D01*
X153514Y171735D01*
X153514Y171735D01*
X153495Y171500D01*
X153500Y171441D01*
Y150121D01*
X150981Y147602D01*
X150936Y147564D01*
X150783Y147384D01*
X150659Y147183D01*
X150569Y146965D01*
X150514Y146735D01*
X150514Y146735D01*
X150495Y146500D01*
X150500Y146441D01*
Y146244D01*
X150369Y146131D01*
X150134Y145856D01*
X149944Y145547D01*
X149806Y145213D01*
X149721Y144861D01*
X149693Y144500D01*
X149721Y144139D01*
X149806Y143787D01*
X149944Y143453D01*
X150134Y143144D01*
X150369Y142869D01*
X150644Y142634D01*
X150953Y142444D01*
X151287Y142306D01*
X151639Y142221D01*
X152000Y142193D01*
X152361Y142221D01*
X152713Y142306D01*
X153047Y142444D01*
X153356Y142634D01*
X153631Y142869D01*
X153750Y143008D01*
X153869Y142869D01*
X154144Y142634D01*
X154453Y142444D01*
X154787Y142306D01*
X155139Y142221D01*
X155500Y142193D01*
X155861Y142221D01*
X156213Y142306D01*
X156547Y142444D01*
X156856Y142634D01*
X157131Y142869D01*
X157250Y143008D01*
X157369Y142869D01*
X157644Y142634D01*
X157953Y142444D01*
X158287Y142306D01*
X158639Y142221D01*
X159000Y142193D01*
X159361Y142221D01*
X159713Y142306D01*
X160047Y142444D01*
X160356Y142634D01*
X160631Y142869D01*
X160750Y143008D01*
X160869Y142869D01*
X161144Y142634D01*
X161453Y142444D01*
X161787Y142306D01*
X162139Y142221D01*
X162500Y142193D01*
X162861Y142221D01*
X163213Y142306D01*
X163547Y142444D01*
X163856Y142634D01*
X164131Y142869D01*
X164366Y143144D01*
X164556Y143453D01*
X164694Y143787D01*
X164779Y144139D01*
X164800Y144500D01*
X164779Y144861D01*
X164694Y145213D01*
X164556Y145547D01*
X164366Y145856D01*
X164131Y146131D01*
X164000Y146244D01*
Y146441D01*
X164005Y146500D01*
X163986Y146735D01*
X163931Y146965D01*
X163841Y147183D01*
X163717Y147384D01*
X163564Y147564D01*
X163519Y147602D01*
X162500Y148621D01*
Y164879D01*
X164828Y167206D01*
X165000Y167193D01*
X165361Y167221D01*
X165713Y167306D01*
X165996Y167423D01*
Y127118D01*
X152379Y113500D01*
X146996D01*
Y227500D01*
G37*
G36*
X115258D02*X146996D01*
Y113500D01*
X127621D01*
X124790Y116331D01*
X124800Y116500D01*
X124779Y116861D01*
X124694Y117213D01*
X124556Y117547D01*
X124366Y117856D01*
X124131Y118131D01*
X123856Y118366D01*
X123547Y118556D01*
X123213Y118694D01*
X122861Y118779D01*
X122500Y118807D01*
X122139Y118779D01*
X121787Y118694D01*
X121453Y118556D01*
X121144Y118366D01*
X120869Y118131D01*
X120634Y117856D01*
X120444Y117547D01*
X120306Y117213D01*
X120221Y116861D01*
X120193Y116500D01*
X120221Y116139D01*
X120306Y115787D01*
X120444Y115453D01*
X120634Y115144D01*
X120869Y114869D01*
X121144Y114634D01*
X121453Y114444D01*
X121787Y114306D01*
X122139Y114221D01*
X122500Y114193D01*
X122672Y114206D01*
X124879Y112000D01*
X124244D01*
X124131Y112131D01*
X123856Y112366D01*
X123547Y112556D01*
X123213Y112694D01*
X122861Y112779D01*
X122500Y112807D01*
X122139Y112779D01*
X121787Y112694D01*
X121453Y112556D01*
X121144Y112366D01*
X120869Y112131D01*
X120634Y111856D01*
X120444Y111547D01*
X120306Y111213D01*
X120221Y110861D01*
X120193Y110500D01*
X120221Y110139D01*
X120306Y109787D01*
X120444Y109453D01*
X120634Y109144D01*
X120869Y108869D01*
X121144Y108634D01*
X121453Y108444D01*
X121787Y108306D01*
X122139Y108221D01*
X122305Y108208D01*
X122221Y107861D01*
X122193Y107500D01*
X122221Y107139D01*
X122305Y106792D01*
X122139Y106779D01*
X121787Y106694D01*
X121453Y106556D01*
X121144Y106366D01*
X120869Y106131D01*
X120634Y105856D01*
X120444Y105547D01*
X120306Y105213D01*
X120221Y104861D01*
X120193Y104500D01*
X120221Y104139D01*
X120306Y103787D01*
X120444Y103453D01*
X120634Y103144D01*
X120869Y102869D01*
X121144Y102634D01*
X121453Y102444D01*
X121787Y102306D01*
X122139Y102221D01*
X122500Y102193D01*
X122861Y102221D01*
X123213Y102306D01*
X123547Y102444D01*
X123856Y102634D01*
X124131Y102869D01*
X124244Y103000D01*
X126441D01*
X126500Y102995D01*
X126735Y103014D01*
X126735Y103014D01*
X126965Y103069D01*
X127183Y103159D01*
X127384Y103283D01*
X127564Y103436D01*
X127602Y103481D01*
X128621Y104500D01*
X146996D01*
Y2500D01*
X115258D01*
Y167064D01*
X115500Y167045D01*
X116432Y167118D01*
X117340Y167336D01*
X118204Y167694D01*
X119000Y168182D01*
X119711Y168789D01*
X120318Y169500D01*
X120806Y170296D01*
X121164Y171160D01*
X121382Y172068D01*
X121437Y173000D01*
X121382Y173932D01*
X121164Y174840D01*
X120806Y175704D01*
X120318Y176500D01*
X119711Y177211D01*
X119000Y177818D01*
X118204Y178306D01*
X117340Y178664D01*
X116432Y178882D01*
X115500Y178955D01*
X115258Y178936D01*
Y227500D01*
G37*
G36*
X105502D02*X115258D01*
Y178936D01*
X114568Y178882D01*
X113660Y178664D01*
X112796Y178306D01*
X112000Y177818D01*
X111289Y177211D01*
X110682Y176500D01*
X110265Y175821D01*
X110176Y175836D01*
X110018Y175838D01*
X109861Y175815D01*
X109710Y175768D01*
X109569Y175698D01*
X109439Y175607D01*
X109326Y175496D01*
X109232Y175370D01*
X109158Y175230D01*
X109108Y175080D01*
X109081Y174924D01*
X109079Y174766D01*
X109102Y174610D01*
X109152Y174460D01*
X109278Y174108D01*
X109366Y173744D01*
X109419Y173374D01*
X109437Y173000D01*
X109419Y172626D01*
X109366Y172256D01*
X109278Y171892D01*
X109156Y171539D01*
X109106Y171389D01*
X109083Y171234D01*
X109085Y171076D01*
X109112Y170921D01*
X109162Y170772D01*
X109236Y170633D01*
X109330Y170507D01*
X109442Y170397D01*
X109571Y170306D01*
X109712Y170236D01*
X109862Y170189D01*
X110018Y170167D01*
X110175Y170168D01*
X110263Y170183D01*
X110682Y169500D01*
X111289Y168789D01*
X112000Y168182D01*
X112796Y167694D01*
X113660Y167336D01*
X114568Y167118D01*
X115258Y167064D01*
Y2500D01*
X105502D01*
Y167056D01*
X106064Y167083D01*
X106623Y167163D01*
X107172Y167296D01*
X107706Y167481D01*
X107848Y167550D01*
X107977Y167642D01*
X108091Y167752D01*
X108185Y167879D01*
X108259Y168019D01*
X108309Y168168D01*
X108336Y168324D01*
X108338Y168482D01*
X108315Y168639D01*
X108268Y168790D01*
X108198Y168931D01*
X108107Y169061D01*
X107996Y169174D01*
X107870Y169268D01*
X107730Y169342D01*
X107580Y169392D01*
X107424Y169419D01*
X107266Y169421D01*
X107110Y169398D01*
X106960Y169348D01*
X106608Y169222D01*
X106244Y169134D01*
X105874Y169081D01*
X105502Y169063D01*
Y176937D01*
X105874Y176919D01*
X106244Y176866D01*
X106608Y176778D01*
X106961Y176656D01*
X107111Y176606D01*
X107266Y176583D01*
X107424Y176585D01*
X107579Y176612D01*
X107728Y176662D01*
X107867Y176736D01*
X107993Y176830D01*
X108103Y176942D01*
X108194Y177071D01*
X108264Y177212D01*
X108311Y177362D01*
X108333Y177518D01*
X108332Y177675D01*
X108305Y177831D01*
X108254Y177980D01*
X108181Y178119D01*
X108087Y178245D01*
X107975Y178355D01*
X107846Y178446D01*
X107704Y178513D01*
X107172Y178704D01*
X106623Y178837D01*
X106064Y178917D01*
X105502Y178944D01*
Y227500D01*
G37*
G36*
X96571D02*X105502D01*
Y178944D01*
X105500Y178944D01*
X104936Y178917D01*
X104377Y178837D01*
X103828Y178704D01*
X103294Y178519D01*
X103152Y178450D01*
X103023Y178358D01*
X102909Y178248D01*
X102815Y178121D01*
X102741Y177981D01*
X102691Y177832D01*
X102664Y177676D01*
X102662Y177518D01*
X102685Y177361D01*
X102732Y177210D01*
X102802Y177069D01*
X102893Y176939D01*
X103004Y176826D01*
X103130Y176732D01*
X103270Y176658D01*
X103420Y176608D01*
X103576Y176581D01*
X103734Y176579D01*
X103890Y176602D01*
X104040Y176652D01*
X104392Y176778D01*
X104756Y176866D01*
X105126Y176919D01*
X105500Y176937D01*
X105502Y176937D01*
Y169063D01*
X105500Y169063D01*
X105126Y169081D01*
X104756Y169134D01*
X104392Y169222D01*
X104039Y169344D01*
X103889Y169394D01*
X103734Y169417D01*
X103576Y169415D01*
X103421Y169388D01*
X103272Y169338D01*
X103133Y169264D01*
X103007Y169170D01*
X102897Y169058D01*
X102806Y168929D01*
X102736Y168788D01*
X102689Y168638D01*
X102667Y168482D01*
X102668Y168325D01*
X102695Y168169D01*
X102746Y168020D01*
X102819Y167881D01*
X102913Y167755D01*
X103025Y167645D01*
X103154Y167554D01*
X103296Y167487D01*
X103828Y167296D01*
X104377Y167163D01*
X104936Y167083D01*
X105500Y167056D01*
X105502Y167056D01*
Y2500D01*
X96571D01*
Y123693D01*
X96575Y123693D01*
X96936Y123721D01*
X97288Y123806D01*
X97622Y123944D01*
X97931Y124134D01*
X98206Y124369D01*
X98441Y124644D01*
X98631Y124953D01*
X98769Y125287D01*
X98854Y125639D01*
X98875Y126000D01*
X98854Y126361D01*
X98769Y126713D01*
X98631Y127047D01*
X98441Y127356D01*
X98206Y127631D01*
X98075Y127744D01*
Y130256D01*
X98206Y130369D01*
X98441Y130644D01*
X98631Y130953D01*
X98769Y131287D01*
X98854Y131639D01*
X98875Y132000D01*
X98854Y132361D01*
X98769Y132713D01*
X98631Y133047D01*
X98441Y133356D01*
X98206Y133631D01*
X97931Y133866D01*
X97622Y134056D01*
X97288Y134194D01*
X96936Y134279D01*
X96575Y134307D01*
X96571Y134307D01*
Y167074D01*
X99751Y167082D01*
X100057Y167155D01*
X100348Y167275D01*
X100616Y167440D01*
X100856Y167644D01*
X101060Y167884D01*
X101225Y168152D01*
X101345Y168443D01*
X101418Y168749D01*
X101437Y169063D01*
X101434Y170304D01*
X101561Y170393D01*
X101674Y170504D01*
X101768Y170630D01*
X101842Y170770D01*
X101892Y170920D01*
X101919Y171076D01*
X101921Y171234D01*
X101898Y171390D01*
X101848Y171540D01*
X101722Y171892D01*
X101634Y172256D01*
X101581Y172626D01*
X101563Y173000D01*
X101581Y173374D01*
X101634Y173744D01*
X101722Y174108D01*
X101844Y174461D01*
X101894Y174611D01*
X101917Y174766D01*
X101915Y174924D01*
X101888Y175079D01*
X101838Y175228D01*
X101764Y175367D01*
X101670Y175493D01*
X101558Y175603D01*
X101429Y175694D01*
X101422Y175698D01*
X101418Y177251D01*
X101345Y177557D01*
X101225Y177848D01*
X101060Y178116D01*
X100856Y178356D01*
X100616Y178560D01*
X100348Y178725D01*
X100057Y178845D01*
X99751Y178918D01*
X99437Y178937D01*
X96571Y178931D01*
Y227500D01*
G37*
G36*
X87996D02*X96571D01*
Y178931D01*
X91249Y178918D01*
X90943Y178845D01*
X90652Y178725D01*
X90384Y178560D01*
X90144Y178356D01*
X89940Y178116D01*
X89775Y177848D01*
X89655Y177557D01*
X89582Y177251D01*
X89563Y176937D01*
X89582Y168749D01*
X89655Y168443D01*
X89775Y168152D01*
X89940Y167884D01*
X90144Y167644D01*
X90384Y167440D01*
X90652Y167275D01*
X90943Y167155D01*
X91249Y167082D01*
X91563Y167063D01*
X96571Y167074D01*
Y134307D01*
X96214Y134279D01*
X95862Y134194D01*
X95528Y134056D01*
X95219Y133866D01*
X94944Y133631D01*
X94709Y133356D01*
X94519Y133047D01*
X94381Y132713D01*
X94296Y132361D01*
X94268Y132000D01*
X94296Y131639D01*
X94381Y131287D01*
X94519Y130953D01*
X94709Y130644D01*
X94944Y130369D01*
X95075Y130256D01*
Y127744D01*
X94944Y127631D01*
X94709Y127356D01*
X94519Y127047D01*
X94381Y126713D01*
X94296Y126361D01*
X94268Y126000D01*
X94296Y125639D01*
X94381Y125287D01*
X94519Y124953D01*
X94709Y124644D01*
X94944Y124369D01*
X95219Y124134D01*
X95528Y123944D01*
X95862Y123806D01*
X96214Y123721D01*
X96571Y123693D01*
Y2500D01*
X87996D01*
Y123693D01*
X88000Y123693D01*
X88361Y123721D01*
X88713Y123806D01*
X89047Y123944D01*
X89356Y124134D01*
X89631Y124369D01*
X89866Y124644D01*
X90056Y124953D01*
X90194Y125287D01*
X90279Y125639D01*
X90300Y126000D01*
X90279Y126361D01*
X90194Y126713D01*
X90056Y127047D01*
X89866Y127356D01*
X89631Y127631D01*
X89500Y127744D01*
Y130256D01*
X89631Y130369D01*
X89866Y130644D01*
X90056Y130953D01*
X90194Y131287D01*
X90279Y131639D01*
X90300Y132000D01*
X90279Y132361D01*
X90194Y132713D01*
X90056Y133047D01*
X89866Y133356D01*
X89631Y133631D01*
X89356Y133866D01*
X89047Y134056D01*
X88713Y134194D01*
X88361Y134279D01*
X88000Y134307D01*
X87996Y134307D01*
Y227500D01*
G37*
G36*
X77496D02*X87996D01*
Y134307D01*
X87639Y134279D01*
X87287Y134194D01*
X86953Y134056D01*
X86644Y133866D01*
X86369Y133631D01*
X86134Y133356D01*
X85944Y133047D01*
X85806Y132713D01*
X85721Y132361D01*
X85693Y132000D01*
X85721Y131639D01*
X85806Y131287D01*
X85944Y130953D01*
X86134Y130644D01*
X86369Y130369D01*
X86500Y130256D01*
Y127744D01*
X86369Y127631D01*
X86134Y127356D01*
X85944Y127047D01*
X85806Y126713D01*
X85721Y126361D01*
X85693Y126000D01*
X85721Y125639D01*
X85806Y125287D01*
X85944Y124953D01*
X86134Y124644D01*
X86369Y124369D01*
X86644Y124134D01*
X86953Y123944D01*
X87287Y123806D01*
X87639Y123721D01*
X87996Y123693D01*
Y2500D01*
X77496D01*
Y98693D01*
X77500Y98693D01*
X77861Y98721D01*
X78213Y98806D01*
X78547Y98944D01*
X78856Y99134D01*
X79131Y99369D01*
X79366Y99644D01*
X79556Y99953D01*
X79694Y100287D01*
X79779Y100639D01*
X79800Y101000D01*
X79779Y101361D01*
X79694Y101713D01*
X79556Y102047D01*
X79366Y102356D01*
X79131Y102631D01*
X79000Y102744D01*
Y112756D01*
X79131Y112869D01*
X79366Y113144D01*
X79556Y113453D01*
X79694Y113787D01*
X79779Y114139D01*
X79800Y114500D01*
X79779Y114861D01*
X79694Y115213D01*
X79556Y115547D01*
X79366Y115856D01*
X79131Y116131D01*
X78856Y116366D01*
X78547Y116556D01*
X78213Y116694D01*
X77861Y116779D01*
X77500Y116807D01*
X77496Y116807D01*
Y227500D01*
G37*
G36*
X66993D02*X77496D01*
Y116807D01*
X77139Y116779D01*
X76787Y116694D01*
X76453Y116556D01*
X76144Y116366D01*
X75869Y116131D01*
X75634Y115856D01*
X75444Y115547D01*
X75306Y115213D01*
X75221Y114861D01*
X75193Y114500D01*
X75221Y114139D01*
X75306Y113787D01*
X75444Y113453D01*
X75634Y113144D01*
X75869Y112869D01*
X76000Y112756D01*
Y102744D01*
X75869Y102631D01*
X75634Y102356D01*
X75444Y102047D01*
X75306Y101713D01*
X75221Y101361D01*
X75193Y101000D01*
X75221Y100639D01*
X75306Y100287D01*
X75444Y99953D01*
X75634Y99644D01*
X75869Y99369D01*
X76144Y99134D01*
X76453Y98944D01*
X76787Y98806D01*
X77139Y98721D01*
X77496Y98693D01*
Y2500D01*
X66993D01*
Y73987D01*
X67000Y73986D01*
X67706Y74042D01*
X68395Y74207D01*
X69049Y74478D01*
X69653Y74848D01*
X70192Y75308D01*
X70652Y75847D01*
X71022Y76451D01*
X71293Y77105D01*
X71458Y77794D01*
X71500Y78500D01*
X71458Y79206D01*
X71293Y79895D01*
X71022Y80549D01*
X70652Y81153D01*
X70192Y81692D01*
X69653Y82152D01*
X69049Y82522D01*
X68395Y82793D01*
X67706Y82958D01*
X67000Y83014D01*
X66993Y83013D01*
Y83987D01*
X67000Y83986D01*
X67706Y84042D01*
X68395Y84207D01*
X69049Y84478D01*
X69653Y84848D01*
X70192Y85308D01*
X70652Y85847D01*
X71022Y86451D01*
X71293Y87105D01*
X71458Y87794D01*
X71500Y88500D01*
X71458Y89206D01*
X71293Y89895D01*
X71022Y90549D01*
X70652Y91153D01*
X70192Y91692D01*
X69653Y92152D01*
X69049Y92522D01*
X68395Y92793D01*
X67706Y92958D01*
X67000Y93014D01*
X66993Y93013D01*
Y93987D01*
X67000Y93986D01*
X67706Y94042D01*
X68395Y94207D01*
X69049Y94478D01*
X69653Y94848D01*
X70192Y95308D01*
X70652Y95847D01*
X71022Y96451D01*
X71293Y97105D01*
X71458Y97794D01*
X71500Y98500D01*
X71458Y99206D01*
X71293Y99895D01*
X71022Y100549D01*
X70652Y101153D01*
X70192Y101692D01*
X69653Y102152D01*
X69049Y102522D01*
X68395Y102793D01*
X67706Y102958D01*
X67000Y103014D01*
X66993Y103013D01*
Y227500D01*
G37*
G36*
X60720D02*X66993D01*
Y103013D01*
X66294Y102958D01*
X65605Y102793D01*
X64951Y102522D01*
X64347Y102152D01*
X63808Y101692D01*
X63348Y101153D01*
X62978Y100549D01*
X62707Y99895D01*
X62542Y99206D01*
X62486Y98500D01*
X62542Y97794D01*
X62707Y97105D01*
X62978Y96451D01*
X63348Y95847D01*
X63808Y95308D01*
X64347Y94848D01*
X64951Y94478D01*
X65605Y94207D01*
X66294Y94042D01*
X66993Y93987D01*
Y93013D01*
X66294Y92958D01*
X65605Y92793D01*
X64951Y92522D01*
X64347Y92152D01*
X63808Y91692D01*
X63348Y91153D01*
X62978Y90549D01*
X62707Y89895D01*
X62542Y89206D01*
X62486Y88500D01*
X62542Y87794D01*
X62707Y87105D01*
X62978Y86451D01*
X63348Y85847D01*
X63808Y85308D01*
X64347Y84848D01*
X64951Y84478D01*
X65605Y84207D01*
X66294Y84042D01*
X66993Y83987D01*
Y83013D01*
X66294Y82958D01*
X65605Y82793D01*
X64951Y82522D01*
X64347Y82152D01*
X63808Y81692D01*
X63348Y81153D01*
X62978Y80549D01*
X62707Y79895D01*
X62542Y79206D01*
X62486Y78500D01*
X62542Y77794D01*
X62707Y77105D01*
X62978Y76451D01*
X63348Y75847D01*
X63808Y75308D01*
X64347Y74848D01*
X64951Y74478D01*
X65605Y74207D01*
X66294Y74042D01*
X66993Y73987D01*
Y2500D01*
X60720D01*
Y70959D01*
X61022Y71451D01*
X61293Y72105D01*
X61458Y72794D01*
X61500Y73500D01*
X61458Y74206D01*
X61293Y74895D01*
X61022Y75549D01*
X60720Y76041D01*
Y80959D01*
X61022Y81451D01*
X61293Y82105D01*
X61458Y82794D01*
X61500Y83500D01*
X61458Y84206D01*
X61293Y84895D01*
X61022Y85549D01*
X60720Y86041D01*
Y91044D01*
X60771Y91083D01*
X60826Y91139D01*
X60870Y91204D01*
X61064Y91556D01*
X61221Y91926D01*
X61344Y92309D01*
X61433Y92700D01*
X61487Y93099D01*
X61504Y93500D01*
X61487Y93901D01*
X61433Y94300D01*
X61344Y94691D01*
X61221Y95074D01*
X61064Y95444D01*
X60874Y95798D01*
X60829Y95863D01*
X60774Y95920D01*
X60720Y95960D01*
Y227500D01*
G37*
G36*
Y76041D02*X60652Y76153D01*
X60192Y76692D01*
X59653Y77152D01*
X59049Y77522D01*
X58395Y77793D01*
X57706Y77958D01*
X57002Y78014D01*
Y78986D01*
X57706Y79042D01*
X58395Y79207D01*
X59049Y79478D01*
X59653Y79848D01*
X60192Y80308D01*
X60652Y80847D01*
X60720Y80959D01*
Y76041D01*
G37*
G36*
Y2500D02*X57002D01*
Y68986D01*
X57706Y69042D01*
X58395Y69207D01*
X59049Y69478D01*
X59653Y69848D01*
X60192Y70308D01*
X60652Y70847D01*
X60720Y70959D01*
Y2500D01*
G37*
G36*
X57002Y227500D02*X60720D01*
Y95960D01*
X60710Y95968D01*
X60640Y96004D01*
X60565Y96030D01*
X60487Y96044D01*
X60408Y96045D01*
X60329Y96033D01*
X60254Y96010D01*
X60183Y95975D01*
X60118Y95929D01*
X60061Y95874D01*
X60013Y95811D01*
X59976Y95741D01*
X59951Y95666D01*
X59937Y95588D01*
X59936Y95508D01*
X59948Y95430D01*
X59971Y95354D01*
X60007Y95284D01*
X60157Y95010D01*
X60279Y94723D01*
X60375Y94426D01*
X60444Y94121D01*
X60486Y93812D01*
X60500Y93500D01*
X60486Y93188D01*
X60444Y92879D01*
X60375Y92574D01*
X60279Y92277D01*
X60157Y91990D01*
X60010Y91714D01*
X59974Y91645D01*
X59951Y91569D01*
X59940Y91491D01*
X59941Y91413D01*
X59954Y91335D01*
X59980Y91261D01*
X60016Y91191D01*
X60064Y91128D01*
X60120Y91073D01*
X60184Y91028D01*
X60255Y90993D01*
X60330Y90970D01*
X60408Y90959D01*
X60487Y90960D01*
X60564Y90973D01*
X60639Y90999D01*
X60708Y91035D01*
X60720Y91044D01*
Y86041D01*
X60652Y86153D01*
X60192Y86692D01*
X59653Y87152D01*
X59049Y87522D01*
X58395Y87793D01*
X57706Y87958D01*
X57002Y88014D01*
Y88996D01*
X57401Y89013D01*
X57800Y89067D01*
X58191Y89156D01*
X58574Y89279D01*
X58944Y89436D01*
X59298Y89626D01*
X59363Y89671D01*
X59420Y89726D01*
X59468Y89790D01*
X59504Y89860D01*
X59530Y89935D01*
X59544Y90013D01*
X59545Y90092D01*
X59533Y90171D01*
X59510Y90246D01*
X59475Y90317D01*
X59429Y90382D01*
X59374Y90439D01*
X59311Y90487D01*
X59241Y90524D01*
X59166Y90549D01*
X59088Y90563D01*
X59008Y90564D01*
X58930Y90552D01*
X58854Y90529D01*
X58784Y90493D01*
X58510Y90343D01*
X58223Y90221D01*
X57926Y90125D01*
X57621Y90056D01*
X57312Y90014D01*
X57002Y90000D01*
Y97000D01*
X57312Y96986D01*
X57621Y96944D01*
X57926Y96875D01*
X58223Y96779D01*
X58510Y96657D01*
X58786Y96510D01*
X58855Y96474D01*
X58931Y96451D01*
X59009Y96440D01*
X59087Y96441D01*
X59165Y96454D01*
X59239Y96480D01*
X59309Y96516D01*
X59372Y96564D01*
X59427Y96620D01*
X59472Y96684D01*
X59507Y96755D01*
X59530Y96830D01*
X59541Y96908D01*
X59540Y96987D01*
X59527Y97064D01*
X59501Y97139D01*
X59465Y97208D01*
X59417Y97271D01*
X59361Y97326D01*
X59296Y97370D01*
X58944Y97564D01*
X58574Y97721D01*
X58191Y97844D01*
X57800Y97933D01*
X57401Y97987D01*
X57002Y98004D01*
Y227500D01*
G37*
G36*
X53280Y70959D02*X53348Y70847D01*
X53808Y70308D01*
X54347Y69848D01*
X54951Y69478D01*
X55605Y69207D01*
X56294Y69042D01*
X57000Y68986D01*
X57002Y68986D01*
Y2500D01*
X53280D01*
Y70959D01*
G37*
G36*
Y80959D02*X53348Y80847D01*
X53808Y80308D01*
X54347Y79848D01*
X54951Y79478D01*
X55605Y79207D01*
X56294Y79042D01*
X57000Y78986D01*
X57002Y78986D01*
Y78014D01*
X57000Y78014D01*
X56294Y77958D01*
X55605Y77793D01*
X54951Y77522D01*
X54347Y77152D01*
X53808Y76692D01*
X53348Y76153D01*
X53280Y76041D01*
Y80959D01*
G37*
G36*
Y227500D02*X57002D01*
Y98004D01*
X57000Y98004D01*
X56599Y97987D01*
X56200Y97933D01*
X55809Y97844D01*
X55426Y97721D01*
X55056Y97564D01*
X54702Y97374D01*
X54637Y97329D01*
X54580Y97274D01*
X54532Y97210D01*
X54496Y97140D01*
X54470Y97065D01*
X54456Y96987D01*
X54455Y96908D01*
X54467Y96829D01*
X54490Y96754D01*
X54525Y96683D01*
X54571Y96618D01*
X54626Y96561D01*
X54689Y96513D01*
X54759Y96476D01*
X54834Y96451D01*
X54912Y96437D01*
X54992Y96436D01*
X55070Y96448D01*
X55146Y96471D01*
X55216Y96507D01*
X55490Y96657D01*
X55777Y96779D01*
X56074Y96875D01*
X56379Y96944D01*
X56688Y96986D01*
X57000Y97000D01*
X57002Y97000D01*
Y90000D01*
X57000Y90000D01*
X56688Y90014D01*
X56379Y90056D01*
X56074Y90125D01*
X55777Y90221D01*
X55490Y90343D01*
X55214Y90490D01*
X55145Y90526D01*
X55069Y90549D01*
X54991Y90560D01*
X54913Y90559D01*
X54835Y90546D01*
X54761Y90520D01*
X54691Y90484D01*
X54628Y90436D01*
X54573Y90380D01*
X54528Y90316D01*
X54493Y90245D01*
X54470Y90170D01*
X54459Y90092D01*
X54460Y90013D01*
X54473Y89936D01*
X54499Y89861D01*
X54535Y89792D01*
X54583Y89729D01*
X54639Y89674D01*
X54704Y89630D01*
X55056Y89436D01*
X55426Y89279D01*
X55809Y89156D01*
X56200Y89067D01*
X56599Y89013D01*
X57000Y88996D01*
X57002Y88996D01*
Y88014D01*
X57000Y88014D01*
X56294Y87958D01*
X55605Y87793D01*
X54951Y87522D01*
X54347Y87152D01*
X53808Y86692D01*
X53348Y86153D01*
X53280Y86041D01*
Y91040D01*
X53290Y91032D01*
X53360Y90996D01*
X53435Y90970D01*
X53513Y90956D01*
X53592Y90955D01*
X53671Y90967D01*
X53746Y90990D01*
X53817Y91025D01*
X53882Y91071D01*
X53939Y91126D01*
X53987Y91189D01*
X54024Y91259D01*
X54049Y91334D01*
X54063Y91412D01*
X54064Y91492D01*
X54052Y91570D01*
X54029Y91646D01*
X53993Y91716D01*
X53843Y91990D01*
X53721Y92277D01*
X53625Y92574D01*
X53556Y92879D01*
X53514Y93188D01*
X53500Y93500D01*
X53514Y93812D01*
X53556Y94121D01*
X53625Y94426D01*
X53721Y94723D01*
X53843Y95010D01*
X53990Y95286D01*
X54026Y95355D01*
X54049Y95431D01*
X54060Y95509D01*
X54059Y95587D01*
X54046Y95665D01*
X54020Y95739D01*
X53984Y95809D01*
X53936Y95872D01*
X53880Y95927D01*
X53816Y95972D01*
X53745Y96007D01*
X53670Y96030D01*
X53592Y96041D01*
X53513Y96040D01*
X53436Y96027D01*
X53361Y96001D01*
X53292Y95965D01*
X53280Y95956D01*
Y227500D01*
G37*
G36*
X31987D02*X53280D01*
Y95956D01*
X53229Y95917D01*
X53174Y95861D01*
X53130Y95796D01*
X52936Y95444D01*
X52779Y95074D01*
X52656Y94691D01*
X52567Y94300D01*
X52513Y93901D01*
X52496Y93500D01*
X52513Y93099D01*
X52567Y92700D01*
X52656Y92309D01*
X52779Y91926D01*
X52936Y91556D01*
X53126Y91202D01*
X53171Y91137D01*
X53226Y91080D01*
X53280Y91040D01*
Y86041D01*
X52978Y85549D01*
X52707Y84895D01*
X52542Y84206D01*
X52486Y83500D01*
X52542Y82794D01*
X52707Y82105D01*
X52978Y81451D01*
X53280Y80959D01*
Y76041D01*
X52978Y75549D01*
X52707Y74895D01*
X52542Y74206D01*
X52486Y73500D01*
X52542Y72794D01*
X52707Y72105D01*
X52978Y71451D01*
X53280Y70959D01*
Y2500D01*
X31987D01*
Y12242D01*
X32539Y14539D01*
X32684Y17000D01*
X32539Y19461D01*
X31987Y21758D01*
Y57776D01*
X32000Y57775D01*
X33287Y57876D01*
X34542Y58177D01*
X35734Y58671D01*
X36835Y59346D01*
X37816Y60184D01*
X38654Y61165D01*
X39329Y62266D01*
X39823Y63458D01*
X40124Y64713D01*
X40200Y66000D01*
X40124Y67287D01*
X39823Y68542D01*
X39329Y69734D01*
X38654Y70835D01*
X37816Y71816D01*
X36835Y72654D01*
X35734Y73329D01*
X34542Y73823D01*
X33287Y74124D01*
X32000Y74225D01*
X31987Y74224D01*
Y97776D01*
X32000Y97775D01*
X33287Y97876D01*
X34542Y98177D01*
X35734Y98671D01*
X36835Y99346D01*
X37816Y100184D01*
X38654Y101165D01*
X39329Y102266D01*
X39823Y103458D01*
X40124Y104713D01*
X40200Y106000D01*
X40124Y107287D01*
X39823Y108542D01*
X39329Y109734D01*
X38654Y110835D01*
X37816Y111816D01*
X36835Y112654D01*
X35734Y113329D01*
X34542Y113823D01*
X33287Y114124D01*
X32000Y114225D01*
X31987Y114224D01*
Y208242D01*
X32539Y210539D01*
X32684Y213000D01*
X32539Y215461D01*
X31987Y217758D01*
Y227500D01*
G37*
G36*
X26493Y99920D02*X27165Y99346D01*
X28266Y98671D01*
X29458Y98177D01*
X30713Y97876D01*
X31987Y97776D01*
Y74224D01*
X30713Y74124D01*
X29458Y73823D01*
X28266Y73329D01*
X27165Y72654D01*
X26493Y72080D01*
Y99920D01*
G37*
G36*
Y121805D02*X26916Y122495D01*
X27247Y123295D01*
X27449Y124137D01*
X27500Y125000D01*
X27449Y125863D01*
X27247Y126705D01*
X26916Y127505D01*
X26493Y128195D01*
Y139580D01*
X26683Y139659D01*
X26884Y139783D01*
X27064Y139936D01*
X27217Y140116D01*
X27341Y140317D01*
X27431Y140535D01*
X27486Y140765D01*
X27500Y141000D01*
X27486Y149235D01*
X27431Y149465D01*
X27341Y149683D01*
X27217Y149884D01*
X27064Y150064D01*
X26884Y150217D01*
X26683Y150341D01*
X26493Y150420D01*
Y162145D01*
X26578Y162181D01*
X26679Y162243D01*
X26769Y162319D01*
X26845Y162409D01*
X26905Y162511D01*
X27122Y162980D01*
X27289Y163469D01*
X27409Y163972D01*
X27482Y164484D01*
X27506Y165000D01*
X27482Y165516D01*
X27409Y166028D01*
X27289Y166531D01*
X27122Y167020D01*
X26910Y167492D01*
X26849Y167593D01*
X26772Y167684D01*
X26682Y167761D01*
X26580Y167823D01*
X26493Y167860D01*
Y179580D01*
X26683Y179659D01*
X26884Y179783D01*
X27064Y179936D01*
X27217Y180116D01*
X27341Y180317D01*
X27431Y180535D01*
X27486Y180765D01*
X27500Y181000D01*
X27486Y189235D01*
X27431Y189465D01*
X27341Y189683D01*
X27217Y189884D01*
X27064Y190064D01*
X26884Y190217D01*
X26683Y190341D01*
X26493Y190420D01*
Y200482D01*
X28124Y201876D01*
X29728Y203753D01*
X31018Y205858D01*
X31962Y208138D01*
X31987Y208242D01*
Y114224D01*
X30713Y114124D01*
X29458Y113823D01*
X28266Y113329D01*
X27165Y112654D01*
X26493Y112080D01*
Y121805D01*
G37*
G36*
X31987Y21758D02*X31962Y21862D01*
X31018Y24142D01*
X29728Y26247D01*
X28124Y28124D01*
X26493Y29518D01*
Y59920D01*
X27165Y59346D01*
X28266Y58671D01*
X29458Y58177D01*
X30713Y57876D01*
X31987Y57776D01*
Y21758D01*
G37*
G36*
X26493Y190420D02*X26465Y190431D01*
X26235Y190486D01*
X26000Y190500D01*
X22000Y190493D01*
Y198095D01*
X24142Y198982D01*
X26247Y200272D01*
X26493Y200482D01*
Y190420D01*
G37*
G36*
Y150420D02*X26465Y150431D01*
X26235Y150486D01*
X26000Y150500D01*
X22000Y150493D01*
Y159494D01*
X22516Y159518D01*
X23028Y159591D01*
X23531Y159711D01*
X24020Y159878D01*
X24492Y160090D01*
X24593Y160151D01*
X24684Y160228D01*
X24761Y160318D01*
X24823Y160420D01*
X24869Y160529D01*
X24897Y160645D01*
X24906Y160763D01*
X24897Y160881D01*
X24870Y160997D01*
X24824Y161107D01*
X24762Y161208D01*
X24686Y161298D01*
X24595Y161376D01*
X24494Y161438D01*
X24385Y161484D01*
X24269Y161511D01*
X24151Y161521D01*
X24032Y161512D01*
X23917Y161484D01*
X23808Y161437D01*
X23468Y161279D01*
X23112Y161158D01*
X22747Y161070D01*
X22375Y161018D01*
X22000Y161000D01*
Y169000D01*
X22375Y168982D01*
X22747Y168930D01*
X23112Y168842D01*
X23468Y168721D01*
X23810Y168567D01*
X23918Y168520D01*
X24033Y168493D01*
X24151Y168483D01*
X24268Y168493D01*
X24383Y168521D01*
X24492Y168566D01*
X24593Y168628D01*
X24682Y168705D01*
X24759Y168795D01*
X24820Y168895D01*
X24865Y169004D01*
X24893Y169119D01*
X24902Y169237D01*
X24892Y169355D01*
X24865Y169469D01*
X24819Y169578D01*
X24757Y169679D01*
X24681Y169769D01*
X24591Y169845D01*
X24489Y169905D01*
X24020Y170122D01*
X23531Y170289D01*
X23028Y170409D01*
X22516Y170482D01*
X22000Y170506D01*
Y179507D01*
X26235Y179514D01*
X26465Y179569D01*
X26493Y179580D01*
Y167860D01*
X26471Y167869D01*
X26355Y167897D01*
X26237Y167906D01*
X26119Y167897D01*
X26003Y167870D01*
X25893Y167824D01*
X25792Y167762D01*
X25702Y167686D01*
X25624Y167595D01*
X25562Y167494D01*
X25516Y167385D01*
X25489Y167269D01*
X25479Y167151D01*
X25488Y167032D01*
X25516Y166917D01*
X25563Y166808D01*
X25721Y166468D01*
X25842Y166112D01*
X25930Y165747D01*
X25982Y165375D01*
X26000Y165000D01*
X25982Y164625D01*
X25930Y164253D01*
X25842Y163888D01*
X25721Y163532D01*
X25567Y163190D01*
X25520Y163082D01*
X25493Y162967D01*
X25483Y162849D01*
X25493Y162732D01*
X25521Y162617D01*
X25566Y162508D01*
X25628Y162407D01*
X25705Y162318D01*
X25795Y162241D01*
X25895Y162180D01*
X26004Y162135D01*
X26119Y162107D01*
X26237Y162098D01*
X26355Y162108D01*
X26469Y162135D01*
X26493Y162145D01*
Y150420D01*
G37*
G36*
Y128195D02*X26463Y128243D01*
X25901Y128901D01*
X25243Y129463D01*
X24505Y129916D01*
X23705Y130247D01*
X22863Y130449D01*
X22000Y130517D01*
Y139507D01*
X26235Y139514D01*
X26465Y139569D01*
X26493Y139580D01*
Y128195D01*
G37*
G36*
Y29518D02*X26247Y29728D01*
X24142Y31018D01*
X22000Y31905D01*
Y119483D01*
X22863Y119551D01*
X23705Y119753D01*
X24505Y120084D01*
X25243Y120537D01*
X25901Y121099D01*
X26463Y121757D01*
X26493Y121805D01*
Y112080D01*
X26184Y111816D01*
X25346Y110835D01*
X24671Y109734D01*
X24177Y108542D01*
X23876Y107287D01*
X23775Y106000D01*
X23876Y104713D01*
X24177Y103458D01*
X24671Y102266D01*
X25346Y101165D01*
X26184Y100184D01*
X26493Y99920D01*
Y72080D01*
X26184Y71816D01*
X25346Y70835D01*
X24671Y69734D01*
X24177Y68542D01*
X23876Y67287D01*
X23775Y66000D01*
X23876Y64713D01*
X24177Y63458D01*
X24671Y62266D01*
X25346Y61165D01*
X26184Y60184D01*
X26493Y59920D01*
Y29518D01*
G37*
G36*
X17507Y139580D02*X17535Y139569D01*
X17765Y139514D01*
X18000Y139500D01*
X22000Y139507D01*
Y130517D01*
X21137Y130449D01*
X20295Y130247D01*
X19495Y129916D01*
X18757Y129463D01*
X18099Y128901D01*
X17537Y128243D01*
X17507Y128195D01*
Y139580D01*
G37*
G36*
Y179580D02*X17535Y179569D01*
X17765Y179514D01*
X18000Y179500D01*
X22000Y179507D01*
Y170506D01*
X22000D01*
X21484Y170482D01*
X20972Y170409D01*
X20469Y170289D01*
X19980Y170122D01*
X19508Y169910D01*
X19407Y169849D01*
X19316Y169772D01*
X19239Y169682D01*
X19177Y169580D01*
X19131Y169471D01*
X19103Y169355D01*
X19094Y169237D01*
X19103Y169119D01*
X19130Y169003D01*
X19176Y168893D01*
X19238Y168792D01*
X19314Y168702D01*
X19405Y168624D01*
X19506Y168562D01*
X19615Y168516D01*
X19731Y168489D01*
X19849Y168479D01*
X19968Y168488D01*
X20083Y168516D01*
X20192Y168563D01*
X20532Y168721D01*
X20888Y168842D01*
X21253Y168930D01*
X21625Y168982D01*
X22000Y169000D01*
Y161000D01*
X21625Y161018D01*
X21253Y161070D01*
X20888Y161158D01*
X20532Y161279D01*
X20190Y161433D01*
X20082Y161480D01*
X19967Y161507D01*
X19849Y161517D01*
X19732Y161507D01*
X19617Y161479D01*
X19508Y161434D01*
X19407Y161372D01*
X19318Y161295D01*
X19241Y161205D01*
X19180Y161105D01*
X19135Y160996D01*
X19107Y160881D01*
X19098Y160763D01*
X19108Y160645D01*
X19135Y160531D01*
X19181Y160422D01*
X19243Y160321D01*
X19319Y160231D01*
X19409Y160155D01*
X19511Y160095D01*
X19980Y159878D01*
X20469Y159711D01*
X20972Y159591D01*
X21484Y159518D01*
X22000Y159494D01*
X22000D01*
Y150493D01*
X17765Y150486D01*
X17535Y150431D01*
X17507Y150420D01*
Y162140D01*
X17529Y162131D01*
X17645Y162103D01*
X17763Y162094D01*
X17881Y162103D01*
X17997Y162130D01*
X18107Y162176D01*
X18208Y162238D01*
X18298Y162314D01*
X18376Y162405D01*
X18438Y162506D01*
X18484Y162615D01*
X18511Y162731D01*
X18521Y162849D01*
X18512Y162968D01*
X18484Y163083D01*
X18437Y163192D01*
X18279Y163532D01*
X18158Y163888D01*
X18070Y164253D01*
X18018Y164625D01*
X18000Y165000D01*
X18018Y165375D01*
X18070Y165747D01*
X18158Y166112D01*
X18279Y166468D01*
X18433Y166810D01*
X18480Y166918D01*
X18507Y167033D01*
X18517Y167151D01*
X18507Y167268D01*
X18479Y167383D01*
X18434Y167492D01*
X18372Y167593D01*
X18295Y167682D01*
X18205Y167759D01*
X18105Y167820D01*
X17996Y167865D01*
X17881Y167893D01*
X17763Y167902D01*
X17645Y167892D01*
X17531Y167865D01*
X17507Y167855D01*
Y179580D01*
G37*
G36*
Y197308D02*X19461Y197461D01*
X21862Y198038D01*
X22000Y198095D01*
Y190493D01*
X17765Y190486D01*
X17535Y190431D01*
X17507Y190420D01*
Y197308D01*
G37*
G36*
X22000Y31905D02*X21862Y31962D01*
X19461Y32539D01*
X17507Y32692D01*
Y121805D01*
X17537Y121757D01*
X18099Y121099D01*
X18757Y120537D01*
X19495Y120084D01*
X20295Y119753D01*
X21137Y119551D01*
X22000Y119483D01*
Y31905D01*
G37*
G36*
X17507Y32692D02*X17000Y32732D01*
X14539Y32539D01*
X12138Y31962D01*
X9858Y31018D01*
X7753Y29728D01*
X5876Y28124D01*
X4272Y26247D01*
X2982Y24142D01*
X2500Y22978D01*
Y207022D01*
X2982Y205858D01*
X4272Y203753D01*
X5876Y201876D01*
X7753Y200272D01*
X9858Y198982D01*
X12138Y198038D01*
X14539Y197461D01*
X17000Y197268D01*
X17507Y197308D01*
Y190420D01*
X17317Y190341D01*
X17116Y190217D01*
X16936Y190064D01*
X16783Y189884D01*
X16659Y189683D01*
X16569Y189465D01*
X16514Y189235D01*
X16500Y189000D01*
X16514Y180765D01*
X16569Y180535D01*
X16659Y180317D01*
X16783Y180116D01*
X16936Y179936D01*
X17116Y179783D01*
X17317Y179659D01*
X17507Y179580D01*
Y167855D01*
X17422Y167819D01*
X17321Y167757D01*
X17231Y167681D01*
X17155Y167591D01*
X17095Y167489D01*
X16878Y167020D01*
X16711Y166531D01*
X16591Y166028D01*
X16518Y165516D01*
X16494Y165000D01*
X16518Y164484D01*
X16591Y163972D01*
X16711Y163469D01*
X16878Y162980D01*
X17090Y162508D01*
X17151Y162407D01*
X17228Y162316D01*
X17318Y162239D01*
X17420Y162177D01*
X17507Y162140D01*
Y150420D01*
X17317Y150341D01*
X17116Y150217D01*
X16936Y150064D01*
X16783Y149884D01*
X16659Y149683D01*
X16569Y149465D01*
X16514Y149235D01*
X16500Y149000D01*
X16514Y140765D01*
X16569Y140535D01*
X16659Y140317D01*
X16783Y140116D01*
X16936Y139936D01*
X17116Y139783D01*
X17317Y139659D01*
X17507Y139580D01*
Y128195D01*
X17084Y127505D01*
X16753Y126705D01*
X16551Y125863D01*
X16483Y125000D01*
X16551Y124137D01*
X16753Y123295D01*
X17084Y122495D01*
X17507Y121805D01*
Y32692D01*
G37*
G36*
X31987Y2500D02*X22978D01*
X24142Y2982D01*
X26247Y4272D01*
X28124Y5876D01*
X29728Y7753D01*
X31018Y9858D01*
X31962Y12138D01*
X31987Y12242D01*
Y2500D01*
G37*
G36*
X22978Y227500D02*X31987D01*
Y217758D01*
X31962Y217862D01*
X31018Y220142D01*
X29728Y222247D01*
X28124Y224124D01*
X26247Y225728D01*
X24142Y227018D01*
X22978Y227500D01*
G37*
G54D42*X88000Y132000D02*Y126000D01*
X96575D02*Y132000D01*
X77500Y101000D02*Y114500D01*
X160000Y169500D02*Y167500D01*
X159000Y166500D01*
Y144500D01*
X161000Y148000D02*Y165500D01*
X165000Y169500D01*
X155500Y144500D02*Y146500D01*
X162500Y144500D02*Y146500D01*
X161000Y148000D01*
X155500Y146500D02*X157000Y148000D01*
Y170500D01*
X155000Y171500D02*Y149500D01*
X152000Y146500D01*
Y144500D01*
X122500Y110500D02*X125500D01*
X126000Y110000D01*
X124500Y107500D02*X126500D01*
X122500Y104500D02*X126500D01*
X128000Y106000D01*
X126500Y107500D02*X127000Y108000D01*
X122500Y116500D02*X127000Y112000D01*
X153000D01*
X126000Y110000D02*X154000D01*
X127000Y108000D02*X155000D01*
X128000Y106000D02*X156000D01*
X167500Y126500D02*X153000Y112000D01*
X167500Y123500D02*X154000Y110000D01*
X167500Y120500D02*X155000Y108000D01*
X167000Y117000D02*X156000Y106000D01*
X171500Y126500D02*X167500D01*
X169500Y123500D02*X167500D01*
X171500Y120500D02*X167500D01*
X169000Y117000D02*X167000D01*
X216000Y134000D02*X227000D01*
X216000Y129000D02*X224000D01*
X216000Y124000D02*X224000D01*
X216000Y119000D02*X227000D01*
X241500Y216500D02*X224000D01*
X157000Y170500D02*X159000Y172500D01*
X167000D01*
X169000Y174500D02*X158000D01*
X155000Y171500D01*
X167000Y172500D02*X170000Y169500D01*
X180000D02*X174000D01*
X169000Y174500D01*
G54D43*X67000Y98500D03*
X57000Y93500D03*
X67000Y88500D03*
X57000Y83500D03*
G54D44*X115500Y173000D03*
X105500D03*
G54D41*G36*
X91563Y176937D02*Y169063D01*
X99437D01*
Y176937D01*
X91563D01*
G37*
G54D45*X333000Y213000D03*
G54D43*X67000Y78500D03*
X57000Y73500D03*
G54D46*X32000Y106000D03*
G54D45*X17000Y213000D03*
G54D41*G36*
X18000Y149000D02*Y141000D01*
X26000D01*
Y149000D01*
X18000D01*
G37*
G54D47*X22000Y125000D03*
G54D41*G36*
X18000Y189000D02*Y181000D01*
X26000D01*
Y189000D01*
X18000D01*
G37*
G54D47*X22000Y165000D03*
G54D46*X32000Y66000D03*
G54D45*X17000Y17000D03*
X333000D03*
G54D48*X140500Y115000D03*
X160000Y95500D03*
X152000Y144500D03*
X155500D03*
X159000D03*
X162500D03*
X158000Y220000D03*
Y217000D03*
X160000Y169500D03*
X136000Y133000D03*
Y136000D03*
X121000Y92351D03*
X122500Y110500D03*
X124500Y107500D03*
X122500Y104500D03*
Y116500D03*
X124000Y162000D03*
X127500D03*
X131000D03*
X70000Y161500D03*
Y164500D03*
Y158500D03*
Y155500D03*
X113500Y162000D03*
X117000D03*
X120500D03*
X77500Y114500D03*
Y101000D03*
X68500Y136500D03*
X66000Y134500D03*
Y138500D03*
X71000D03*
Y134500D03*
X88000Y126000D03*
Y132000D03*
X96575D03*
Y126000D03*
X89500Y115152D03*
X140500Y76000D03*
X138000Y18500D03*
X143000D03*
X268000Y13500D03*
Y26500D03*
Y39500D03*
X221500Y203500D03*
Y200000D03*
Y196500D03*
Y193000D03*
Y189500D03*
Y186000D03*
X218000Y203500D03*
X187000Y201500D03*
Y198000D03*
Y194500D03*
Y191000D03*
X218000Y200000D03*
Y196500D03*
X241500Y216500D03*
X218000Y193000D03*
Y189500D03*
Y186000D03*
X214500Y193000D03*
Y189500D03*
Y186000D03*
X170000Y169500D03*
X165000D03*
X180000D03*
X257000Y101000D03*
Y108000D03*
X254000D03*
X251000D03*
X254000Y101000D03*
X251000D03*
X227000Y134000D03*
Y119000D03*
X224000Y124000D03*
Y129000D03*
X216000Y134000D03*
Y129000D03*
X199500D03*
X202000Y131000D03*
Y127000D03*
X197000D03*
Y131000D03*
X216000Y124000D03*
Y119000D03*
X169500Y117500D03*
Y123500D03*
X171500Y120500D03*
Y126500D03*
G54D49*G54D50*G54D51*G54D52*G54D50*G54D53*G54D52*G54D54*G54D53*G54D52*M02*
