G04 start of page 9 for group -4079 idx -4079 *
G04 Title: (unknown), topsilk *
G04 Creator: pcb 20140316 *
G04 CreationDate: Tue 26 Feb 2019 04:30:20 AM GMT UTC *
G04 For: railfan *
G04 Format: Gerber/RS-274X *
G04 PCB-Dimensions (mil): 3350.00 2300.00 *
G04 PCB-Coordinate-Origin: lower left *
%MOIN*%
%FSLAX25Y25*%
%LNTOPSILK*%
%ADD104C,0.0200*%
%ADD103C,0.0080*%
%ADD102C,0.0400*%
%ADD101C,0.0100*%
%ADD100C,0.0001*%
G54D100*G36*
X225441Y102782D02*X224556Y103069D01*
X223791Y103628D01*
X223243Y104360D01*
X222956Y105223D01*
X222918Y105863D01*
X222999Y106482D01*
X223309Y107247D01*
X223829Y107898D01*
X224676Y108473D01*
X225647Y108716D01*
X226656Y108629D01*
X227600Y108202D01*
X228153Y107697D01*
X228577Y107079D01*
X228810Y106395D01*
X228880Y105668D01*
X228772Y104941D01*
X228506Y104268D01*
X228099Y103720D01*
X227584Y103275D01*
X226982Y102955D01*
X226331Y102782D01*
X225880Y102760D01*
X225441Y102782D01*
G37*
G36*
X226607Y78623D02*X226325Y78812D01*
X226146Y79100D01*
X226141Y79534D01*
X226368Y79887D01*
X226499Y79979D01*
X226510Y80440D01*
X226515Y81552D01*
Y83126D01*
X227611Y84504D01*
X228701Y85887D01*
X230031D01*
X230117Y86007D01*
X230345Y86202D01*
X230497Y86267D01*
X230703Y86278D01*
X230904Y86272D01*
X231056Y86202D01*
X231278Y86012D01*
X231414Y85768D01*
X231430Y85486D01*
X231365Y85214D01*
X231089Y84927D01*
X230703Y84813D01*
X230145Y85062D01*
X230020Y85198D01*
X229032D01*
X228115Y84043D01*
X227204Y82887D01*
Y79990D01*
X227307Y79919D01*
X227567Y79523D01*
X227535Y79024D01*
X227150Y78650D01*
X226607Y78617D01*
Y78623D01*
G37*
G36*
X249470Y88535D02*X250110Y88540D01*
X250104Y77641D01*
X261530D01*
Y80798D01*
X253756D01*
Y87319D01*
X259441D01*
Y90488D01*
X253756D01*
Y96271D01*
X261216D01*
Y99440D01*
X250121D01*
X250110Y88540D01*
X249470Y88535D01*
Y100064D01*
X261850D01*
Y95653D01*
X254390D01*
Y91133D01*
X260071D01*
Y86723D01*
X254407D01*
X254396Y84091D01*
X254390Y81460D01*
X262154D01*
Y77022D01*
X249470D01*
Y88535D01*
G37*
G36*
X238885Y76729D02*X237067Y77071D01*
X235483Y77793D01*
X234376Y78671D01*
X233432Y79778D01*
X232570Y81341D01*
X231924Y83196D01*
X231826Y83565D01*
X234246Y84081D01*
X235179Y84281D01*
X235955Y84444D01*
X236481Y84547D01*
X236682Y84580D01*
X236736Y84368D01*
X236785Y84118D01*
X236867Y83782D01*
X237230Y82757D01*
X237745Y81932D01*
X238391Y81324D01*
X239162Y80961D01*
X239400Y80918D01*
X239796Y80901D01*
X240187Y80918D01*
X240442Y80961D01*
X241462Y81547D01*
X242021Y82583D01*
X242075Y83212D01*
X242021Y83809D01*
X242623Y83983D01*
X242661Y82567D01*
X242303Y81617D01*
X241673Y80885D01*
X240816Y80424D01*
X239780Y80256D01*
X238451Y80559D01*
X237382Y81384D01*
X236590Y82627D01*
X236389Y83153D01*
X236243Y83657D01*
X236194Y83826D01*
X236145Y83842D01*
X235993Y83815D01*
X235635Y83739D01*
X235109Y83625D01*
X234479Y83489D01*
X233329Y83245D01*
X232792Y83126D01*
X232629Y83077D01*
Y83044D01*
X232678Y82860D01*
X232803Y82491D01*
X232949Y82084D01*
X233074Y81758D01*
X234072Y79979D01*
X235358Y78650D01*
X236932Y77782D01*
X238803Y77364D01*
X239199Y77353D01*
X239747D01*
X240295Y77369D01*
X240718Y77402D01*
X242048Y77657D01*
X243209Y78091D01*
X244109Y78623D01*
X244863Y79279D01*
X245466Y80060D01*
X245932Y80966D01*
X246160Y81661D01*
X246317Y82447D01*
X246366Y83402D01*
X246317Y84336D01*
X246090Y85323D01*
X245732Y86213D01*
X245211Y87032D01*
X244527Y87813D01*
X243827Y88459D01*
X243019Y89056D01*
X241945Y89717D01*
X240453Y90547D01*
X239308Y91182D01*
X238516Y91660D01*
X237963Y92061D01*
X237534Y92463D01*
X236986Y93249D01*
X236818Y94117D01*
X236964Y95159D01*
X237398Y95973D01*
X238103Y96537D01*
X239058Y96819D01*
X239639Y96836D01*
X240214Y96770D01*
X240984Y96477D01*
X241652Y95951D01*
X242227Y95186D01*
X242721Y94166D01*
X242807Y93966D01*
X242867Y93922D01*
X243030Y93971D01*
X243409Y94074D01*
X243919Y94226D01*
X244505Y94394D01*
X245081Y94562D01*
X245580Y94714D01*
X245938Y94817D01*
X246079Y94861D01*
X246052Y94985D01*
X245965Y95262D01*
X245840Y95604D01*
X245721Y95919D01*
X245043Y97134D01*
X244153Y98138D01*
X243079Y98913D01*
X241825Y99440D01*
X240068Y99743D01*
X238147Y99657D01*
X236400Y99196D01*
X235000Y98360D01*
X234300Y97633D01*
X233758Y96749D01*
X233389Y95723D01*
X233188Y94573D01*
X233161Y93797D01*
X233199Y93087D01*
X233438Y92105D01*
X233877Y91199D01*
X234517Y90358D01*
X235380Y89566D01*
X235922Y89159D01*
X236552Y88746D01*
X237355Y88269D01*
X238440Y87661D01*
X239167Y87260D01*
X239709Y86951D01*
X240133Y86696D01*
X240507Y86457D01*
X241939Y85247D01*
X242623Y83983D01*
X242021Y83809D01*
X241424Y84878D01*
X240165Y85925D01*
X239802Y86158D01*
X239395Y86403D01*
X238879Y86696D01*
X238185Y87075D01*
X236807Y87851D01*
X235792Y88480D01*
X235017Y89045D01*
X234360Y89625D01*
X233611Y90466D01*
X233074Y91350D01*
X232656Y92533D01*
X232526Y93846D01*
X232618Y95132D01*
X232911Y96331D01*
X233671Y97855D01*
X234832Y99038D01*
X236362Y99863D01*
X238234Y100302D01*
X239693Y100384D01*
X241077Y100259D01*
X242352Y99933D01*
X243491Y99407D01*
X244630Y98561D01*
X245569Y97476D01*
X246296Y96174D01*
X246789Y94671D01*
X246849Y94416D01*
X244647Y93776D01*
X243784Y93532D01*
X243079Y93331D01*
X242601Y93201D01*
X242422Y93157D01*
X242346Y93358D01*
X242118Y93960D01*
X241858Y94535D01*
X241098Y95604D01*
X240149Y96136D01*
X239514Y96201D01*
X238863Y96152D01*
X238006Y95680D01*
X237669Y95219D01*
X237485Y94622D01*
X237447Y94139D01*
X237485Y93727D01*
X237832Y93076D01*
X238559Y92408D01*
X238912Y92164D01*
X239351Y91888D01*
X239926Y91562D01*
X240697Y91139D01*
X241565Y90667D01*
X242248Y90282D01*
X242807Y89951D01*
X243285Y89642D01*
X244511Y88714D01*
X245477Y87726D01*
X246204Y86674D01*
X246692Y85534D01*
X246968Y84162D01*
X246974Y82730D01*
X246719Y81330D01*
X246209Y80066D01*
X245412Y78948D01*
X244370Y78037D01*
X243100Y77359D01*
X241635Y76914D01*
X240257Y76740D01*
X238885Y76735D01*
Y76729D01*
G37*
G36*
X223043Y75709D02*X222647Y75980D01*
X222511Y76425D01*
X222565Y76740D01*
X222761Y76990D01*
X222891Y77104D01*
Y78986D01*
X222218D01*
X221741Y78981D01*
X221545Y78964D01*
X221453Y78840D01*
X221100Y78617D01*
X220672D01*
X220373Y78807D01*
X220189Y79100D01*
X220162Y79431D01*
X220270Y79724D01*
X220487Y79946D01*
X220802Y80066D01*
X221182Y80012D01*
X221491Y79773D01*
X221556Y79675D01*
X222224D01*
X222891Y79670D01*
Y81167D01*
X220558D01*
Y81900D01*
X220553Y82627D01*
X220455Y82697D01*
X220287Y82876D01*
X220178Y83093D01*
X220189Y83527D01*
X220373Y83815D01*
X220661Y83994D01*
X220997Y84026D01*
X221290Y83923D01*
X221513Y83701D01*
X221632Y83381D01*
X221578Y83006D01*
X221339Y82697D01*
X221242Y82627D01*
Y81851D01*
X222891D01*
Y84156D01*
X223357Y84748D01*
X223829Y85339D01*
Y87406D01*
X222918D01*
Y88193D01*
X227302D01*
Y89566D01*
X224486D01*
Y88193D01*
X223829D01*
Y89566D01*
X222918D01*
Y90325D01*
X223819D01*
Y91692D01*
X224502Y91719D01*
X224497Y91057D01*
X224491Y90586D01*
X224502Y90368D01*
X224567Y90358D01*
X224790Y90347D01*
X225224Y90341D01*
X225907Y90336D01*
X227302D01*
Y91719D01*
X224502D01*
X223819Y91692D01*
X222918D01*
Y92452D01*
X223829D01*
X224486Y92479D01*
X227302D01*
Y93852D01*
X224486D01*
Y92479D01*
X223829Y92452D01*
Y93824D01*
X222918D01*
Y94584D01*
X223819D01*
X223829Y95962D01*
X224486Y96005D01*
Y95327D01*
X224491Y94844D01*
X224508Y94627D01*
X224920Y94617D01*
X225907Y94611D01*
X227291D01*
X227296Y95300D01*
Y95316D01*
X227307Y96005D01*
X224486D01*
X223829Y95962D01*
X222918D01*
Y96722D01*
X223819D01*
Y98094D01*
X224502Y98148D01*
X224497Y97492D01*
X224491Y97015D01*
X224502Y96797D01*
X224567Y96787D01*
X224790Y96776D01*
X225224Y96770D01*
X225907Y96765D01*
X227307D01*
X227296Y97459D01*
X227291Y98148D01*
X224502D01*
X223819Y98094D01*
X222918D01*
Y98854D01*
X223829D01*
Y100096D01*
X224486D01*
Y98854D01*
X227302D01*
Y100096D01*
X227991D01*
Y98854D01*
X228902D01*
Y98094D01*
X227991D01*
Y96694D01*
X228902D01*
Y95935D01*
X227991D01*
Y94541D01*
X228902D01*
Y93781D01*
X227991D01*
Y92408D01*
X228902D01*
Y91649D01*
X227991D01*
Y90255D01*
X228902D01*
Y89495D01*
X227991D01*
Y88122D01*
X228902D01*
Y87336D01*
X227991D01*
X227985Y86750D01*
Y86158D01*
X226569Y84368D01*
X225148Y82583D01*
Y78574D01*
X226124Y77597D01*
X228544D01*
Y79719D01*
X228539Y80543D01*
Y81216D01*
X228533Y81672D01*
X228528Y81834D01*
X228403Y81927D01*
X228159Y82393D01*
X228294Y82909D01*
X228870Y83218D01*
X229472Y82947D01*
X229629Y82382D01*
X229331Y81872D01*
X229233Y81802D01*
Y76914D01*
X225842D01*
X224486Y78270D01*
Y82844D01*
X225896Y84623D01*
X227302Y86403D01*
Y87341D01*
X224486D01*
Y85003D01*
X223574Y83853D01*
Y77022D01*
X223640Y76990D01*
X223819Y76821D01*
X223949Y76588D01*
X223916Y76073D01*
X223569Y75693D01*
X223303Y75633D01*
X223043Y75644D01*
Y75709D01*
G37*
G54D101*X141500Y213500D02*Y210500D01*
X140000Y212000D02*X143000D01*
X174500Y213500D02*Y210500D01*
X173000Y212000D02*X176000D01*
G54D102*X79000Y123500D03*
G54D101*X151500Y174000D02*X147000Y169500D01*
X151500Y174000D02*Y171000D01*
X148500Y174000D02*X151500D01*
X126500Y4000D02*X135000D01*
Y14000D02*Y4000D01*
X85000D02*X93500D01*
X85000Y14000D02*Y4000D01*
X11500Y48500D02*Y45500D01*
X10000Y47000D02*X13000D01*
X166000Y4000D02*X178000D01*
X214000D02*X226000D01*
Y14000D02*Y4000D01*
X166000Y14000D02*Y4000D01*
G54D102*X162000Y117000D03*
G54D101*X303000Y53500D02*Y70500D01*
X253000D02*Y53500D01*
X303000D01*
Y70500D02*X253000D01*
X260500Y15000D02*Y12000D01*
X259000Y13500D02*X262000D01*
X260500Y28000D02*Y25000D01*
X259000Y26500D02*X262000D01*
X260500Y41000D02*Y38000D01*
X259000Y39500D02*X262000D01*
X320500Y174000D02*X323500D01*
X322000Y175500D02*Y172500D01*
G54D103*X59000Y11000D02*Y8000D01*
Y11000D02*X59700Y12000D01*
X60800D01*
X61500Y11000D01*
Y8000D01*
X59000Y10000D02*X61500D01*
X69000Y8000D02*X71000D01*
X71500Y8500D01*
Y9700D02*Y8500D01*
X71000Y10200D02*X71500Y9700D01*
X69500Y10200D02*X71000D01*
X69500Y12000D02*Y8000D01*
X69000Y12000D02*X71000D01*
X71500Y11500D01*
Y10700D01*
X71000Y10200D02*X71500Y10700D01*
X77500Y12000D02*Y8000D01*
Y12000D02*X79500D01*
X77500Y10200D02*X79000D01*
X80700Y12000D02*X82700D01*
X81700D02*Y8000D01*
X95000Y2000D02*X97000D01*
X97500Y2500D01*
Y3700D02*Y2500D01*
X97000Y4200D02*X97500Y3700D01*
X95500Y4200D02*X97000D01*
X95500Y6000D02*Y2000D01*
X95000Y6000D02*X97000D01*
X97500Y5500D01*
Y4700D01*
X97000Y4200D02*X97500Y4700D01*
X98700Y5000D02*Y2000D01*
Y5000D02*X99400Y6000D01*
X100500D01*
X101200Y5000D01*
Y2000D01*
X98700Y4000D02*X101200D01*
X104400Y6000D02*X104900Y5500D01*
X102900Y6000D02*X104400D01*
X102400Y5500D02*X102900Y6000D01*
X102400Y5500D02*Y4500D01*
X102900Y4000D01*
X104400D01*
X104900Y3500D01*
Y2500D01*
X104400Y2000D02*X104900Y2500D01*
X102900Y2000D02*X104400D01*
X102400Y2500D02*X102900Y2000D01*
X106100Y4200D02*X107600D01*
X106100Y2000D02*X108100D01*
X106100Y6000D02*Y2000D01*
Y6000D02*X108100D01*
X111100Y5000D02*Y2000D01*
Y5000D02*X111800Y6000D01*
X112900D01*
X113600Y5000D01*
Y2000D01*
X111100Y4000D02*X113600D01*
X115300Y6000D02*Y2000D01*
X116600Y6000D02*X117300Y5300D01*
Y2700D01*
X116600Y2000D02*X117300Y2700D01*
X114800Y2000D02*X116600D01*
X114800Y6000D02*X116600D01*
X119000D02*Y2000D01*
X120300Y6000D02*X121000Y5300D01*
Y2700D01*
X120300Y2000D02*X121000Y2700D01*
X118500Y2000D02*X120300D01*
X118500Y6000D02*X120300D01*
X122200D02*X124200D01*
X124700Y5500D01*
Y4500D01*
X124200Y4000D02*X124700Y4500D01*
X122700Y4000D02*X124200D01*
X122700Y6000D02*Y2000D01*
X123500Y4000D02*X124700Y2000D01*
X88000Y11200D02*X88800Y12000D01*
Y8000D01*
X88000D02*X89500D01*
X92200Y12000D02*X92700Y11500D01*
X91200Y12000D02*X92200D01*
X90700Y11500D02*X91200Y12000D01*
X90700Y11500D02*Y8500D01*
X91200Y8000D01*
X92200Y10200D02*X92700Y9700D01*
X90700Y10200D02*X92200D01*
X91200Y8000D02*X92200D01*
X92700Y8500D01*
Y9700D02*Y8500D01*
X99000D02*X99500Y8000D01*
X99000Y9300D02*Y8500D01*
Y9300D02*X99700Y10000D01*
X100300D01*
X101000Y9300D01*
Y8500D01*
X100500Y8000D02*X101000Y8500D01*
X99500Y8000D02*X100500D01*
X99000Y10700D02*X99700Y10000D01*
X99000Y11500D02*Y10700D01*
Y11500D02*X99500Y12000D01*
X100500D01*
X101000Y11500D01*
Y10700D01*
X100300Y10000D02*X101000Y10700D01*
X109000Y9500D02*X111000Y12000D01*
X109000Y9500D02*X111500D01*
X111000Y12000D02*Y8000D01*
X119000Y11500D02*X119500Y12000D01*
X121000D01*
X121500Y11500D01*
Y10500D01*
X119000Y8000D02*X121500Y10500D01*
X119000Y8000D02*X121500D01*
X129500Y11200D02*X130300Y12000D01*
Y8000D01*
X129500D02*X131000D01*
X36500Y27800D02*Y23300D01*
Y27800D02*X37250Y28550D01*
X38750D01*
X39500Y27800D01*
Y23300D01*
X38750Y22550D02*X39500Y23300D01*
X37250Y22550D02*X38750D01*
X36500Y23300D02*X37250Y22550D01*
X41300Y28550D02*Y22550D01*
Y28550D02*X44300D01*
X41300Y25850D02*X43550D01*
X46100Y28550D02*Y22550D01*
Y28550D02*X49100D01*
X46100Y25850D02*X48350D01*
X40500Y47800D02*Y43300D01*
Y47800D02*X41250Y48550D01*
X42750D01*
X43500Y47800D01*
Y43300D01*
X42750Y42550D02*X43500Y43300D01*
X41250Y42550D02*X42750D01*
X40500Y43300D02*X41250Y42550D01*
X45300Y48550D02*Y42550D01*
Y48550D02*X49050Y42550D01*
Y48550D02*Y42550D01*
X2500Y44500D02*X6500D01*
Y45000D02*Y43000D01*
X6000Y42500D01*
X5000D02*X6000D01*
X4500Y43000D02*X5000Y42500D01*
X4500Y44500D02*Y43000D01*
X2500Y41300D02*X6500D01*
X4500D02*X6500Y39300D01*
X4500Y41300D02*X2500Y39300D01*
X6500Y38100D02*Y36100D01*
X2500Y37100D02*X6500D01*
X76000Y97450D02*Y95500D01*
X77050Y98500D02*X76000Y97450D01*
X77050Y98500D02*X80950D01*
X82000Y97450D01*
Y95500D01*
X76000Y93700D02*X80500D01*
X82000Y92650D01*
Y91000D01*
X80500Y89950D01*
X76000D02*X80500D01*
X79000Y93700D02*Y89950D01*
X76000Y88150D02*Y85150D01*
X76750Y84400D01*
X78550D01*
X79300Y85150D02*X78550Y84400D01*
X79300Y87400D02*Y85150D01*
X76000Y87400D02*X82000D01*
Y88150D02*Y85150D01*
X81250Y84400D01*
X80050D02*X81250D01*
X79300Y85150D02*X80050Y84400D01*
X76000Y79900D02*Y76900D01*
X76750Y76150D01*
X78550D01*
X79300Y76900D02*X78550Y76150D01*
X79300Y79150D02*Y76900D01*
X76000Y79150D02*X82000D01*
Y79900D02*Y76900D01*
X81250Y76150D01*
X80050D02*X81250D01*
X79300Y76900D02*X80050Y76150D01*
X76750Y74350D02*X82000D01*
X76750D02*X76000Y73600D01*
Y72100D01*
X76750Y71350D01*
X82000D01*
Y66550D02*X81250Y65800D01*
X82000Y68800D02*Y66550D01*
X81250Y69550D02*X82000Y68800D01*
X79750Y69550D02*X81250D01*
X79750D02*X79000Y68800D01*
Y66550D01*
X78250Y65800D01*
X76750D02*X78250D01*
X76000Y66550D02*X76750Y65800D01*
X76000Y68800D02*Y66550D01*
X76750Y69550D02*X76000Y68800D01*
X146500Y227500D02*X148500D01*
X146500D02*Y225500D01*
X147000Y226000D01*
X148000D01*
X148500Y225500D01*
Y224000D01*
X148000Y223500D02*X148500Y224000D01*
X147000Y223500D02*X148000D01*
X146500Y224000D02*X147000Y223500D01*
X149700Y227500D02*X150700Y223500D01*
X151700Y227500D01*
X82500Y217000D02*X83500D01*
X83000D02*Y213000D01*
X82500D02*X83500D01*
X84700Y214500D02*Y213500D01*
Y214500D02*X85200Y215000D01*
X86200D01*
X86700Y214500D01*
Y213500D01*
X86200Y213000D02*X86700Y213500D01*
X85200Y213000D02*X86200D01*
X84700Y213500D02*X85200Y213000D01*
X87900Y215000D02*Y213500D01*
X88400Y213000D01*
X88900D01*
X89400Y213500D01*
Y215000D02*Y213500D01*
X89900Y213000D01*
X90400D01*
X90900Y213500D01*
Y215000D02*Y213500D01*
X93600Y215000D02*X94100Y214500D01*
X92600Y215000D02*X93600D01*
X92100Y214500D02*X92600Y215000D01*
X92100Y214500D02*Y213500D01*
X92600Y213000D01*
X94100Y215000D02*Y213500D01*
X94600Y213000D01*
X92600D02*X93600D01*
X94100Y213500D01*
X99600Y217000D02*X100100Y216500D01*
X98100Y217000D02*X99600D01*
X97600Y216500D02*X98100Y217000D01*
X97600Y216500D02*Y215500D01*
X98100Y215000D01*
X99600D01*
X100100Y214500D01*
Y213500D01*
X99600Y213000D02*X100100Y213500D01*
X98100Y213000D02*X99600D01*
X97600Y213500D02*X98100Y213000D01*
X101800Y215000D02*X103300D01*
X101300Y214500D02*X101800Y215000D01*
X101300Y214500D02*Y213500D01*
X101800Y213000D01*
X103300D01*
X106000Y215000D02*X106500Y214500D01*
X105000Y215000D02*X106000D01*
X104500Y214500D02*X105000Y215000D01*
X104500Y214500D02*Y213500D01*
X105000Y213000D01*
X106500Y215000D02*Y213500D01*
X107000Y213000D01*
X105000D02*X106000D01*
X106500Y213500D01*
X108200Y217000D02*Y213500D01*
X108700Y213000D01*
X110200D02*X111700D01*
X109700Y213500D02*X110200Y213000D01*
X109700Y214500D02*Y213500D01*
Y214500D02*X110200Y215000D01*
X111200D01*
X111700Y214500D01*
X109700Y214000D02*X111700D01*
Y214500D02*Y214000D01*
X114900Y217000D02*Y213000D01*
X114400D02*X114900Y213500D01*
X113400Y213000D02*X114400D01*
X112900Y213500D02*X113400Y213000D01*
X112900Y214500D02*Y213500D01*
Y214500D02*X113400Y215000D01*
X114400D01*
X114900Y214500D01*
X82500Y209200D02*X84000D01*
X82500Y207000D02*X84500D01*
X82500Y211000D02*Y207000D01*
Y211000D02*X84500D01*
X86200Y208500D02*Y207000D01*
Y208500D02*X86700Y209000D01*
X87200D01*
X87700Y208500D01*
Y207000D01*
X85700Y209000D02*X86200Y208500D01*
X90400Y209000D02*X90900Y208500D01*
X89400Y209000D02*X90400D01*
X88900Y208500D02*X89400Y209000D01*
X88900Y208500D02*Y207500D01*
X89400Y207000D01*
X90400D01*
X90900Y207500D01*
X88900Y206000D02*X89400Y205500D01*
X90400D01*
X90900Y206000D01*
Y209000D02*Y206000D01*
X92100Y210000D02*Y209900D01*
Y208500D02*Y207000D01*
X93600Y208500D02*Y207000D01*
Y208500D02*X94100Y209000D01*
X94600D01*
X95100Y208500D01*
Y207000D01*
X93100Y209000D02*X93600Y208500D01*
X96800Y207000D02*X98300D01*
X96300Y207500D02*X96800Y207000D01*
X96300Y208500D02*Y207500D01*
Y208500D02*X96800Y209000D01*
X97800D01*
X98300Y208500D01*
X96300Y208000D02*X98300D01*
Y208500D02*Y208000D01*
X100000Y207000D02*X101500D01*
X99500Y207500D02*X100000Y207000D01*
X99500Y208500D02*Y207500D01*
Y208500D02*X100000Y209000D01*
X101000D01*
X101500Y208500D01*
X99500Y208000D02*X101500D01*
Y208500D02*Y208000D01*
X103200Y208500D02*Y207000D01*
Y208500D02*X103700Y209000D01*
X104700D01*
X102700D02*X103200Y208500D01*
X105900Y210000D02*Y209900D01*
Y208500D02*Y207000D01*
X107400Y208500D02*Y207000D01*
Y208500D02*X107900Y209000D01*
X108400D01*
X108900Y208500D01*
Y207000D01*
X106900Y209000D02*X107400Y208500D01*
X111600Y209000D02*X112100Y208500D01*
X110600Y209000D02*X111600D01*
X110100Y208500D02*X110600Y209000D01*
X110100Y208500D02*Y207500D01*
X110600Y207000D01*
X111600D01*
X112100Y207500D01*
X110100Y206000D02*X110600Y205500D01*
X111600D01*
X112100Y206000D01*
Y209000D02*Y206000D01*
X2500Y186000D02*X6500D01*
X2500D02*Y184000D01*
Y166500D02*X6500D01*
X4500Y165000D01*
X6500Y163500D01*
X2500D02*X6500D01*
X2500Y146000D02*X5500D01*
X6500Y145300D01*
Y144200D01*
X5500Y143500D01*
X2500D02*X5500D01*
X4500Y146000D02*Y143500D01*
X2500Y126500D02*Y124500D01*
X3000Y124000D01*
X4200D01*
X4700Y124500D02*X4200Y124000D01*
X4700Y126000D02*Y124500D01*
X2500Y126000D02*X6500D01*
Y126500D02*Y124500D01*
X6000Y124000D01*
X5200D02*X6000D01*
X4700Y124500D02*X5200Y124000D01*
X42000Y178000D02*X48000Y174250D01*
Y178000D02*X42000Y174250D01*
Y171700D02*X48000D01*
Y172450D02*Y169450D01*
X47250Y168700D01*
X45750D02*X47250D01*
X45000Y169450D02*X45750Y168700D01*
X45000Y171700D02*Y169450D01*
X48000Y166900D02*Y163900D01*
X47250Y163150D01*
X45750D02*X47250D01*
X45000Y163900D02*X45750Y163150D01*
X45000Y166150D02*Y163900D01*
X42000Y166150D02*X48000D01*
X45000Y164950D02*X42000Y163150D01*
X45300Y161350D02*Y159100D01*
X42000Y161350D02*Y158350D01*
Y161350D02*X48000D01*
Y158350D01*
Y153550D02*X47250Y152800D01*
X48000Y155800D02*Y153550D01*
X47250Y156550D02*X48000Y155800D01*
X45750Y156550D02*X47250D01*
X45750D02*X45000Y155800D01*
Y153550D01*
X44250Y152800D01*
X42750D02*X44250D01*
X42000Y153550D02*X42750Y152800D01*
X42000Y155800D02*Y153550D01*
X42750Y156550D02*X42000Y155800D01*
X48000Y148000D02*X47250Y147250D01*
X48000Y150250D02*Y148000D01*
X47250Y151000D02*X48000Y150250D01*
X45750Y151000D02*X47250D01*
X45750D02*X45000Y150250D01*
Y148000D01*
X44250Y147250D01*
X42750D02*X44250D01*
X42000Y148000D02*X42750Y147250D01*
X42000Y150250D02*Y148000D01*
X42750Y151000D02*X42000Y150250D01*
Y145450D02*X48000D01*
X42000Y141700D01*
X48000D01*
X45300Y139900D02*Y137650D01*
X42000Y139900D02*Y136900D01*
Y139900D02*X48000D01*
Y136900D01*
Y135100D02*Y132100D01*
X42000Y133600D02*X48000D01*
X161957Y227000D02*X162457Y227500D01*
X163457D01*
X163957Y227000D01*
X163457Y223500D02*X163957Y224000D01*
X162457Y223500D02*X163457D01*
X161957Y224000D02*X162457Y223500D01*
Y225700D02*X163457D01*
X163957Y227000D02*Y226200D01*
Y225200D02*Y224000D01*
Y225200D02*X163457Y225700D01*
X163957Y226200D02*X163457Y225700D01*
X165157Y223500D02*X165657D01*
X166857Y227000D02*X167357Y227500D01*
X168357D01*
X168857Y227000D01*
X168357Y223500D02*X168857Y224000D01*
X167357Y223500D02*X168357D01*
X166857Y224000D02*X167357Y223500D01*
Y225700D02*X168357D01*
X168857Y227000D02*Y226200D01*
Y225200D02*Y224000D01*
Y225200D02*X168357Y225700D01*
X168857Y226200D02*X168357Y225700D01*
X170057Y227500D02*X171057Y223500D01*
X172057Y227500D01*
X62000Y225000D02*Y221000D01*
Y222500D02*X62500Y223000D01*
X63500D01*
X64000Y222500D01*
Y221000D01*
X65700Y225000D02*Y221500D01*
X66200Y221000D01*
X65200Y223500D02*X66200D01*
X67700Y225000D02*Y221500D01*
X68200Y221000D01*
X67200Y223500D02*X68200D01*
X69700Y222500D02*Y219500D01*
X69200Y223000D02*X69700Y222500D01*
X70200Y223000D01*
X71200D01*
X71700Y222500D01*
Y221500D01*
X71200Y221000D02*X71700Y221500D01*
X70200Y221000D02*X71200D01*
X69700Y221500D02*X70200Y221000D01*
X72900Y223500D02*X73400D01*
X72900Y222500D02*X73400D01*
X74600Y221500D02*X77600Y224500D01*
X78800Y221500D02*X81800Y224500D01*
X83000Y224000D02*Y223900D01*
Y222500D02*Y221000D01*
X85500Y223000D02*X86000Y222500D01*
X84500Y223000D02*X85500D01*
X84000Y222500D02*X84500Y223000D01*
X84000Y222500D02*Y221500D01*
X84500Y221000D01*
X86000Y223000D02*Y221500D01*
X86500Y221000D01*
X84500D02*X85500D01*
X86000Y221500D01*
X88200Y221000D02*X89700D01*
X90200Y221500D01*
X89700Y222000D02*X90200Y221500D01*
X88200Y222000D02*X89700D01*
X87700Y222500D02*X88200Y222000D01*
X87700Y222500D02*X88200Y223000D01*
X89700D01*
X90200Y222500D01*
X87700Y221500D02*X88200Y221000D01*
X91900Y223000D02*X93400D01*
X91400Y222500D02*X91900Y223000D01*
X91400Y222500D02*Y221500D01*
X91900Y221000D01*
X93400D01*
X96100Y223000D02*X96600Y222500D01*
X95100Y223000D02*X96100D01*
X94600Y222500D02*X95100Y223000D01*
X94600Y222500D02*Y221500D01*
X95100Y221000D01*
X96600Y223000D02*Y221500D01*
X97100Y221000D01*
X95100D02*X96100D01*
X96600Y221500D01*
X98300Y225000D02*Y221500D01*
X98800Y221000D01*
X100300D02*X101800D01*
X99800Y221500D02*X100300Y221000D01*
X99800Y222500D02*Y221500D01*
Y222500D02*X100300Y223000D01*
X101300D01*
X101800Y222500D01*
X99800Y222000D02*X101800D01*
Y222500D02*Y222000D01*
X105000Y225000D02*Y221000D01*
X104500D02*X105000Y221500D01*
X103500Y221000D02*X104500D01*
X103000Y221500D02*X103500Y221000D01*
X103000Y222500D02*Y221500D01*
Y222500D02*X103500Y223000D01*
X104500D01*
X105000Y222500D01*
X106200Y221000D02*X106700D01*
X108400Y223000D02*X109900D01*
X107900Y222500D02*X108400Y223000D01*
X107900Y222500D02*Y221500D01*
X108400Y221000D01*
X109900D01*
X111100Y222500D02*Y221500D01*
Y222500D02*X111600Y223000D01*
X112600D01*
X113100Y222500D01*
Y221500D01*
X112600Y221000D02*X113100Y221500D01*
X111600Y221000D02*X112600D01*
X111100Y221500D02*X111600Y221000D01*
X114800Y222500D02*Y221000D01*
Y222500D02*X115300Y223000D01*
X115800D01*
X116300Y222500D01*
Y221000D01*
Y222500D02*X116800Y223000D01*
X117300D01*
X117800Y222500D01*
Y221000D01*
X114300Y223000D02*X114800Y222500D01*
X160500Y12000D02*Y8000D01*
X161800Y12000D02*X162500Y11300D01*
Y8700D01*
X161800Y8000D02*X162500Y8700D01*
X160000Y8000D02*X161800D01*
X160000Y12000D02*X161800D01*
X168500Y11500D02*X169000Y12000D01*
X170000D01*
X170500Y11500D01*
X170000Y8000D02*X170500Y8500D01*
X169000Y8000D02*X170000D01*
X168500Y8500D02*X169000Y8000D01*
Y10200D02*X170000D01*
X170500Y11500D02*Y10700D01*
Y9700D02*Y8500D01*
Y9700D02*X170000Y10200D01*
X170500Y10700D02*X170000Y10200D01*
X171700Y11500D02*X172200Y12000D01*
X173700D01*
X174200Y11500D01*
Y10500D01*
X171700Y8000D02*X174200Y10500D01*
X171700Y8000D02*X174200D01*
X179000Y11200D02*X179800Y12000D01*
Y8000D01*
X179000D02*X180500D01*
X183200Y12000D02*X183700Y11500D01*
X182200Y12000D02*X183200D01*
X181700Y11500D02*X182200Y12000D01*
X181700Y11500D02*Y8500D01*
X182200Y8000D01*
X183200Y10200D02*X183700Y9700D01*
X181700Y10200D02*X183200D01*
X182200Y8000D02*X183200D01*
X183700Y8500D01*
Y9700D02*Y8500D01*
X150700Y8000D02*X152000D01*
X150000Y8700D02*X150700Y8000D01*
X150000Y11300D02*Y8700D01*
Y11300D02*X150700Y12000D01*
X152000D01*
X180200Y2000D02*X181500D01*
X179500Y2700D02*X180200Y2000D01*
X179500Y5300D02*Y2700D01*
Y5300D02*X180200Y6000D01*
X181500D01*
X182700Y5000D02*Y2000D01*
Y5000D02*X183400Y6000D01*
X184500D01*
X185200Y5000D01*
Y2000D01*
X182700Y4000D02*X185200D01*
X186400Y2000D02*X188400D01*
X188900Y2500D01*
Y3700D02*Y2500D01*
X188400Y4200D02*X188900Y3700D01*
X186900Y4200D02*X188400D01*
X186900Y6000D02*Y2000D01*
X186400Y6000D02*X188400D01*
X188900Y5500D01*
Y4700D01*
X188400Y4200D02*X188900Y4700D01*
X191900Y6000D02*Y2000D01*
Y6000D02*X194400Y2000D01*
Y6000D02*Y2000D01*
X195600Y6000D02*Y2500D01*
X196100Y2000D01*
X197100D01*
X197600Y2500D01*
Y6000D02*Y2500D01*
X198800Y6000D02*Y2000D01*
Y6000D02*X200300Y4000D01*
X201800Y6000D01*
Y2000D01*
X203000D02*X205000D01*
X205500Y2500D01*
Y3700D02*Y2500D01*
X205000Y4200D02*X205500Y3700D01*
X203500Y4200D02*X205000D01*
X203500Y6000D02*Y2000D01*
X203000Y6000D02*X205000D01*
X205500Y5500D01*
Y4700D01*
X205000Y4200D02*X205500Y4700D01*
X206700Y4200D02*X208200D01*
X206700Y2000D02*X208700D01*
X206700Y6000D02*Y2000D01*
Y6000D02*X208700D01*
X209900D02*X211900D01*
X212400Y5500D01*
Y4500D01*
X211900Y4000D02*X212400Y4500D01*
X210400Y4000D02*X211900D01*
X210400Y6000D02*Y2000D01*
X211200Y4000D02*X212400Y2000D01*
X190000Y8500D02*X190500Y8000D01*
X190000Y9300D02*Y8500D01*
Y9300D02*X190700Y10000D01*
X191300D01*
X192000Y9300D01*
Y8500D01*
X191500Y8000D02*X192000Y8500D01*
X190500Y8000D02*X191500D01*
X190000Y10700D02*X190700Y10000D01*
X190000Y11500D02*Y10700D01*
Y11500D02*X190500Y12000D01*
X191500D01*
X192000Y11500D01*
Y10700D01*
X191300Y10000D02*X192000Y10700D01*
X200000Y9500D02*X202000Y12000D01*
X200000Y9500D02*X202500D01*
X202000Y12000D02*Y8000D01*
X220500Y11200D02*X221300Y12000D01*
Y8000D01*
X220500D02*X222000D01*
X210000Y11500D02*X210500Y12000D01*
X212000D01*
X212500Y11500D01*
Y10500D01*
X210000Y8000D02*X212500Y10500D01*
X210000Y8000D02*X212500D01*
X273500Y9000D02*Y5000D01*
X273000Y9000D02*X275000D01*
X275500Y8500D01*
Y7500D01*
X275000Y7000D02*X275500Y7500D01*
X273500Y7000D02*X275000D01*
X276700Y9000D02*X277700D01*
X277200D02*Y5000D01*
X276700D02*X277700D01*
X278900Y9000D02*Y5000D01*
Y9000D02*X281400Y5000D01*
Y9000D02*Y5000D01*
X284600Y9000D02*X285100Y8500D01*
X283100Y9000D02*X284600D01*
X282600Y8500D02*X283100Y9000D01*
X282600Y8500D02*Y5500D01*
X283100Y5000D01*
X284600D01*
X285100Y5500D01*
Y6500D02*Y5500D01*
X284600Y7000D02*X285100Y6500D01*
X283600Y7000D02*X284600D01*
X232000Y27800D02*Y23300D01*
Y27800D02*X232750Y28550D01*
X234250D01*
X235000Y27800D01*
Y23300D01*
X234250Y22550D02*X235000Y23300D01*
X232750Y22550D02*X234250D01*
X232000Y23300D02*X232750Y22550D01*
X236800Y28550D02*Y22550D01*
Y28550D02*X239800D01*
X236800Y25850D02*X239050D01*
X241600Y28550D02*Y22550D01*
Y28550D02*X244600D01*
X241600Y25850D02*X243850D01*
X273000Y18000D02*X275500Y22000D01*
X273000D02*X275500Y18000D01*
X276700D02*X278700D01*
X279200Y18500D01*
Y19700D02*Y18500D01*
X278700Y20200D02*X279200Y19700D01*
X277200Y20200D02*X278700D01*
X277200Y22000D02*Y18000D01*
X276700Y22000D02*X278700D01*
X279200Y21500D01*
Y20700D01*
X278700Y20200D02*X279200Y20700D01*
X280400Y20200D02*X281900D01*
X280400Y18000D02*X282400D01*
X280400Y22000D02*Y18000D01*
Y22000D02*X282400D01*
X283600Y20200D02*X285100D01*
X283600Y18000D02*X285600D01*
X283600Y22000D02*Y18000D01*
Y22000D02*X285600D01*
X288600D02*X290600D01*
X291100Y21500D01*
Y20500D01*
X290600Y20000D02*X291100Y20500D01*
X289100Y20000D02*X290600D01*
X289100Y22000D02*Y18000D01*
X289900Y20000D02*X291100Y18000D01*
X292300D02*X294800Y22000D01*
X292300D02*X294800Y18000D01*
X232000Y47800D02*Y43300D01*
Y47800D02*X232750Y48550D01*
X234250D01*
X235000Y47800D01*
Y43300D01*
X234250Y42550D02*X235000Y43300D01*
X232750Y42550D02*X234250D01*
X232000Y43300D02*X232750Y42550D01*
X236800Y48550D02*Y42550D01*
Y48550D02*X240550Y42550D01*
Y48550D02*Y42550D01*
X255500Y60780D02*X258040D01*
X258675Y60145D01*
Y58875D01*
X258040Y58240D02*X258675Y58875D01*
X256135Y58240D02*X258040D01*
X256135Y60780D02*Y55700D01*
X257151Y58240D02*X258675Y55700D01*
X260834D02*X262739D01*
X260199Y56335D02*X260834Y55700D01*
X260199Y57605D02*Y56335D01*
Y57605D02*X260834Y58240D01*
X262104D01*
X262739Y57605D01*
X260199Y56970D02*X262739D01*
Y57605D02*Y56970D01*
X264898Y58240D02*X266803D01*
X264263Y57605D02*X264898Y58240D01*
X264263Y57605D02*Y56335D01*
X264898Y55700D01*
X266803D01*
X268962D02*X270867D01*
X268327Y56335D02*X268962Y55700D01*
X268327Y57605D02*Y56335D01*
Y57605D02*X268962Y58240D01*
X270232D01*
X270867Y57605D01*
X268327Y56970D02*X270867D01*
Y57605D02*Y56970D01*
X272391Y59510D02*Y59383D01*
Y57605D02*Y55700D01*
X273661Y58240D02*X274931Y55700D01*
X276201Y58240D02*X274931Y55700D01*
X278360D02*X280265D01*
X277725Y56335D02*X278360Y55700D01*
X277725Y57605D02*Y56335D01*
Y57605D02*X278360Y58240D01*
X279630D01*
X280265Y57605D01*
X277725Y56970D02*X280265D01*
Y57605D02*Y56970D01*
X282424Y57605D02*Y55700D01*
Y57605D02*X283059Y58240D01*
X284329D01*
X281789D02*X282424Y57605D01*
X256135Y68280D02*Y63200D01*
X255500Y68280D02*X258040D01*
X258675Y67645D01*
Y66375D01*
X258040Y65740D02*X258675Y66375D01*
X256135Y65740D02*X258040D01*
X260834Y65105D02*Y63200D01*
Y65105D02*X261469Y65740D01*
X262739D01*
X260199D02*X260834Y65105D01*
X264263D02*Y63835D01*
Y65105D02*X264898Y65740D01*
X266168D01*
X266803Y65105D01*
Y63835D01*
X266168Y63200D02*X266803Y63835D01*
X264898Y63200D02*X266168D01*
X264263Y63835D02*X264898Y63200D01*
X268962Y68280D02*Y63835D01*
X269597Y63200D01*
X268327Y66375D02*X269597D01*
X270867Y65105D02*Y63835D01*
Y65105D02*X271502Y65740D01*
X272772D01*
X273407Y65105D01*
Y63835D01*
X272772Y63200D02*X273407Y63835D01*
X271502Y63200D02*X272772D01*
X270867Y63835D02*X271502Y63200D01*
X274931Y68280D02*X277471D01*
X276201D02*Y63200D01*
X278995Y68280D02*Y63200D01*
Y65105D02*X279630Y65740D01*
X280900D01*
X281535Y65105D01*
Y63200D01*
X283694Y65105D02*Y63200D01*
Y65105D02*X284329Y65740D01*
X285599D01*
X283059D02*X283694Y65105D01*
X287123D02*Y63835D01*
Y65105D02*X287758Y65740D01*
X289028D01*
X289663Y65105D01*
Y63835D01*
X289028Y63200D02*X289663Y63835D01*
X287758Y63200D02*X289028D01*
X287123Y63835D02*X287758Y63200D01*
X291822Y68280D02*Y63835D01*
X292457Y63200D01*
X291187Y66375D02*X292457D01*
X294362Y68280D02*Y63835D01*
X294997Y63200D01*
X293727Y66375D02*X294997D01*
X296267Y68280D02*Y63835D01*
X296902Y63200D01*
X298807D02*X300712D01*
X298172Y63835D02*X298807Y63200D01*
X298172Y65105D02*Y63835D01*
Y65105D02*X298807Y65740D01*
X300077D01*
X300712Y65105D01*
X298172Y64470D02*X300712D01*
Y65105D02*Y64470D01*
X273700Y44000D02*X275000D01*
X273000Y44700D02*X273700Y44000D01*
X273000Y47300D02*Y44700D01*
Y47300D02*X273700Y48000D01*
X275000D01*
X276200Y47500D02*Y44500D01*
Y47500D02*X276700Y48000D01*
X277700D01*
X278200Y47500D01*
Y44500D01*
X277700Y44000D02*X278200Y44500D01*
X276700Y44000D02*X277700D01*
X276200Y44500D02*X276700Y44000D01*
X279400Y48000D02*Y44000D01*
X281400D01*
X282600Y48000D02*Y44000D01*
X284600D01*
X285800Y48000D02*X286800D01*
X286300D02*Y44000D01*
X285800D02*X286800D01*
X290000Y48000D02*X290500Y47500D01*
X288500Y48000D02*X290000D01*
X288000Y47500D02*X288500Y48000D01*
X288000Y47500D02*Y46500D01*
X288500Y46000D01*
X290000D01*
X290500Y45500D01*
Y44500D01*
X290000Y44000D02*X290500Y44500D01*
X288500Y44000D02*X290000D01*
X288000Y44500D02*X288500Y44000D01*
X291700Y48000D02*X292700D01*
X292200D02*Y44000D01*
X291700D02*X292700D01*
X293900Y47500D02*Y44500D01*
Y47500D02*X294400Y48000D01*
X295400D01*
X295900Y47500D01*
Y44500D01*
X295400Y44000D02*X295900Y44500D01*
X294400Y44000D02*X295400D01*
X293900Y44500D02*X294400Y44000D01*
X297100Y48000D02*Y44000D01*
Y48000D02*X299600Y44000D01*
Y48000D02*Y44000D01*
X273000Y35000D02*X275000D01*
X275500Y34500D01*
Y33500D01*
X275000Y33000D02*X275500Y33500D01*
X273500Y33000D02*X275000D01*
X273500Y35000D02*Y31000D01*
X274300Y33000D02*X275500Y31000D01*
X276700Y33200D02*X278200D01*
X276700Y31000D02*X278700D01*
X276700Y35000D02*Y31000D01*
Y35000D02*X278700D01*
X281900D02*X282400Y34500D01*
X280400Y35000D02*X281900D01*
X279900Y34500D02*X280400Y35000D01*
X279900Y34500D02*Y33500D01*
X280400Y33000D01*
X281900D01*
X282400Y32500D01*
Y31500D01*
X281900Y31000D02*X282400Y31500D01*
X280400Y31000D02*X281900D01*
X279900Y31500D02*X280400Y31000D01*
X284100Y35000D02*Y31000D01*
X283600Y35000D02*X285600D01*
X286100Y34500D01*
Y33500D01*
X285600Y33000D02*X286100Y33500D01*
X284100Y33000D02*X285600D01*
X287300Y34500D02*Y31500D01*
Y34500D02*X287800Y35000D01*
X288800D01*
X289300Y34500D01*
Y31500D01*
X288800Y31000D02*X289300Y31500D01*
X287800Y31000D02*X288800D01*
X287300Y31500D02*X287800Y31000D01*
X290500Y35000D02*Y31000D01*
Y35000D02*X293000Y31000D01*
Y35000D02*Y31000D01*
X296200Y35000D02*X296700Y34500D01*
X294700Y35000D02*X296200D01*
X294200Y34500D02*X294700Y35000D01*
X294200Y34500D02*Y33500D01*
X294700Y33000D01*
X296200D01*
X296700Y32500D01*
Y31500D01*
X296200Y31000D02*X296700Y31500D01*
X294700Y31000D02*X296200D01*
X294200Y31500D02*X294700Y31000D01*
X297900Y33200D02*X299400D01*
X297900Y31000D02*X299900D01*
X297900Y35000D02*Y31000D01*
Y35000D02*X299900D01*
X325500Y177500D02*Y175500D01*
Y177500D02*X326000Y178000D01*
X327000D01*
X327500Y177500D02*X327000Y178000D01*
X327500Y177500D02*Y176000D01*
X325500D02*X329500D01*
X327500Y176800D02*X329500Y178000D01*
X325500Y181200D02*X326000Y181700D01*
X325500Y181200D02*Y179700D01*
X326000Y179200D02*X325500Y179700D01*
X326000Y179200D02*X327000D01*
X327500Y179700D01*
Y181200D02*Y179700D01*
Y181200D02*X328000Y181700D01*
X329000D01*
X329500Y181200D02*X329000Y181700D01*
X329500Y181200D02*Y179700D01*
X329000Y179200D02*X329500Y179700D01*
X325500Y184900D02*X326000Y185400D01*
X325500Y184900D02*Y183400D01*
X326000Y182900D02*X325500Y183400D01*
X326000Y182900D02*X327000D01*
X327500Y183400D01*
Y184900D02*Y183400D01*
Y184900D02*X328000Y185400D01*
X329000D01*
X329500Y184900D02*X329000Y185400D01*
X329500Y184900D02*Y183400D01*
X329000Y182900D02*X329500Y183400D01*
X325500Y187600D02*Y186600D01*
Y187100D02*X329500D01*
Y187600D02*Y186600D01*
X315500Y175500D02*X318500D01*
X315500D02*X314500Y176200D01*
Y177300D02*Y176200D01*
Y177300D02*X315500Y178000D01*
X318500D01*
X316500D02*Y175500D01*
X314500Y181200D02*X315000Y181700D01*
X314500Y181200D02*Y179700D01*
X315000Y179200D02*X314500Y179700D01*
X315000Y179200D02*X316000D01*
X316500Y179700D01*
Y181200D02*Y179700D01*
Y181200D02*X317000Y181700D01*
X318000D01*
X318500Y181200D02*X318000Y181700D01*
X318500Y181200D02*Y179700D01*
X318000Y179200D02*X318500Y179700D01*
X314500Y184900D02*X315000Y185400D01*
X314500Y184900D02*Y183400D01*
X315000Y182900D02*X314500Y183400D01*
X315000Y182900D02*X316000D01*
X316500Y183400D01*
Y184900D02*Y183400D01*
Y184900D02*X317000Y185400D01*
X318000D01*
X318500Y184900D02*X318000Y185400D01*
X318500Y184900D02*Y183400D01*
X318000Y182900D02*X318500Y183400D01*
X315000Y186600D02*X318000D01*
X315000D02*X314500Y187100D01*
Y188100D02*Y187100D01*
Y188100D02*X315000Y188600D01*
X318000D01*
X318500Y188100D02*X318000Y188600D01*
X318500Y188100D02*Y187100D01*
X318000Y186600D02*X318500Y187100D01*
Y191800D02*Y190500D01*
X317800Y189800D02*X318500Y190500D01*
X315200Y189800D02*X317800D01*
X315200D02*X314500Y190500D01*
Y191800D02*Y190500D01*
X267000Y80500D02*X268000Y78500D01*
X269000Y80500D02*X268000Y78500D01*
X270200Y82000D02*X270700Y82500D01*
X272200D01*
X272700Y82000D01*
Y81000D01*
X270200Y78500D02*X272700Y81000D01*
X270200Y78500D02*X272700D01*
X273900D02*X274400D01*
X275600Y79000D02*X276100Y78500D01*
X275600Y82000D02*Y79000D01*
Y82000D02*X276100Y82500D01*
X277100D01*
X277600Y82000D01*
Y79000D01*
X277100Y78500D02*X277600Y79000D01*
X276100Y78500D02*X277100D01*
X275600Y79500D02*X277600Y81500D01*
X282400Y79000D02*X282900Y78500D01*
X282400Y82000D02*X282900Y82500D01*
X282400Y82000D02*Y79000D01*
X284800Y78500D02*X286100D01*
X284100Y79200D02*X284800Y78500D01*
X284100Y81800D02*Y79200D01*
Y81800D02*X284800Y82500D01*
X286100D01*
X287300D02*X287800Y82000D01*
Y79000D01*
X287300Y78500D02*X287800Y79000D01*
X289000Y82000D02*X289500Y82500D01*
X291000D01*
X291500Y82000D01*
Y81000D01*
X289000Y78500D02*X291500Y81000D01*
X289000Y78500D02*X291500D01*
X292700Y79000D02*X293200Y78500D01*
X292700Y82000D02*Y79000D01*
Y82000D02*X293200Y82500D01*
X294200D01*
X294700Y82000D01*
Y79000D01*
X294200Y78500D02*X294700Y79000D01*
X293200Y78500D02*X294200D01*
X292700Y79500D02*X294700Y81500D01*
X295900Y81700D02*X296700Y82500D01*
Y78500D01*
X295900D02*X297400D01*
X299100D02*X300600Y80500D01*
Y82000D02*Y80500D01*
X300100Y82500D02*X300600Y82000D01*
X299100Y82500D02*X300100D01*
X298600Y82000D02*X299100Y82500D01*
X298600Y82000D02*Y81000D01*
X299100Y80500D01*
X300600D01*
X306100Y78500D02*X307400D01*
X305400Y79200D02*X306100Y78500D01*
X305400Y81800D02*Y79200D01*
Y81800D02*X306100Y82500D01*
X307400D01*
X309300Y78500D02*X310600D01*
X308600Y79200D02*X309300Y78500D01*
X308600Y81800D02*Y79200D01*
Y81800D02*X309300Y82500D01*
X310600D01*
X313600Y78500D02*X315600D01*
X316100Y79000D01*
Y80200D02*Y79000D01*
X315600Y80700D02*X316100Y80200D01*
X314100Y80700D02*X315600D01*
X314100Y82500D02*Y78500D01*
X313600Y82500D02*X315600D01*
X316100Y82000D01*
Y81200D01*
X315600Y80700D02*X316100Y81200D01*
X317300Y82500D02*X318300Y80500D01*
X319300Y82500D01*
X318300Y80500D02*Y78500D01*
X320500Y80500D02*X322500D01*
X325700Y82500D02*X326200Y82000D01*
X324200Y82500D02*X325700D01*
X323700Y82000D02*X324200Y82500D01*
X323700Y82000D02*Y81000D01*
X324200Y80500D01*
X325700D01*
X326200Y80000D01*
Y79000D01*
X325700Y78500D02*X326200Y79000D01*
X324200Y78500D02*X325700D01*
X323700Y79000D02*X324200Y78500D01*
X327400Y81500D02*Y78500D01*
Y81500D02*X328100Y82500D01*
X329200D01*
X329900Y81500D01*
Y78500D01*
X327400Y80500D02*X329900D01*
X267000Y90000D02*Y86000D01*
Y90000D02*X268500Y88000D01*
X270000Y90000D01*
Y86000D01*
X271200Y90000D02*X273200D01*
X273700Y89500D01*
Y88500D01*
X273200Y88000D02*X273700Y88500D01*
X271700Y88000D02*X273200D01*
X271700Y90000D02*Y86000D01*
X272500Y88000D02*X273700Y86000D01*
X274900D02*X276900D01*
X277400Y86500D01*
Y87700D02*Y86500D01*
X276900Y88200D02*X277400Y87700D01*
X275400Y88200D02*X276900D01*
X275400Y90000D02*Y86000D01*
X274900Y90000D02*X276900D01*
X277400Y89500D01*
Y88700D01*
X276900Y88200D02*X277400Y88700D01*
X278600Y90000D02*Y88000D01*
X279100Y86000D01*
X280100Y88000D01*
X281100Y86000D01*
X281600Y88000D01*
Y90000D02*Y88000D01*
X282800D02*X284800D01*
X286000Y86000D02*X288500Y90000D01*
X286000D02*X288500Y86000D01*
X290200Y90000D02*Y86000D01*
X289700Y90000D02*X291700D01*
X292200Y89500D01*
Y88500D01*
X291700Y88000D02*X292200Y88500D01*
X290200Y88000D02*X291700D01*
X293400Y90000D02*X295400D01*
X295900Y89500D01*
Y88500D01*
X295400Y88000D02*X295900Y88500D01*
X293900Y88000D02*X295400D01*
X293900Y90000D02*Y86000D01*
X294700Y88000D02*X295900Y86000D01*
X297100Y88200D02*X298600D01*
X297100Y86000D02*X299100D01*
X297100Y90000D02*Y86000D01*
Y90000D02*X299100D01*
X302300D02*X302800Y89500D01*
X300800Y90000D02*X302300D01*
X300300Y89500D02*X300800Y90000D01*
X300300Y89500D02*Y88500D01*
X300800Y88000D01*
X302300D01*
X302800Y87500D01*
Y86500D01*
X302300Y86000D02*X302800Y86500D01*
X300800Y86000D02*X302300D01*
X300300Y86500D02*X300800Y86000D01*
X306000Y90000D02*X306500Y89500D01*
X304500Y90000D02*X306000D01*
X304000Y89500D02*X304500Y90000D01*
X304000Y89500D02*Y88500D01*
X304500Y88000D01*
X306000D01*
X306500Y87500D01*
Y86500D01*
X306000Y86000D02*X306500Y86500D01*
X304500Y86000D02*X306000D01*
X304000Y86500D02*X304500Y86000D01*
X307700Y90000D02*Y86000D01*
Y90000D02*X310200Y86000D01*
Y90000D02*Y86000D01*
X311400Y88200D02*X312900D01*
X311400Y86000D02*X313400D01*
X311400Y90000D02*Y86000D01*
Y90000D02*X313400D01*
X314600D02*X316600D01*
X315600D02*Y86000D01*
X267000Y97500D02*Y93500D01*
Y97500D02*X268500Y95500D01*
X270000Y97500D01*
Y93500D01*
X271200Y97500D02*X273200D01*
X273700Y97000D01*
Y96000D01*
X273200Y95500D02*X273700Y96000D01*
X271700Y95500D02*X273200D01*
X271700Y97500D02*Y93500D01*
X272500Y95500D02*X273700Y93500D01*
X274900D02*X276900D01*
X277400Y94000D01*
Y95200D02*Y94000D01*
X276900Y95700D02*X277400Y95200D01*
X275400Y95700D02*X276900D01*
X275400Y97500D02*Y93500D01*
X274900Y97500D02*X276900D01*
X277400Y97000D01*
Y96200D01*
X276900Y95700D02*X277400Y96200D01*
X278600Y97500D02*Y95500D01*
X279100Y93500D01*
X280100Y95500D01*
X281100Y93500D01*
X281600Y95500D01*
Y97500D02*Y95500D01*
X282800D02*X284800D01*
X286700Y93500D02*X288000D01*
X286000Y94200D02*X286700Y93500D01*
X286000Y96800D02*Y94200D01*
Y96800D02*X286700Y97500D01*
X288000D01*
X289200Y96500D02*Y93500D01*
Y96500D02*X289900Y97500D01*
X291000D01*
X291700Y96500D01*
Y93500D01*
X289200Y95500D02*X291700D01*
X292900Y93500D02*X294900D01*
X295400Y94000D01*
Y95200D02*Y94000D01*
X294900Y95700D02*X295400Y95200D01*
X293400Y95700D02*X294900D01*
X293400Y97500D02*Y93500D01*
X292900Y97500D02*X294900D01*
X295400Y97000D01*
Y96200D01*
X294900Y95700D02*X295400Y96200D01*
X296600Y93500D02*X298600D01*
X299100Y94000D01*
Y95200D02*Y94000D01*
X298600Y95700D02*X299100Y95200D01*
X297100Y95700D02*X298600D01*
X297100Y97500D02*Y93500D01*
X296600Y97500D02*X298600D01*
X299100Y97000D01*
Y96200D01*
X298600Y95700D02*X299100Y96200D01*
X300300Y97500D02*Y94000D01*
X300800Y93500D01*
X301800D01*
X302300Y94000D01*
Y97500D02*Y94000D01*
X305500Y97500D02*X306000Y97000D01*
X304000Y97500D02*X305500D01*
X303500Y97000D02*X304000Y97500D01*
X303500Y97000D02*Y96000D01*
X304000Y95500D01*
X305500D01*
X306000Y95000D01*
Y94000D01*
X305500Y93500D02*X306000Y94000D01*
X304000Y93500D02*X305500D01*
X303500Y94000D02*X304000Y93500D01*
G54D101*X82665Y165126D02*X128335D01*
X82665Y198590D02*X128335D01*
X82665D02*Y165126D01*
X128335Y198590D02*Y165126D01*
X9200Y195000D02*Y155000D01*
X39200Y195000D02*Y155000D01*
X34800Y195000D02*Y155000D01*
X9200Y195000D02*X39200D01*
X9200Y155000D02*X39200D01*
X47500Y216300D02*X68500D01*
X47500Y206700D02*X68500D01*
Y216300D02*Y206700D01*
X47500Y216300D02*Y206700D01*
X60500Y216300D02*Y206700D01*
X47500Y201800D02*X68500D01*
X47500Y192200D02*X68500D01*
Y201800D02*Y192200D01*
X47500Y201800D02*Y192200D01*
X60500Y201800D02*Y192200D01*
X51508Y157008D02*X58004D01*
X70996D02*X77492D01*
Y176496D02*Y157008D01*
X51508Y176496D02*Y157008D01*
X77492Y176496D02*X70996Y182992D01*
X51508Y176496D02*X58004Y182992D01*
X54500Y176000D02*X58500D01*
X56500Y178000D02*Y174000D01*
G54D104*X1000Y60000D02*X72300D01*
X1000Y112000D02*X72300D01*
Y60000D01*
X1000Y112000D02*X980Y60000D01*
G54D101*X84000Y146000D02*Y127000D01*
X53000Y146000D02*X84000D01*
X53000D02*Y127000D01*
X71000D02*X84000D01*
X53000D02*X66000D01*
X71000D02*G75*G03X66000Y127000I-2500J0D01*G01*
X9200Y155000D02*Y115000D01*
X39200Y155000D02*Y115000D01*
X34800Y155000D02*Y115000D01*
X9200Y155000D02*X39200D01*
X9200Y115000D02*X39200D01*
X63107Y122755D02*X63893D01*
X63107Y117245D02*X63893D01*
X138000Y45500D02*Y25500D01*
X52000Y45500D02*X138000D01*
X52000Y25500D02*X138000D01*
X52000Y45500D02*Y25500D01*
Y45500D02*X59000Y35500D01*
X52000Y25500D02*X59000Y35500D01*
X107255Y94393D02*Y93607D01*
X101745Y94393D02*Y93607D01*
X98741Y124799D02*Y112201D01*
X91259D02*X98741D01*
X91259Y124799D02*Y112201D01*
Y124799D02*X98741D01*
X14607Y55755D02*X15393D01*
X14607Y50245D02*X15393D01*
X14607Y38245D02*X15393D01*
X14607Y43755D02*X15393D01*
X127607Y137255D02*X128393D01*
X127607Y131745D02*X128393D01*
X207607Y201755D02*X208393D01*
X207607Y196245D02*X208393D01*
X201850Y205250D02*X212480D01*
X201850Y223750D02*X212480D01*
X201850Y208500D02*Y205250D01*
Y223750D02*Y220500D01*
X212480Y205429D02*Y205250D01*
Y223750D02*Y223571D01*
X228107Y204245D02*X228893D01*
X228107Y209755D02*X228893D01*
X242350Y229100D02*X295650D01*
Y153100D01*
X242350D02*X295650D01*
X242350Y229100D02*Y153100D01*
X247500Y213000D02*X290500D01*
X247500Y229100D02*Y213000D01*
X290500Y229100D02*Y213000D01*
X247500D02*X290500Y229100D01*
X247500D02*X290500Y213000D01*
X197107Y183755D02*X197893D01*
X197107Y178245D02*X197893D01*
X197107Y173755D02*X197893D01*
X197107Y168245D02*X197893D01*
X218607Y155745D02*X219393D01*
X218607Y161255D02*X219393D01*
X218607Y164745D02*X219393D01*
X218607Y170255D02*X219393D01*
X228107Y194245D02*X228893D01*
X228107Y199755D02*X228893D01*
X319255Y167393D02*Y166607D01*
X313745Y167393D02*Y166607D01*
X330255Y167393D02*Y166607D01*
X324745Y167393D02*Y166607D01*
X200201Y82890D02*X212799D01*
Y69110D01*
X200201D01*
Y82890D01*
X229000Y45500D02*Y25500D01*
X143000Y45500D02*X229000D01*
X143000Y25500D02*X229000D01*
X143000Y45500D02*Y25500D01*
Y45500D02*X150000Y35500D01*
X143000Y25500D02*X150000Y35500D01*
X159785Y111885D02*Y76215D01*
X121215D02*X159785D01*
X121215Y114785D02*Y76215D01*
Y114785D02*X156885D01*
X159785Y111885D01*
X156885Y112885D02*G75*G03X156885Y112885I0J-1000D01*G01*
X173745Y94393D02*Y93607D01*
X179255Y94393D02*Y93607D01*
X215000Y146000D02*Y112000D01*
X184000Y146000D02*X215000D01*
X184000D02*Y112000D01*
X202000D02*X215000D01*
X184000D02*X197000D01*
X202000D02*G75*G03X197000Y112000I-2500J0D01*G01*
X199107Y101745D02*X199893D01*
X199107Y107255D02*X199893D01*
X264107Y4245D02*X264893D01*
X264107Y9755D02*X264893D01*
X264107Y17245D02*X264893D01*
X264107Y22755D02*X264893D01*
X264107Y30245D02*X264893D01*
X264107Y35755D02*X264893D01*
X264107Y43245D02*X264893D01*
X264107Y48755D02*X264893D01*
X313201Y135759D02*X325799D01*
X313201Y143241D02*Y135759D01*
Y143241D02*X325799D01*
Y135759D01*
X264607Y137255D02*X265393D01*
X264607Y131745D02*X265393D01*
X133107Y215745D02*X133893D01*
X133107Y221255D02*X133893D01*
X113362Y160350D02*X158638D01*
Y141650D01*
X113362D01*
Y160350D01*
X143607Y131745D02*X144393D01*
X143607Y137255D02*X144393D01*
X140255Y170893D02*Y170107D01*
X134745Y170893D02*Y170107D01*
X148607Y215745D02*X149393D01*
X148607Y221255D02*X149393D01*
X182107D02*X182893D01*
X182107Y215745D02*X182893D01*
X166607Y221255D02*X167393D01*
X166607Y215745D02*X167393D01*
X155000Y197500D02*Y177500D01*
X185000Y197500D02*Y177500D01*
X155000Y197500D02*X156000D01*
X184000D02*X185000D01*
X184000Y177500D02*X185000D01*
X155000D02*X156000D01*
X153500Y175500D02*G75*G03X153500Y175500I0J500D01*G01*
G54D103*X85000Y163000D02*Y159500D01*
X85500Y159000D01*
X86500D01*
X87000Y159500D01*
Y163000D02*Y159500D01*
X88200Y162500D02*X88700Y163000D01*
X89700D01*
X90200Y162500D01*
X89700Y159000D02*X90200Y159500D01*
X88700Y159000D02*X89700D01*
X88200Y159500D02*X88700Y159000D01*
Y161200D02*X89700D01*
X90200Y162500D02*Y161700D01*
Y160700D02*Y159500D01*
Y160700D02*X89700Y161200D01*
X90200Y161700D02*X89700Y161200D01*
X76500Y152000D02*Y148500D01*
X77000Y148000D01*
X78000D01*
X78500Y148500D01*
Y152000D02*Y148500D01*
X79700Y151500D02*X80200Y152000D01*
X81700D01*
X82200Y151500D01*
Y150500D01*
X79700Y148000D02*X82200Y150500D01*
X79700Y148000D02*X82200D01*
X24000Y176300D02*Y175500D01*
X20500D02*X24000D01*
X20000Y176000D02*X20500Y175500D01*
X20000Y176500D02*Y176000D01*
X20500Y177000D02*X20000Y176500D01*
X20500Y177000D02*X21000D01*
X23200Y174300D02*X24000Y173500D01*
X20000D02*X24000D01*
X20000Y174300D02*Y172800D01*
X71000Y193000D02*X75000D01*
X71000Y194300D02*X71700Y195000D01*
X74300D01*
X75000Y194300D02*X74300Y195000D01*
X75000Y194300D02*Y192500D01*
X71000Y194300D02*Y192500D01*
X71800Y196200D02*X71000Y197000D01*
X75000D01*
Y197700D02*Y196200D01*
X74500Y198900D02*X75000Y199400D01*
X71500Y198900D02*X74500D01*
X71500D02*X71000Y199400D01*
Y200400D02*Y199400D01*
Y200400D02*X71500Y200900D01*
X74500D01*
X75000Y200400D02*X74500Y200900D01*
X75000Y200400D02*Y199400D01*
X74000Y198900D02*X72000Y200900D01*
X49200Y181500D02*X50500D01*
X48500Y182200D02*X49200Y181500D01*
X48500Y184800D02*Y182200D01*
Y184800D02*X49200Y185500D01*
X50500D01*
X51700Y184700D02*X52500Y185500D01*
Y181500D01*
X51700D02*X53200D01*
X30357Y88500D02*X31157D01*
Y85000D01*
X30657Y84500D02*X31157Y85000D01*
X30157Y84500D02*X30657D01*
X29657Y85000D02*X30157Y84500D01*
X29657Y85500D02*Y85000D01*
X32357Y86000D02*X34357Y88500D01*
X32357Y86000D02*X34857D01*
X34357Y88500D02*Y84500D01*
X24000Y136800D02*Y136000D01*
X20500D02*X24000D01*
X20000Y136500D02*X20500Y136000D01*
X20000Y137000D02*Y136500D01*
X20500Y137500D02*X20000Y137000D01*
X20500Y137500D02*X21000D01*
X23500Y134800D02*X24000Y134300D01*
Y132800D01*
X23500Y132300D01*
X22500D02*X23500D01*
X20000Y134800D02*X22500Y132300D01*
X20000Y134800D02*Y132300D01*
X51093Y118150D02*X52393D01*
X50393Y118850D02*X51093Y118150D01*
X50393Y121450D02*Y118850D01*
Y121450D02*X51093Y122150D01*
X52393D01*
X53593Y118650D02*X54093Y118150D01*
X53593Y119450D02*Y118650D01*
Y119450D02*X54293Y120150D01*
X54893D01*
X55593Y119450D01*
Y118650D01*
X55093Y118150D02*X55593Y118650D01*
X54093Y118150D02*X55093D01*
X53593Y120850D02*X54293Y120150D01*
X53593Y121650D02*Y120850D01*
Y121650D02*X54093Y122150D01*
X55093D01*
X55593Y121650D01*
Y120850D01*
X54893Y120150D02*X55593Y120850D01*
X40500Y37500D02*X41000Y37000D01*
X39000Y37500D02*X40500D01*
X38500Y37000D02*X39000Y37500D01*
X38500Y37000D02*Y36000D01*
X39000Y35500D01*
X40500D01*
X41000Y35000D01*
Y34000D01*
X40500Y33500D02*X41000Y34000D01*
X39000Y33500D02*X40500D01*
X38500Y34000D02*X39000Y33500D01*
X42200Y37500D02*Y35500D01*
X42700Y33500D01*
X43700Y35500D01*
X44700Y33500D01*
X45200Y35500D01*
Y37500D02*Y35500D01*
X46400Y37000D02*X46900Y37500D01*
X48400D01*
X48900Y37000D01*
Y36000D01*
X46400Y33500D02*X48900Y36000D01*
X46400Y33500D02*X48900D01*
X22393Y55150D02*X24393D01*
X24893Y54650D01*
Y53650D01*
X24393Y53150D02*X24893Y53650D01*
X22893Y53150D02*X24393D01*
X22893Y55150D02*Y51150D01*
X23693Y53150D02*X24893Y51150D01*
X26093Y54650D02*X26593Y55150D01*
X28093D01*
X28593Y54650D01*
Y53650D01*
X26093Y51150D02*X28593Y53650D01*
X26093Y51150D02*X28593D01*
X22936Y43150D02*Y39150D01*
X24236Y43150D02*X24936Y42450D01*
Y39850D01*
X24236Y39150D02*X24936Y39850D01*
X22436Y39150D02*X24236D01*
X22436Y43150D02*X24236D01*
X26136Y42650D02*X26636Y43150D01*
X28136D01*
X28636Y42650D01*
Y41650D01*
X26136Y39150D02*X28636Y41650D01*
X26136Y39150D02*X28636D01*
X71000Y208000D02*X75000D01*
X71000Y209300D02*X71700Y210000D01*
X74300D01*
X75000Y209300D02*X74300Y210000D01*
X75000Y209300D02*Y207500D01*
X71000Y209300D02*Y207500D01*
X71800Y211200D02*X71000Y212000D01*
X75000D01*
Y212700D02*Y211200D01*
X71800Y213900D02*X71000Y214700D01*
X75000D01*
Y215400D02*Y213900D01*
X83000Y120500D02*X85000D01*
X85500Y120000D01*
Y119000D01*
X85000Y118500D02*X85500Y119000D01*
X83500Y118500D02*X85000D01*
X83500Y120500D02*Y116500D01*
X84300Y118500D02*X85500Y116500D01*
X86700Y118000D02*X88700Y120500D01*
X86700Y118000D02*X89200D01*
X88700Y120500D02*Y116500D01*
X193550Y196650D02*X194850D01*
X192850Y197350D02*X193550Y196650D01*
X192850Y199950D02*Y197350D01*
Y199950D02*X193550Y200650D01*
X194850D01*
X196050Y199850D02*X196850Y200650D01*
Y196650D01*
X196050D02*X197550D01*
X198750Y199850D02*X199550Y200650D01*
Y196650D01*
X198750D02*X200250D01*
X193416Y225500D02*Y222000D01*
X193916Y221500D01*
X194916D01*
X195416Y222000D01*
Y225500D02*Y222000D01*
X196616Y223000D02*X198616Y225500D01*
X196616Y223000D02*X199116D01*
X198616Y225500D02*Y221500D01*
X197000Y151500D02*Y148000D01*
X197500Y147500D01*
X198500D01*
X199000Y148000D01*
Y151500D02*Y148000D01*
X200200Y151500D02*X202200D01*
X200200D02*Y149500D01*
X200700Y150000D01*
X201700D01*
X202200Y149500D01*
Y148000D01*
X201700Y147500D02*X202200Y148000D01*
X200700Y147500D02*X201700D01*
X200200Y148000D02*X200700Y147500D01*
X195550Y185150D02*X196850D01*
X194850Y185850D02*X195550Y185150D01*
X194850Y188450D02*Y185850D01*
Y188450D02*X195550Y189150D01*
X196850D01*
X198050D02*X200050D01*
X198050D02*Y187150D01*
X198550Y187650D01*
X199550D01*
X200050Y187150D01*
Y185650D01*
X199550Y185150D02*X200050Y185650D01*
X198550Y185150D02*X199550D01*
X198050Y185650D02*X198550Y185150D01*
X194850Y166650D02*X196850D01*
X197350Y166150D01*
Y165150D01*
X196850Y164650D02*X197350Y165150D01*
X195350Y164650D02*X196850D01*
X195350Y166650D02*Y162650D01*
X196150Y164650D02*X197350Y162650D01*
X198550Y166650D02*X200550D01*
X198550D02*Y164650D01*
X199050Y165150D01*
X200050D01*
X200550Y164650D01*
Y163150D01*
X200050Y162650D02*X200550Y163150D01*
X199050Y162650D02*X200050D01*
X198550Y163150D02*X199050Y162650D01*
X130850Y214150D02*X132850D01*
X133350Y213650D01*
Y212650D01*
X132850Y212150D02*X133350Y212650D01*
X131350Y212150D02*X132850D01*
X131350Y214150D02*Y210150D01*
X132150Y212150D02*X133350Y210150D01*
X134550Y213350D02*X135350Y214150D01*
Y210150D01*
X134550D02*X136050D01*
X114500Y74500D02*Y71000D01*
X115000Y70500D01*
X116000D01*
X116500Y71000D01*
Y74500D02*Y71000D01*
X117700Y73700D02*X118500Y74500D01*
Y70500D01*
X117700D02*X119200D01*
X102050Y82150D02*X103350D01*
X101350Y82850D02*X102050Y82150D01*
X101350Y85450D02*Y82850D01*
Y85450D02*X102050Y86150D01*
X103350D01*
X105050Y82150D02*X107050Y86150D01*
X104550D02*X107050D01*
X134000Y153000D02*X135000Y151000D01*
X136000Y153000D01*
X135000Y151000D02*Y149000D01*
X137200Y152200D02*X138000Y153000D01*
Y149000D01*
X137200D02*X138700D01*
X115550Y132150D02*X116850D01*
X114850Y132850D02*X115550Y132150D01*
X114850Y135450D02*Y132850D01*
Y135450D02*X115550Y136150D01*
X116850D01*
X118050Y135650D02*X118550Y136150D01*
X119550D01*
X120050Y135650D01*
X119550Y132150D02*X120050Y132650D01*
X118550Y132150D02*X119550D01*
X118050Y132650D02*X118550Y132150D01*
Y134350D02*X119550D01*
X120050Y135650D02*Y134850D01*
Y133850D02*Y132650D01*
Y133850D02*X119550Y134350D01*
X120050Y134850D02*X119550Y134350D01*
X135507Y178150D02*X136807D01*
X134807Y178850D02*X135507Y178150D01*
X134807Y181450D02*Y178850D01*
Y181450D02*X135507Y182150D01*
X136807D01*
X138007Y181650D02*X138507Y182150D01*
X140007D01*
X140507Y181650D01*
Y180650D01*
X138007Y178150D02*X140507Y180650D01*
X138007Y178150D02*X140507D01*
X147350Y214150D02*Y210150D01*
X148650Y214150D02*X149350Y213450D01*
Y210850D01*
X148650Y210150D02*X149350Y210850D01*
X146850Y210150D02*X148650D01*
X146850Y214150D02*X148650D01*
X150550Y213350D02*X151350Y214150D01*
Y210150D01*
X150550D02*X152050D01*
X152636Y132150D02*X153936D01*
X151936Y132850D02*X152636Y132150D01*
X151936Y135450D02*Y132850D01*
Y135450D02*X152636Y136150D01*
X153936D01*
X155136Y133650D02*X157136Y136150D01*
X155136Y133650D02*X157636D01*
X157136Y136150D02*Y132150D01*
X147960Y189240D02*X148760D01*
Y185740D01*
X148260Y185240D02*X148760Y185740D01*
X147760Y185240D02*X148260D01*
X147260Y185740D02*X147760Y185240D01*
X147260Y186240D02*Y185740D01*
X149960Y188740D02*X150460Y189240D01*
X151460D01*
X151960Y188740D01*
X151460Y185240D02*X151960Y185740D01*
X150460Y185240D02*X151460D01*
X149960Y185740D02*X150460Y185240D01*
Y187440D02*X151460D01*
X151960Y188740D02*Y187940D01*
Y186940D02*Y185740D01*
Y186940D02*X151460Y187440D01*
X151960Y187940D02*X151460Y187440D01*
X179807Y214150D02*X181807D01*
X182307Y213650D01*
Y212650D01*
X181807Y212150D02*X182307Y212650D01*
X180307Y212150D02*X181807D01*
X180307Y214150D02*Y210150D01*
X181107Y212150D02*X182307Y210150D01*
X183507Y213650D02*X184007Y214150D01*
X185007D01*
X185507Y213650D01*
X185007Y210150D02*X185507Y210650D01*
X184007Y210150D02*X185007D01*
X183507Y210650D02*X184007Y210150D01*
Y212350D02*X185007D01*
X185507Y213650D02*Y212850D01*
Y211850D02*Y210650D01*
Y211850D02*X185007Y212350D01*
X185507Y212850D02*X185007Y212350D01*
X164850Y214150D02*Y210150D01*
X166150Y214150D02*X166850Y213450D01*
Y210850D01*
X166150Y210150D02*X166850Y210850D01*
X164350Y210150D02*X166150D01*
X164350Y214150D02*X166150D01*
X168050Y213650D02*X168550Y214150D01*
X169550D01*
X170050Y213650D01*
X169550Y210150D02*X170050Y210650D01*
X168550Y210150D02*X169550D01*
X168050Y210650D02*X168550Y210150D01*
Y212350D02*X169550D01*
X170050Y213650D02*Y212850D01*
Y211850D02*Y210650D01*
Y211850D02*X169550Y212350D01*
X170050Y212850D02*X169550Y212350D01*
X203500Y88799D02*X205500D01*
X206000Y88299D01*
Y87299D01*
X205500Y86799D02*X206000Y87299D01*
X204000Y86799D02*X205500D01*
X204000Y88799D02*Y84799D01*
X204800Y86799D02*X206000Y84799D01*
X207700D02*X209700Y88799D01*
X207200D02*X209700D01*
X175050Y82150D02*X176350D01*
X174350Y82850D02*X175050Y82150D01*
X174350Y85450D02*Y82850D01*
Y85450D02*X175050Y86150D01*
X176350D01*
X179050D02*X179550Y85650D01*
X178050Y86150D02*X179050D01*
X177550Y85650D02*X178050Y86150D01*
X177550Y85650D02*Y82650D01*
X178050Y82150D01*
X179050Y84350D02*X179550Y83850D01*
X177550Y84350D02*X179050D01*
X178050Y82150D02*X179050D01*
X179550Y82650D01*
Y83850D02*Y82650D01*
X196050Y96150D02*X197350D01*
X195350Y96850D02*X196050Y96150D01*
X195350Y99450D02*Y96850D01*
Y99450D02*X196050Y100150D01*
X197350D01*
X198550Y99350D02*X199350Y100150D01*
Y96150D01*
X198550D02*X200050D01*
X201250Y99650D02*X201750Y100150D01*
X203250D01*
X203750Y99650D01*
Y98650D01*
X201250Y96150D02*X203750Y98650D01*
X201250Y96150D02*X203750D01*
X234000Y37500D02*X234500Y37000D01*
X232500Y37500D02*X234000D01*
X232000Y37000D02*X232500Y37500D01*
X232000Y37000D02*Y36000D01*
X232500Y35500D01*
X234000D01*
X234500Y35000D01*
Y34000D01*
X234000Y33500D02*X234500Y34000D01*
X232500Y33500D02*X234000D01*
X232000Y34000D02*X232500Y33500D01*
X235700Y37500D02*Y35500D01*
X236200Y33500D01*
X237200Y35500D01*
X238200Y33500D01*
X238700Y35500D01*
Y37500D02*Y35500D01*
X239900Y36700D02*X240700Y37500D01*
Y33500D01*
X239900D02*X241400D01*
X251264Y9150D02*Y5150D01*
X252564Y9150D02*X253264Y8450D01*
Y5850D01*
X252564Y5150D02*X253264Y5850D01*
X250764Y5150D02*X252564D01*
X250764Y9150D02*X252564D01*
X255964D02*X256464Y8650D01*
X254964Y9150D02*X255964D01*
X254464Y8650D02*X254964Y9150D01*
X254464Y8650D02*Y5650D01*
X254964Y5150D01*
X255964Y7350D02*X256464Y6850D01*
X254464Y7350D02*X255964D01*
X254964Y5150D02*X255964D01*
X256464Y5650D01*
Y6850D02*Y5650D01*
X251264Y22150D02*Y18150D01*
X252564Y22150D02*X253264Y21450D01*
Y18850D01*
X252564Y18150D02*X253264Y18850D01*
X250764Y18150D02*X252564D01*
X250764Y22150D02*X252564D01*
X254964Y18150D02*X256964Y22150D01*
X254464D02*X256964D01*
X251264Y35150D02*Y31150D01*
X252564Y35150D02*X253264Y34450D01*
Y31850D01*
X252564Y31150D02*X253264Y31850D01*
X250764Y31150D02*X252564D01*
X250764Y35150D02*X252564D01*
X254464Y31650D02*X254964Y31150D01*
X254464Y32450D02*Y31650D01*
Y32450D02*X255164Y33150D01*
X255764D01*
X256464Y32450D01*
Y31650D01*
X255964Y31150D02*X256464Y31650D01*
X254964Y31150D02*X255964D01*
X254464Y33850D02*X255164Y33150D01*
X254464Y34650D02*Y33850D01*
Y34650D02*X254964Y35150D01*
X255964D01*
X256464Y34650D01*
Y33850D01*
X255764Y33150D02*X256464Y33850D01*
X251264Y48150D02*Y44150D01*
X252564Y48150D02*X253264Y47450D01*
Y44850D01*
X252564Y44150D02*X253264Y44850D01*
X250764Y44150D02*X252564D01*
X250764Y48150D02*X252564D01*
X254964Y44150D02*X256464Y46150D01*
Y47650D02*Y46150D01*
X255964Y48150D02*X256464Y47650D01*
X254964Y48150D02*X255964D01*
X254464Y47650D02*X254964Y48150D01*
X254464Y47650D02*Y46650D01*
X254964Y46150D01*
X256464D01*
X266500Y194000D02*Y190500D01*
X267000Y190000D01*
X268000D01*
X268500Y190500D01*
Y194000D02*Y190500D01*
X271200Y194000D02*X271700Y193500D01*
X270200Y194000D02*X271200D01*
X269700Y193500D02*X270200Y194000D01*
X269700Y193500D02*Y190500D01*
X270200Y190000D01*
X271200Y192200D02*X271700Y191700D01*
X269700Y192200D02*X271200D01*
X270200Y190000D02*X271200D01*
X271700Y190500D01*
Y191700D02*Y190500D01*
X275200Y125000D02*X276000D01*
Y121500D01*
X275500Y121000D02*X276000Y121500D01*
X275000Y121000D02*X275500D01*
X274500Y121500D02*X275000Y121000D01*
X274500Y122000D02*Y121500D01*
X277200Y125000D02*X279200D01*
X277200D02*Y123000D01*
X277700Y123500D01*
X278700D01*
X279200Y123000D01*
Y121500D01*
X278700Y121000D02*X279200Y121500D01*
X277700Y121000D02*X278700D01*
X277200Y121500D02*X277700Y121000D01*
X316500Y134000D02*X318500D01*
X319000Y133500D01*
Y132500D01*
X318500Y132000D02*X319000Y132500D01*
X317000Y132000D02*X318500D01*
X317000Y134000D02*Y130000D01*
X317800Y132000D02*X319000Y130000D01*
X320200Y130500D02*X320700Y130000D01*
X320200Y131300D02*Y130500D01*
Y131300D02*X320900Y132000D01*
X321500D01*
X322200Y131300D01*
Y130500D01*
X321700Y130000D02*X322200Y130500D01*
X320700Y130000D02*X321700D01*
X320200Y132700D02*X320900Y132000D01*
X320200Y133500D02*Y132700D01*
Y133500D02*X320700Y134000D01*
X321700D01*
X322200Y133500D01*
Y132700D01*
X321500Y132000D02*X322200Y132700D01*
X314350Y153850D02*X318350D01*
X314350Y155150D02*X315050Y155850D01*
X317650D01*
X318350Y155150D02*X317650Y155850D01*
X318350Y155150D02*Y153350D01*
X314350Y155150D02*Y153350D01*
Y159050D02*Y157050D01*
X316350D01*
X315850Y157550D01*
Y158550D02*Y157550D01*
Y158550D02*X316350Y159050D01*
X317850D01*
X318350Y158550D02*X317850Y159050D01*
X318350Y158550D02*Y157550D01*
X317850Y157050D02*X318350Y157550D01*
X325850Y153807D02*X329850D01*
X325850Y155107D02*X326550Y155807D01*
X329150D01*
X329850Y155107D02*X329150Y155807D01*
X329850Y155107D02*Y153307D01*
X325850Y155107D02*Y153307D01*
X328350Y157007D02*X325850Y159007D01*
X328350Y159507D02*Y157007D01*
X325850Y159007D02*X329850D01*
X262393Y143150D02*X264393D01*
X264893Y142650D01*
Y141650D01*
X264393Y141150D02*X264893Y141650D01*
X262893Y141150D02*X264393D01*
X262893Y143150D02*Y139150D01*
X263693Y141150D02*X264893Y139150D01*
X266593D02*X268093Y141150D01*
Y142650D02*Y141150D01*
X267593Y143150D02*X268093Y142650D01*
X266593Y143150D02*X267593D01*
X266093Y142650D02*X266593Y143150D01*
X266093Y142650D02*Y141650D01*
X266593Y141150D01*
X268093D01*
X216393Y154193D02*X218393D01*
X218893Y153693D01*
Y152693D01*
X218393Y152193D02*X218893Y152693D01*
X216893Y152193D02*X218393D01*
X216893Y154193D02*Y150193D01*
X217693Y152193D02*X218893Y150193D01*
X221593Y154193D02*X222093Y153693D01*
X220593Y154193D02*X221593D01*
X220093Y153693D02*X220593Y154193D01*
X220093Y153693D02*Y150693D01*
X220593Y150193D01*
X221593Y152393D02*X222093Y151893D01*
X220093Y152393D02*X221593D01*
X220593Y150193D02*X221593D01*
X222093Y150693D01*
Y151893D02*Y150693D01*
X214850Y175693D02*X216850D01*
X217350Y175193D01*
Y174193D01*
X216850Y173693D02*X217350Y174193D01*
X215350Y173693D02*X216850D01*
X215350Y175693D02*Y171693D01*
X216150Y173693D02*X217350Y171693D01*
X218550Y174893D02*X219350Y175693D01*
Y171693D01*
X218550D02*X220050D01*
X221250Y172193D02*X221750Y171693D01*
X221250Y175193D02*Y172193D01*
Y175193D02*X221750Y175693D01*
X222750D01*
X223250Y175193D01*
Y172193D01*
X222750Y171693D02*X223250Y172193D01*
X221750Y171693D02*X222750D01*
X221250Y172693D02*X223250Y174693D01*
X225464Y211650D02*X226764D01*
X224764Y212350D02*X225464Y211650D01*
X224764Y214950D02*Y212350D01*
Y214950D02*X225464Y215650D01*
X226764D01*
X227964Y214850D02*X228764Y215650D01*
Y211650D01*
X227964D02*X229464D01*
X230664Y212150D02*X231164Y211650D01*
X230664Y215150D02*Y212150D01*
Y215150D02*X231164Y215650D01*
X232164D01*
X232664Y215150D01*
Y212150D01*
X232164Y211650D02*X232664Y212150D01*
X231164Y211650D02*X232164D01*
X230664Y212650D02*X232664Y214650D01*
X226550Y188150D02*X227850D01*
X225850Y188850D02*X226550Y188150D01*
X225850Y191450D02*Y188850D01*
Y191450D02*X226550Y192150D01*
X227850D01*
X229550Y188150D02*X231050Y190150D01*
Y191650D02*Y190150D01*
X230550Y192150D02*X231050Y191650D01*
X229550Y192150D02*X230550D01*
X229050Y191650D02*X229550Y192150D01*
X229050Y191650D02*Y190650D01*
X229550Y190150D01*
X231050D01*
M02*
