G04 start of page 11 for group -4015 idx -4015 *
G04 Title: (unknown), toppaste *
G04 Creator: pcb 20140316 *
G04 CreationDate: Tue 26 Feb 2019 04:30:20 AM GMT UTC *
G04 For: railfan *
G04 Format: Gerber/RS-274X *
G04 PCB-Dimensions (mil): 3350.00 2300.00 *
G04 PCB-Coordinate-Origin: lower left *
%MOIN*%
%FSLAX25Y25*%
%LNTOPPASTE*%
%ADD117R,0.0330X0.0330*%
%ADD116R,0.0500X0.0500*%
%ADD115R,0.0630X0.0630*%
%ADD114R,0.0550X0.0550*%
%ADD113C,0.0001*%
%ADD112R,0.0945X0.0945*%
%ADD111R,0.0378X0.0378*%
%ADD110R,0.0787X0.0787*%
%ADD109R,0.0157X0.0157*%
%ADD108R,0.0440X0.0440*%
%ADD107R,0.0167X0.0167*%
%ADD106R,0.0512X0.0512*%
%ADD105R,0.0200X0.0200*%
G54D105*X75500Y129000D02*X82000D01*
X75500Y134000D02*X82000D01*
X75500Y139000D02*X82000D01*
X75500Y144000D02*X82000D01*
X55000D02*X61500D01*
X55000Y139000D02*X61500D01*
X55000Y134000D02*X61500D01*
X55000Y129000D02*X61500D01*
G54D106*X204457Y199393D02*Y198607D01*
X211543Y199393D02*Y198607D01*
X137043Y218893D02*Y218107D01*
X129957Y218893D02*Y218107D01*
X152543Y218893D02*Y218107D01*
X145457Y218893D02*Y218107D01*
X178957Y218893D02*Y218107D01*
X186043Y218893D02*Y218107D01*
X163457Y218893D02*Y218107D01*
X170543Y218893D02*Y218107D01*
X59957Y120393D02*Y119607D01*
X67043Y120393D02*Y119607D01*
G54D107*X202217Y80724D02*X204087D01*
X202217Y77575D02*X204087D01*
X202217Y74425D02*X204087D01*
X202217Y71276D02*X204087D01*
X208913D02*X210783D01*
X208913Y74425D02*X210783D01*
X208913Y77575D02*X210783D01*
X208913Y80724D02*X210783D01*
G54D108*X151000Y21150D02*Y15950D01*
X161000Y21150D02*Y15950D01*
X171000Y21150D02*Y15950D01*
X181000Y21150D02*Y15950D01*
X191000Y21150D02*Y15950D01*
X201000Y21150D02*Y15950D01*
X211000Y21150D02*Y15950D01*
X221000Y21150D02*Y15950D01*
X151000Y55050D02*Y49850D01*
X161000Y55050D02*Y49850D01*
X171000Y55050D02*Y49850D01*
X181000Y55050D02*Y49850D01*
X191000Y55050D02*Y49850D01*
X201000Y55050D02*Y49850D01*
X211000Y55050D02*Y49850D01*
X221000Y55050D02*Y49850D01*
X60000Y21150D02*Y15950D01*
X70000Y21150D02*Y15950D01*
X80000Y21150D02*Y15950D01*
X90000Y21150D02*Y15950D01*
X100000Y21150D02*Y15950D01*
X110000Y21150D02*Y15950D01*
X120000Y21150D02*Y15950D01*
X130000Y21150D02*Y15950D01*
X60000Y55050D02*Y49850D01*
X70000Y55050D02*Y49850D01*
X80000Y55050D02*Y49850D01*
X90000Y55050D02*Y49850D01*
X100000Y55050D02*Y49850D01*
X110000Y55050D02*Y49850D01*
X120000Y55050D02*Y49850D01*
X130000Y55050D02*Y49850D01*
G54D109*X156248Y122398D02*Y117972D01*
X153099Y122398D02*Y117972D01*
X149949Y122398D02*Y117972D01*
X146800Y122398D02*Y117972D01*
X143650Y122398D02*Y117972D01*
X140500Y122398D02*Y117972D01*
X137351Y122398D02*Y117972D01*
X134201Y122398D02*Y117972D01*
X131052Y122398D02*Y117972D01*
X127902Y122398D02*Y117972D01*
X124752Y122398D02*Y117972D01*
X113602Y111248D02*X118028D01*
X113602Y108099D02*X118028D01*
X113602Y104949D02*X118028D01*
X113602Y101800D02*X118028D01*
X113602Y98650D02*X118028D01*
X113602Y95500D02*X118028D01*
X113602Y92351D02*X118028D01*
X113602Y89201D02*X118028D01*
X113602Y86052D02*X118028D01*
X113602Y82902D02*X118028D01*
X113602Y79752D02*X118028D01*
X124752Y73028D02*Y68602D01*
X127901Y73028D02*Y68602D01*
X131051Y73028D02*Y68602D01*
X134200Y73028D02*Y68602D01*
X137350Y73028D02*Y68602D01*
X140500Y73028D02*Y68602D01*
X143649Y73028D02*Y68602D01*
X146799Y73028D02*Y68602D01*
X149948Y73028D02*Y68602D01*
X153098Y73028D02*Y68602D01*
X156248Y73028D02*Y68602D01*
X162972Y79752D02*X167398D01*
X162972Y82901D02*X167398D01*
X162972Y86051D02*X167398D01*
X162972Y89200D02*X167398D01*
X162972Y92350D02*X167398D01*
X162972Y95500D02*X167398D01*
X162972Y98649D02*X167398D01*
X162972Y101799D02*X167398D01*
X162972Y104948D02*X167398D01*
X162972Y108098D02*X167398D01*
X162972Y111248D02*X167398D01*
G54D106*X176107Y90457D02*X176893D01*
X176107Y97543D02*X176893D01*
X104107D02*X104893D01*
X104107Y90457D02*X104893D01*
X11457Y53393D02*Y52607D01*
X18543Y53393D02*Y52607D01*
Y41393D02*Y40607D01*
X11457Y41393D02*Y40607D01*
G54D110*X110409Y151000D02*X126157D01*
X145843D02*X161591D01*
G54D106*X147543Y134893D02*Y134107D01*
X140457Y134893D02*Y134107D01*
X124457Y134893D02*Y134107D01*
X131543Y134893D02*Y134107D01*
X137107Y174043D02*X137893D01*
X137107Y166957D02*X137893D01*
G54D111*X211890Y208594D02*X215984D01*
X204174Y214500D02*X215984D01*
G54D112*X200550D02*X202440D01*
G54D113*G36*
X205745Y211195D02*X208585Y214035D01*
X210005Y212615D01*
X207165Y209775D01*
X205745Y211195D01*
G37*
G36*
X207165Y219225D02*X210005Y216385D01*
X208585Y214965D01*
X205745Y217805D01*
X207165Y219225D01*
G37*
G54D111*X211890Y220406D02*X215984D01*
G54D105*X206500Y114000D02*X213000D01*
X206500Y119000D02*X213000D01*
X206500Y124000D02*X213000D01*
X206500Y129000D02*X213000D01*
X206500Y134000D02*X213000D01*
X206500Y139000D02*X213000D01*
X206500Y144000D02*X213000D01*
X186000D02*X192500D01*
X186000Y139000D02*X192500D01*
X186000Y134000D02*X192500D01*
X186000Y129000D02*X192500D01*
X186000Y124000D02*X192500D01*
X186000Y119000D02*X192500D01*
X186000Y114000D02*X192500D01*
G54D106*X203043Y104893D02*Y104107D01*
X195957Y104893D02*Y104107D01*
G54D114*X51500Y212500D02*Y210500D01*
X64500Y212500D02*Y210500D01*
X51500Y198000D02*Y196000D01*
X64500Y198000D02*Y196000D01*
G54D115*Y182992D02*Y176693D01*
Y163307D02*Y157008D01*
G54D107*X96575Y122783D02*Y120913D01*
X93425Y122783D02*Y120913D01*
Y116087D02*Y114217D01*
X96575Y116087D02*Y114217D01*
G54D116*X160000Y183504D02*Y174016D01*
X170000Y183504D02*Y174016D01*
X180000Y183504D02*Y174016D01*
Y200984D02*Y191496D01*
X170000Y200984D02*Y191496D01*
X160000Y200984D02*Y191496D01*
G54D106*X268043Y7393D02*Y6607D01*
X260957Y7393D02*Y6607D01*
X268043Y20393D02*Y19607D01*
X260957Y20393D02*Y19607D01*
X268043Y33393D02*Y32607D01*
X260957Y33393D02*Y32607D01*
X268043Y46393D02*Y45607D01*
X260957Y46393D02*Y45607D01*
G54D117*X242000Y214146D02*X244402D01*
X242000Y209224D02*X244402D01*
X242000Y204303D02*X244402D01*
X242000Y199382D02*X244402D01*
X242000Y194461D02*X244402D01*
X242000Y189539D02*X244402D01*
X242000Y184618D02*X244402D01*
X242000Y179697D02*X244402D01*
X242000Y174776D02*X244402D01*
X242000Y169854D02*X244402D01*
X242000Y164933D02*X244402D01*
X242000Y160012D02*X244402D01*
X251776Y155150D02*Y152752D01*
X256697Y155150D02*Y152752D01*
X261618Y155150D02*Y152752D01*
X266539Y155150D02*Y152752D01*
X271461Y155150D02*Y152752D01*
X276382Y155150D02*Y152752D01*
X281303Y155150D02*Y152752D01*
X286224Y155150D02*Y152752D01*
X293598Y160012D02*X296000D01*
X293598Y164933D02*X296000D01*
X293598Y169854D02*X296000D01*
X293598Y174776D02*X296000D01*
X293598Y179697D02*X296000D01*
X293598Y184618D02*X296000D01*
X293598Y189539D02*X296000D01*
X293598Y194461D02*X296000D01*
X293598Y199382D02*X296000D01*
X293598Y204303D02*X296000D01*
X293598Y209224D02*X296000D01*
X293598Y214146D02*X296000D01*
X293598Y219067D02*X296000D01*
X293598Y223988D02*X296000D01*
G54D106*X193957Y181393D02*Y180607D01*
X201043Y181393D02*Y180607D01*
X193957Y171393D02*Y170607D01*
X201043Y171393D02*Y170607D01*
X222543Y158893D02*Y158107D01*
X215457Y158893D02*Y158107D01*
X222543Y167893D02*Y167107D01*
X215457Y167893D02*Y167107D01*
X232043Y207393D02*Y206607D01*
X224957Y207393D02*Y206607D01*
X232043Y197393D02*Y196607D01*
X224957Y197393D02*Y196607D01*
G54D107*X321913Y137925D02*X323783D01*
X321913Y141075D02*X323783D01*
X315217D02*X317087D01*
X315217Y137925D02*X317087D01*
G54D106*X316107Y170543D02*X316893D01*
X316107Y163457D02*X316893D01*
X327107Y170543D02*X327893D01*
X327107Y163457D02*X327893D01*
X261457Y134893D02*Y134107D01*
X268543Y134893D02*Y134107D01*
M02*
