G04 start of page 13 for group -3984 idx -3984 *
G04 Title: (unknown), fab *
G04 Creator: pcb 20140316 *
G04 CreationDate: Sat 14 Dec 2019 03:47:05 AM GMT UTC *
G04 For: railfan *
G04 Format: Gerber/RS-274X *
G04 PCB-Dimensions (mil): 3350.00 2300.00 *
G04 PCB-Coordinate-Origin: lower left *
%MOIN*%
%FSLAX25Y25*%
%LNFAB*%
%ADD122C,0.0100*%
%ADD121C,0.0075*%
%ADD120C,0.0060*%
%ADD119R,0.0080X0.0080*%
%ADD118C,0.0001*%
G54D118*G36*
X14600Y19966D02*X19966Y14600D01*
X19400Y14034D01*
X14034Y19400D01*
X14600Y19966D01*
G37*
G36*
X14034Y14600D02*X19400Y19966D01*
X19966Y19400D01*
X14600Y14034D01*
X14034Y14600D01*
G37*
G54D119*X15400Y18600D02*X18600D01*
X15400D02*Y15400D01*
X18600D01*
Y18600D02*Y15400D01*
G54D118*G36*
X14600Y215966D02*X19966Y210600D01*
X19400Y210034D01*
X14034Y215400D01*
X14600Y215966D01*
G37*
G36*
X14034Y210600D02*X19400Y215966D01*
X19966Y215400D01*
X14600Y210034D01*
X14034Y210600D01*
G37*
G54D119*X15400Y214600D02*X18600D01*
X15400D02*Y211400D01*
X18600D01*
Y214600D02*Y211400D01*
G54D118*G36*
X315600Y215966D02*X320966Y210600D01*
X320400Y210034D01*
X315034Y215400D01*
X315600Y215966D01*
G37*
G36*
X315034Y210600D02*X320400Y215966D01*
X320966Y215400D01*
X315600Y210034D01*
X315034Y210600D01*
G37*
G54D119*X316400Y214600D02*X319600D01*
X316400D02*Y211400D01*
X319600D01*
Y214600D02*Y211400D01*
G54D118*G36*
X315600Y19966D02*X320966Y14600D01*
X320400Y14034D01*
X315034Y19400D01*
X315600Y19966D01*
G37*
G36*
X315034Y14600D02*X320400Y19966D01*
X320966Y19400D01*
X315600Y14034D01*
X315034Y14600D01*
G37*
G54D119*X316400Y18600D02*X319600D01*
X316400D02*Y15400D01*
X319600D01*
Y18600D02*Y15400D01*
G54D118*G36*
X12600Y244216D02*X17966Y238850D01*
X17400Y238284D01*
X12034Y243650D01*
X12600Y244216D01*
G37*
G36*
X12034Y238850D02*X17400Y244216D01*
X17966Y243650D01*
X12600Y238284D01*
X12034Y238850D01*
G37*
G54D119*X13400Y242850D02*X16600D01*
X13400D02*Y239650D01*
X16600D01*
Y242850D02*Y239650D01*
G54D120*X135000Y243500D02*X136500Y240500D01*
X138000Y243500D01*
X136500Y240500D02*Y237500D01*
X139800Y240800D02*X142050D01*
X139800Y237500D02*X142800D01*
X139800Y243500D02*Y237500D01*
Y243500D02*X142800D01*
X147600D02*X148350Y242750D01*
X145350Y243500D02*X147600D01*
X144600Y242750D02*X145350Y243500D01*
X144600Y242750D02*Y241250D01*
X145350Y240500D01*
X147600D01*
X148350Y239750D01*
Y238250D01*
X147600Y237500D02*X148350Y238250D01*
X145350Y237500D02*X147600D01*
X144600Y238250D02*X145350Y237500D01*
X98000Y239750D02*X101000Y243500D01*
X98000Y239750D02*X101750D01*
X101000Y243500D02*Y237500D01*
X45000Y238250D02*X45750Y237500D01*
X45000Y242750D02*Y238250D01*
Y242750D02*X45750Y243500D01*
X47250D01*
X48000Y242750D01*
Y238250D01*
X47250Y237500D02*X48000Y238250D01*
X45750Y237500D02*X47250D01*
X45000Y239000D02*X48000Y242000D01*
X49800Y237500D02*X50550D01*
X52350Y242300D02*X53550Y243500D01*
Y237500D01*
X52350D02*X54600D01*
X56400Y242750D02*X57150Y243500D01*
X59400D01*
X60150Y242750D01*
Y241250D01*
X56400Y237500D02*X60150Y241250D01*
X56400Y237500D02*X60150D01*
X62700D02*X64950Y240500D01*
Y242750D02*Y240500D01*
X64200Y243500D02*X64950Y242750D01*
X62700Y243500D02*X64200D01*
X61950Y242750D02*X62700Y243500D01*
X61950Y242750D02*Y241250D01*
X62700Y240500D01*
X64950D01*
X32000Y109200D02*Y102800D01*
X28800Y106000D02*X35200D01*
X30400Y107600D02*X33600D01*
X30400D02*Y104400D01*
X33600D01*
Y107600D02*Y104400D01*
X32000Y69200D02*Y62800D01*
X28800Y66000D02*X35200D01*
X30400Y67600D02*X33600D01*
X30400D02*Y64400D01*
X33600D01*
Y67600D02*Y64400D01*
X15000Y259450D02*Y253050D01*
X11800Y256250D02*X18200D01*
X13400Y257850D02*X16600D01*
X13400D02*Y254650D01*
X16600D01*
Y257850D02*Y254650D01*
X135000Y258500D02*X136500Y255500D01*
X138000Y258500D01*
X136500Y255500D02*Y252500D01*
X139800Y255800D02*X142050D01*
X139800Y252500D02*X142800D01*
X139800Y258500D02*Y252500D01*
Y258500D02*X142800D01*
X147600D02*X148350Y257750D01*
X145350Y258500D02*X147600D01*
X144600Y257750D02*X145350Y258500D01*
X144600Y257750D02*Y256250D01*
X145350Y255500D01*
X147600D01*
X148350Y254750D01*
Y253250D01*
X147600Y252500D02*X148350Y253250D01*
X145350Y252500D02*X147600D01*
X144600Y253250D02*X145350Y252500D01*
X98000Y257750D02*X98750Y258500D01*
X101000D01*
X101750Y257750D01*
Y256250D01*
X98000Y252500D02*X101750Y256250D01*
X98000Y252500D02*X101750D01*
X45000Y253250D02*X45750Y252500D01*
X45000Y257750D02*Y253250D01*
Y257750D02*X45750Y258500D01*
X47250D01*
X48000Y257750D01*
Y253250D01*
X47250Y252500D02*X48000Y253250D01*
X45750Y252500D02*X47250D01*
X45000Y254000D02*X48000Y257000D01*
X49800Y252500D02*X50550D01*
X52350Y257300D02*X53550Y258500D01*
Y252500D01*
X52350D02*X54600D01*
X56400Y257750D02*X57150Y258500D01*
X59400D01*
X60150Y257750D01*
Y256250D01*
X56400Y252500D02*X60150Y256250D01*
X56400Y252500D02*X60150D01*
X61950Y253250D02*X62700Y252500D01*
X61950Y254450D02*Y253250D01*
Y254450D02*X63000Y255500D01*
X63900D01*
X64950Y254450D01*
Y253250D01*
X64200Y252500D02*X64950Y253250D01*
X62700Y252500D02*X64200D01*
X61950Y256550D02*X63000Y255500D01*
X61950Y257750D02*Y256550D01*
Y257750D02*X62700Y258500D01*
X64200D01*
X64950Y257750D01*
Y256550D01*
X63900Y255500D02*X64950Y256550D01*
X284500Y133000D02*Y129800D01*
Y133000D02*X287273Y134600D01*
X284500Y133000D02*X281727Y134600D01*
X282900Y133000D02*G75*G03X286100Y133000I1600J0D01*G01*
G75*G03X282900Y133000I-1600J0D01*G01*
X297000D02*Y129800D01*
Y133000D02*X299773Y134600D01*
X297000Y133000D02*X294227Y134600D01*
X295400Y133000D02*G75*G03X298600Y133000I1600J0D01*G01*
G75*G03X295400Y133000I-1600J0D01*G01*
X297000Y113000D02*Y109800D01*
Y113000D02*X299773Y114600D01*
X297000Y113000D02*X294227Y114600D01*
X295400Y113000D02*G75*G03X298600Y113000I1600J0D01*G01*
G75*G03X295400Y113000I-1600J0D01*G01*
X284500D02*Y109800D01*
Y113000D02*X287273Y114600D01*
X284500Y113000D02*X281727Y114600D01*
X282900Y113000D02*G75*G03X286100Y113000I1600J0D01*G01*
G75*G03X282900Y113000I-1600J0D01*G01*
X15000Y271250D02*Y268050D01*
Y271250D02*X17773Y272850D01*
X15000Y271250D02*X12227Y272850D01*
X13400Y271250D02*G75*G03X16600Y271250I1600J0D01*G01*
G75*G03X13400Y271250I-1600J0D01*G01*
X140000Y273500D02*Y267500D01*
Y273500D02*X143750Y267500D01*
Y273500D02*Y267500D01*
X145550Y272750D02*Y268250D01*
Y272750D02*X146300Y273500D01*
X147800D01*
X148550Y272750D01*
Y268250D01*
X147800Y267500D02*X148550Y268250D01*
X146300Y267500D02*X147800D01*
X145550Y268250D02*X146300Y267500D01*
X98000Y269750D02*X101000Y273500D01*
X98000Y269750D02*X101750D01*
X101000Y273500D02*Y267500D01*
X45000Y268250D02*X45750Y267500D01*
X45000Y272750D02*Y268250D01*
Y272750D02*X45750Y273500D01*
X47250D01*
X48000Y272750D01*
Y268250D01*
X47250Y267500D02*X48000Y268250D01*
X45750Y267500D02*X47250D01*
X45000Y269000D02*X48000Y272000D01*
X49800Y267500D02*X50550D01*
X52350Y268250D02*X53100Y267500D01*
X52350Y272750D02*Y268250D01*
Y272750D02*X53100Y273500D01*
X54600D01*
X55350Y272750D01*
Y268250D01*
X54600Y267500D02*X55350Y268250D01*
X53100Y267500D02*X54600D01*
X52350Y269000D02*X55350Y272000D01*
X57900Y267500D02*X60150Y270500D01*
Y272750D02*Y270500D01*
X59400Y273500D02*X60150Y272750D01*
X57900Y273500D02*X59400D01*
X57150Y272750D02*X57900Y273500D01*
X57150Y272750D02*Y271250D01*
X57900Y270500D01*
X60150D01*
X61950Y269750D02*X64950Y273500D01*
X61950Y269750D02*X65700D01*
X64950Y273500D02*Y267500D01*
X20400Y146600D02*X23600D01*
X20400D02*Y143400D01*
X23600D01*
Y146600D02*Y143400D01*
X20400Y126600D02*X23600D01*
X20400D02*Y123400D01*
X23600D01*
Y126600D02*Y123400D01*
X20400Y186600D02*X23600D01*
X20400D02*Y183400D01*
X23600D01*
Y186600D02*Y183400D01*
X20400Y166600D02*X23600D01*
X20400D02*Y163400D01*
X23600D01*
Y166600D02*Y163400D01*
X13400Y287850D02*X16600D01*
X13400D02*Y284650D01*
X16600D01*
Y287850D02*Y284650D01*
X135000Y288500D02*X136500Y285500D01*
X138000Y288500D01*
X136500Y285500D02*Y282500D01*
X139800Y285800D02*X142050D01*
X139800Y282500D02*X142800D01*
X139800Y288500D02*Y282500D01*
Y288500D02*X142800D01*
X147600D02*X148350Y287750D01*
X145350Y288500D02*X147600D01*
X144600Y287750D02*X145350Y288500D01*
X144600Y287750D02*Y286250D01*
X145350Y285500D01*
X147600D01*
X148350Y284750D01*
Y283250D01*
X147600Y282500D02*X148350Y283250D01*
X145350Y282500D02*X147600D01*
X144600Y283250D02*X145350Y282500D01*
X98000Y284750D02*X101000Y288500D01*
X98000Y284750D02*X101750D01*
X101000Y288500D02*Y282500D01*
X45000Y283250D02*X45750Y282500D01*
X45000Y287750D02*Y283250D01*
Y287750D02*X45750Y288500D01*
X47250D01*
X48000Y287750D01*
Y283250D01*
X47250Y282500D02*X48000Y283250D01*
X45750Y282500D02*X47250D01*
X45000Y284000D02*X48000Y287000D01*
X49800Y282500D02*X50550D01*
X52350Y283250D02*X53100Y282500D01*
X52350Y287750D02*Y283250D01*
Y287750D02*X53100Y288500D01*
X54600D01*
X55350Y287750D01*
Y283250D01*
X54600Y282500D02*X55350Y283250D01*
X53100Y282500D02*X54600D01*
X52350Y284000D02*X55350Y287000D01*
X57150Y284750D02*X60150Y288500D01*
X57150Y284750D02*X60900D01*
X60150Y288500D02*Y282500D01*
X62700Y283250D02*X63450Y282500D01*
X62700Y284450D02*Y283250D01*
Y284450D02*X63750Y285500D01*
X64650D01*
X65700Y284450D01*
Y283250D01*
X64950Y282500D02*X65700Y283250D01*
X63450Y282500D02*X64950D01*
X62700Y286550D02*X63750Y285500D01*
X62700Y287750D02*Y286550D01*
Y287750D02*X63450Y288500D01*
X64950D01*
X65700Y287750D01*
Y286550D01*
X64650Y285500D02*X65700Y286550D01*
X114700Y173000D02*G75*G03X116300Y173000I800J0D01*G01*
G75*G03X114700Y173000I-800J0D01*G01*
X104700D02*G75*G03X106300Y173000I800J0D01*G01*
G75*G03X104700Y173000I-800J0D01*G01*
X94700D02*G75*G03X96300Y173000I800J0D01*G01*
G75*G03X94700Y173000I-800J0D01*G01*
X14200Y301250D02*G75*G03X15800Y301250I800J0D01*G01*
G75*G03X14200Y301250I-800J0D01*G01*
X135000Y303500D02*X136500Y300500D01*
X138000Y303500D01*
X136500Y300500D02*Y297500D01*
X139800Y300800D02*X142050D01*
X139800Y297500D02*X142800D01*
X139800Y303500D02*Y297500D01*
Y303500D02*X142800D01*
X147600D02*X148350Y302750D01*
X145350Y303500D02*X147600D01*
X144600Y302750D02*X145350Y303500D01*
X144600Y302750D02*Y301250D01*
X145350Y300500D01*
X147600D01*
X148350Y299750D01*
Y298250D01*
X147600Y297500D02*X148350Y298250D01*
X145350Y297500D02*X147600D01*
X144600Y298250D02*X145350Y297500D01*
X98000Y302750D02*X98750Y303500D01*
X100250D01*
X101000Y302750D01*
X100250Y297500D02*X101000Y298250D01*
X98750Y297500D02*X100250D01*
X98000Y298250D02*X98750Y297500D01*
Y300800D02*X100250D01*
X101000Y302750D02*Y301550D01*
Y300050D02*Y298250D01*
Y300050D02*X100250Y300800D01*
X101000Y301550D02*X100250Y300800D01*
X45000Y298250D02*X45750Y297500D01*
X45000Y302750D02*Y298250D01*
Y302750D02*X45750Y303500D01*
X47250D01*
X48000Y302750D01*
Y298250D01*
X47250Y297500D02*X48000Y298250D01*
X45750Y297500D02*X47250D01*
X45000Y299000D02*X48000Y302000D01*
X49800Y297500D02*X50550D01*
X52350Y298250D02*X53100Y297500D01*
X52350Y302750D02*Y298250D01*
Y302750D02*X53100Y303500D01*
X54600D01*
X55350Y302750D01*
Y298250D01*
X54600Y297500D02*X55350Y298250D01*
X53100Y297500D02*X54600D01*
X52350Y299000D02*X55350Y302000D01*
X57150Y299750D02*X60150Y303500D01*
X57150Y299750D02*X60900D01*
X60150Y303500D02*Y297500D01*
X62700Y303500D02*X65700D01*
X62700D02*Y300500D01*
X63450Y301250D01*
X64950D01*
X65700Y300500D01*
Y298250D01*
X64950Y297500D02*X65700Y298250D01*
X63450Y297500D02*X64950D01*
X62700Y298250D02*X63450Y297500D01*
X283300Y124200D02*X285700Y121800D01*
X283300D02*X285700Y124200D01*
X303300Y128200D02*X305700Y125800D01*
X303300D02*X305700Y128200D01*
X303300Y120200D02*X305700Y117800D01*
X303300D02*X305700Y120200D01*
X13800Y317450D02*X16200Y315050D01*
X13800D02*X16200Y317450D01*
X140000Y318500D02*Y312500D01*
Y318500D02*X143750Y312500D01*
Y318500D02*Y312500D01*
X145550Y317750D02*Y313250D01*
Y317750D02*X146300Y318500D01*
X147800D01*
X148550Y317750D01*
Y313250D01*
X147800Y312500D02*X148550Y313250D01*
X146300Y312500D02*X147800D01*
X145550Y313250D02*X146300Y312500D01*
X98000Y317750D02*X98750Y318500D01*
X100250D01*
X101000Y317750D01*
X100250Y312500D02*X101000Y313250D01*
X98750Y312500D02*X100250D01*
X98000Y313250D02*X98750Y312500D01*
Y315800D02*X100250D01*
X101000Y317750D02*Y316550D01*
Y315050D02*Y313250D01*
Y315050D02*X100250Y315800D01*
X101000Y316550D02*X100250Y315800D01*
X45000Y313250D02*X45750Y312500D01*
X45000Y317750D02*Y313250D01*
Y317750D02*X45750Y318500D01*
X47250D01*
X48000Y317750D01*
Y313250D01*
X47250Y312500D02*X48000Y313250D01*
X45750Y312500D02*X47250D01*
X45000Y314000D02*X48000Y317000D01*
X49800Y312500D02*X50550D01*
X52350Y313250D02*X53100Y312500D01*
X52350Y317750D02*Y313250D01*
Y317750D02*X53100Y318500D01*
X54600D01*
X55350Y317750D01*
Y313250D01*
X54600Y312500D02*X55350Y313250D01*
X53100Y312500D02*X54600D01*
X52350Y314000D02*X55350Y317000D01*
X57150Y317750D02*X57900Y318500D01*
X59400D01*
X60150Y317750D01*
X59400Y312500D02*X60150Y313250D01*
X57900Y312500D02*X59400D01*
X57150Y313250D02*X57900Y312500D01*
Y315800D02*X59400D01*
X60150Y317750D02*Y316550D01*
Y315050D02*Y313250D01*
Y315050D02*X59400Y315800D01*
X60150Y316550D02*X59400Y315800D01*
X62700Y312500D02*X64950Y315500D01*
Y317750D02*Y315500D01*
X64200Y318500D02*X64950Y317750D01*
X62700Y318500D02*X64200D01*
X61950Y317750D02*X62700Y318500D01*
X61950Y317750D02*Y316250D01*
X62700Y315500D01*
X64950D01*
X67000Y100100D02*Y96900D01*
X65400Y98500D02*X68600D01*
X57000Y95100D02*Y91900D01*
X55400Y93500D02*X58600D01*
X67000Y90100D02*Y86900D01*
X65400Y88500D02*X68600D01*
X57000Y85100D02*Y81900D01*
X55400Y83500D02*X58600D01*
X67000Y80100D02*Y76900D01*
X65400Y78500D02*X68600D01*
X57000Y75100D02*Y71900D01*
X55400Y73500D02*X58600D01*
X15000Y332850D02*Y329650D01*
X13400Y331250D02*X16600D01*
X135000Y333500D02*X136500Y330500D01*
X138000Y333500D01*
X136500Y330500D02*Y327500D01*
X139800Y330800D02*X142050D01*
X139800Y327500D02*X142800D01*
X139800Y333500D02*Y327500D01*
Y333500D02*X142800D01*
X147600D02*X148350Y332750D01*
X145350Y333500D02*X147600D01*
X144600Y332750D02*X145350Y333500D01*
X144600Y332750D02*Y331250D01*
X145350Y330500D01*
X147600D01*
X148350Y329750D01*
Y328250D01*
X147600Y327500D02*X148350Y328250D01*
X145350Y327500D02*X147600D01*
X144600Y328250D02*X145350Y327500D01*
X100250Y333500D02*X101000Y332750D01*
X98750Y333500D02*X100250D01*
X98000Y332750D02*X98750Y333500D01*
X98000Y332750D02*Y328250D01*
X98750Y327500D01*
X100250Y330800D02*X101000Y330050D01*
X98000Y330800D02*X100250D01*
X98750Y327500D02*X100250D01*
X101000Y328250D01*
Y330050D02*Y328250D01*
X45000D02*X45750Y327500D01*
X45000Y332750D02*Y328250D01*
Y332750D02*X45750Y333500D01*
X47250D01*
X48000Y332750D01*
Y328250D01*
X47250Y327500D02*X48000Y328250D01*
X45750Y327500D02*X47250D01*
X45000Y329000D02*X48000Y332000D01*
X49800Y327500D02*X50550D01*
X52350Y328250D02*X53100Y327500D01*
X52350Y332750D02*Y328250D01*
Y332750D02*X53100Y333500D01*
X54600D01*
X55350Y332750D01*
Y328250D01*
X54600Y327500D02*X55350Y328250D01*
X53100Y327500D02*X54600D01*
X52350Y329000D02*X55350Y332000D01*
X57150Y332750D02*X57900Y333500D01*
X59400D01*
X60150Y332750D01*
X59400Y327500D02*X60150Y328250D01*
X57900Y327500D02*X59400D01*
X57150Y328250D02*X57900Y327500D01*
Y330800D02*X59400D01*
X60150Y332750D02*Y331550D01*
Y330050D02*Y328250D01*
Y330050D02*X59400Y330800D01*
X60150Y331550D02*X59400Y330800D01*
X61950Y328250D02*X62700Y327500D01*
X61950Y332750D02*Y328250D01*
Y332750D02*X62700Y333500D01*
X64200D01*
X64950Y332750D01*
Y328250D01*
X64200Y327500D02*X64950Y328250D01*
X62700Y327500D02*X64200D01*
X61950Y329000D02*X64950Y332000D01*
X158000Y220000D02*Y218400D01*
Y220000D02*X159387Y220800D01*
X158000Y220000D02*X156613Y220800D01*
X158000Y217000D02*Y215400D01*
Y217000D02*X159387Y217800D01*
X158000Y217000D02*X156613Y217800D01*
X140500Y115000D02*Y113400D01*
Y115000D02*X141887Y115800D01*
X140500Y115000D02*X139113Y115800D01*
X121000Y92351D02*Y90751D01*
Y92351D02*X122387Y93151D01*
X121000Y92351D02*X119613Y93151D01*
X160000Y95500D02*Y93900D01*
Y95500D02*X161387Y96300D01*
X160000Y95500D02*X158613Y96300D01*
X140500Y76000D02*Y74400D01*
Y76000D02*X141887Y76800D01*
X140500Y76000D02*X139113Y76800D01*
X138000Y18500D02*Y16900D01*
Y18500D02*X139387Y19300D01*
X138000Y18500D02*X136613Y19300D01*
X143000Y18500D02*Y16900D01*
Y18500D02*X144387Y19300D01*
X143000Y18500D02*X141613Y19300D01*
X136000Y133000D02*Y131400D01*
Y133000D02*X137387Y133800D01*
X136000Y133000D02*X134613Y133800D01*
X136000Y136000D02*Y134400D01*
Y136000D02*X137387Y136800D01*
X136000Y136000D02*X134613Y136800D01*
X152000Y144500D02*Y142900D01*
Y144500D02*X153387Y145300D01*
X152000Y144500D02*X150613Y145300D01*
X155500Y144500D02*Y142900D01*
Y144500D02*X156887Y145300D01*
X155500Y144500D02*X154113Y145300D01*
X159000Y144500D02*Y142900D01*
Y144500D02*X160387Y145300D01*
X159000Y144500D02*X157613Y145300D01*
X162500Y144500D02*Y142900D01*
Y144500D02*X163887Y145300D01*
X162500Y144500D02*X161113Y145300D01*
X122500Y110500D02*Y108900D01*
Y110500D02*X123887Y111300D01*
X122500Y110500D02*X121113Y111300D01*
X124500Y107500D02*Y105900D01*
Y107500D02*X125887Y108300D01*
X124500Y107500D02*X123113Y108300D01*
X122500Y104500D02*Y102900D01*
Y104500D02*X123887Y105300D01*
X122500Y104500D02*X121113Y105300D01*
X122500Y116500D02*Y114900D01*
Y116500D02*X123887Y117300D01*
X122500Y116500D02*X121113Y117300D01*
X70000Y161500D02*Y159900D01*
Y161500D02*X71387Y162300D01*
X70000Y161500D02*X68613Y162300D01*
X70000Y164500D02*Y162900D01*
Y164500D02*X71387Y165300D01*
X70000Y164500D02*X68613Y165300D01*
X70000Y158500D02*Y156900D01*
Y158500D02*X71387Y159300D01*
X70000Y158500D02*X68613Y159300D01*
X70000Y155500D02*Y153900D01*
Y155500D02*X71387Y156300D01*
X70000Y155500D02*X68613Y156300D01*
X77500Y114500D02*Y112900D01*
Y114500D02*X78887Y115300D01*
X77500Y114500D02*X76113Y115300D01*
X77500Y101000D02*Y99400D01*
Y101000D02*X78887Y101800D01*
X77500Y101000D02*X76113Y101800D01*
X88000Y126000D02*Y124400D01*
Y126000D02*X89387Y126800D01*
X88000Y126000D02*X86613Y126800D01*
X88000Y132000D02*Y130400D01*
Y132000D02*X89387Y132800D01*
X88000Y132000D02*X86613Y132800D01*
X96575Y132000D02*Y130400D01*
Y132000D02*X97962Y132800D01*
X96575Y132000D02*X95188Y132800D01*
X216000Y134000D02*Y132400D01*
Y134000D02*X217387Y134800D01*
X216000Y134000D02*X214613Y134800D01*
X216000Y129000D02*Y127400D01*
Y129000D02*X217387Y129800D01*
X216000Y129000D02*X214613Y129800D01*
X216000Y124000D02*Y122400D01*
Y124000D02*X217387Y124800D01*
X216000Y124000D02*X214613Y124800D01*
X216000Y119000D02*Y117400D01*
Y119000D02*X217387Y119800D01*
X216000Y119000D02*X214613Y119800D01*
X227000Y119000D02*Y117400D01*
Y119000D02*X228387Y119800D01*
X227000Y119000D02*X225613Y119800D01*
X224000Y124000D02*Y122400D01*
Y124000D02*X225387Y124800D01*
X224000Y124000D02*X222613Y124800D01*
X199500Y129000D02*Y127400D01*
Y129000D02*X200887Y129800D01*
X199500Y129000D02*X198113Y129800D01*
X202000Y131000D02*Y129400D01*
Y131000D02*X203387Y131800D01*
X202000Y131000D02*X200613Y131800D01*
X202000Y127000D02*Y125400D01*
Y127000D02*X203387Y127800D01*
X202000Y127000D02*X200613Y127800D01*
X197000Y127000D02*Y125400D01*
Y127000D02*X198387Y127800D01*
X197000Y127000D02*X195613Y127800D01*
X197000Y131000D02*Y129400D01*
Y131000D02*X198387Y131800D01*
X197000Y131000D02*X195613Y131800D01*
X68500Y136500D02*Y134900D01*
Y136500D02*X69887Y137300D01*
X68500Y136500D02*X67113Y137300D01*
X71000Y138500D02*Y136900D01*
Y138500D02*X72387Y139300D01*
X71000Y138500D02*X69613Y139300D01*
X71000Y134500D02*Y132900D01*
Y134500D02*X72387Y135300D01*
X71000Y134500D02*X69613Y135300D01*
X66000Y134500D02*Y132900D01*
Y134500D02*X67387Y135300D01*
X66000Y134500D02*X64613Y135300D01*
X66000Y138500D02*Y136900D01*
Y138500D02*X67387Y139300D01*
X66000Y138500D02*X64613Y139300D01*
X96575Y126000D02*Y124400D01*
Y126000D02*X97962Y126800D01*
X96575Y126000D02*X95188Y126800D01*
X89500Y115152D02*Y113552D01*
Y115152D02*X90887Y115952D01*
X89500Y115152D02*X88113Y115952D01*
X169500Y117500D02*Y115900D01*
Y117500D02*X170887Y118300D01*
X169500Y117500D02*X168113Y118300D01*
X169500Y123500D02*Y121900D01*
Y123500D02*X170887Y124300D01*
X169500Y123500D02*X168113Y124300D01*
X171500Y120500D02*Y118900D01*
Y120500D02*X172887Y121300D01*
X171500Y120500D02*X170113Y121300D01*
X171500Y126500D02*Y124900D01*
Y126500D02*X172887Y127300D01*
X171500Y126500D02*X170113Y127300D01*
X113500Y162000D02*Y160400D01*
Y162000D02*X114887Y162800D01*
X113500Y162000D02*X112113Y162800D01*
X117000Y162000D02*Y160400D01*
Y162000D02*X118387Y162800D01*
X117000Y162000D02*X115613Y162800D01*
X120500Y162000D02*Y160400D01*
Y162000D02*X121887Y162800D01*
X120500Y162000D02*X119113Y162800D01*
X124000Y162000D02*Y160400D01*
Y162000D02*X125387Y162800D01*
X124000Y162000D02*X122613Y162800D01*
X127500Y162000D02*Y160400D01*
Y162000D02*X128887Y162800D01*
X127500Y162000D02*X126113Y162800D01*
X131000Y162000D02*Y160400D01*
Y162000D02*X132387Y162800D01*
X131000Y162000D02*X129613Y162800D01*
X160000Y169500D02*Y167900D01*
Y169500D02*X161387Y170300D01*
X160000Y169500D02*X158613Y170300D01*
X170000Y169500D02*Y167900D01*
Y169500D02*X171387Y170300D01*
X170000Y169500D02*X168613Y170300D01*
X180000Y169500D02*Y167900D01*
Y169500D02*X181387Y170300D01*
X180000Y169500D02*X178613Y170300D01*
X165000Y169500D02*Y167900D01*
Y169500D02*X166387Y170300D01*
X165000Y169500D02*X163613Y170300D01*
X187000Y201500D02*Y199900D01*
Y201500D02*X188387Y202300D01*
X187000Y201500D02*X185613Y202300D01*
X187000Y198000D02*Y196400D01*
Y198000D02*X188387Y198800D01*
X187000Y198000D02*X185613Y198800D01*
X187000Y194500D02*Y192900D01*
Y194500D02*X188387Y195300D01*
X187000Y194500D02*X185613Y195300D01*
X187000Y191000D02*Y189400D01*
Y191000D02*X188387Y191800D01*
X187000Y191000D02*X185613Y191800D01*
X268000Y13500D02*Y11900D01*
Y13500D02*X269387Y14300D01*
X268000Y13500D02*X266613Y14300D01*
X268000Y26500D02*Y24900D01*
Y26500D02*X269387Y27300D01*
X268000Y26500D02*X266613Y27300D01*
X268000Y39500D02*Y37900D01*
Y39500D02*X269387Y40300D01*
X268000Y39500D02*X266613Y40300D01*
X220000Y204000D02*Y202400D01*
Y204000D02*X221387Y204800D01*
X220000Y204000D02*X218613Y204800D01*
X216500Y204000D02*Y202400D01*
Y204000D02*X217887Y204800D01*
X216500Y204000D02*X215113Y204800D01*
X216500Y200500D02*Y198900D01*
Y200500D02*X217887Y201300D01*
X216500Y200500D02*X215113Y201300D01*
X220000Y200500D02*Y198900D01*
Y200500D02*X221387Y201300D01*
X220000Y200500D02*X218613Y201300D01*
X216500Y197000D02*Y195400D01*
Y197000D02*X217887Y197800D01*
X216500Y197000D02*X215113Y197800D01*
X220000Y197000D02*Y195400D01*
Y197000D02*X221387Y197800D01*
X220000Y197000D02*X218613Y197800D01*
X220000Y193500D02*Y191900D01*
Y193500D02*X221387Y194300D01*
X220000Y193500D02*X218613Y194300D01*
X216500Y193500D02*Y191900D01*
Y193500D02*X217887Y194300D01*
X216500Y193500D02*X215113Y194300D01*
X216500Y190000D02*Y188400D01*
Y190000D02*X217887Y190800D01*
X216500Y190000D02*X215113Y190800D01*
X220000Y190000D02*Y188400D01*
Y190000D02*X221387Y190800D01*
X220000Y190000D02*X218613Y190800D01*
X220000Y186500D02*Y184900D01*
Y186500D02*X221387Y187300D01*
X220000Y186500D02*X218613Y187300D01*
X216500Y186500D02*Y184900D01*
Y186500D02*X217887Y187300D01*
X216500Y186500D02*X215113Y187300D01*
X213000Y193500D02*Y191900D01*
Y193500D02*X214387Y194300D01*
X213000Y193500D02*X211613Y194300D01*
X213000Y190000D02*Y188400D01*
Y190000D02*X214387Y190800D01*
X213000Y190000D02*X211613Y190800D01*
X213000Y186500D02*Y184900D01*
Y186500D02*X214387Y187300D01*
X213000Y186500D02*X211613Y187300D01*
X238500Y169854D02*Y168254D01*
Y169854D02*X239887Y170654D01*
X238500Y169854D02*X237113Y170654D01*
X238500Y160012D02*Y158412D01*
Y160012D02*X239887Y160812D01*
X238500Y160012D02*X237113Y160812D01*
X238500Y214146D02*Y212546D01*
Y214146D02*X239887Y214946D01*
X238500Y214146D02*X237113Y214946D01*
X299500Y223988D02*Y222388D01*
Y223988D02*X300887Y224788D01*
X299500Y223988D02*X298113Y224788D01*
X299500Y214146D02*Y212546D01*
Y214146D02*X300887Y214946D01*
X299500Y214146D02*X298113Y214946D01*
X299500Y160012D02*Y158412D01*
Y160012D02*X300887Y160812D01*
X299500Y160012D02*X298113Y160812D01*
X305500Y154000D02*Y152400D01*
Y154000D02*X306887Y154800D01*
X305500Y154000D02*X304113Y154800D01*
X210000Y151500D02*Y149900D01*
Y151500D02*X211387Y152300D01*
X210000Y151500D02*X208613Y152300D01*
X234000Y129500D02*Y127900D01*
Y129500D02*X235387Y130300D01*
X234000Y129500D02*X232613Y130300D01*
X242500Y133000D02*Y131400D01*
Y133000D02*X243887Y133800D01*
X242500Y133000D02*X241113Y133800D01*
X242500Y129500D02*Y127900D01*
Y129500D02*X243887Y130300D01*
X242500Y129500D02*X241113Y130300D01*
X226500Y135000D02*Y133400D01*
Y135000D02*X227887Y135800D01*
X226500Y135000D02*X225113Y135800D01*
X223500Y149000D02*Y147400D01*
Y149000D02*X224887Y149800D01*
X223500Y149000D02*X222113Y149800D01*
X242500Y125000D02*Y123400D01*
Y125000D02*X243887Y125800D01*
X242500Y125000D02*X241113Y125800D01*
X243500Y140500D02*Y138900D01*
Y140500D02*X244887Y141300D01*
X243500Y140500D02*X242113Y141300D01*
X243500Y150500D02*Y148900D01*
Y150500D02*X244887Y151300D01*
X243500Y150500D02*X242113Y151300D01*
X322000Y170500D02*Y168900D01*
Y170500D02*X323387Y171300D01*
X322000Y170500D02*X320613Y171300D01*
X299500Y151000D02*Y149400D01*
Y151000D02*X300887Y151800D01*
X299500Y151000D02*X298113Y151800D01*
X310000Y149500D02*Y147900D01*
Y149500D02*X311387Y150300D01*
X310000Y149500D02*X308613Y150300D01*
X305500Y145000D02*Y143400D01*
Y145000D02*X306887Y145800D01*
X305500Y145000D02*X304113Y145800D01*
X305700Y133000D02*Y131400D01*
Y133000D02*X307087Y133800D01*
X305700Y133000D02*X304313Y133800D01*
X290800Y141000D02*Y139400D01*
Y141000D02*X292187Y141800D01*
X290800Y141000D02*X289413Y141800D01*
X291300Y108000D02*Y106400D01*
Y108000D02*X292687Y108800D01*
X291300Y108000D02*X289913Y108800D01*
X225500Y152500D02*Y150900D01*
Y152500D02*X226887Y153300D01*
X225500Y152500D02*X224113Y153300D01*
X233000Y152500D02*Y150900D01*
Y152500D02*X234387Y153300D01*
X233000Y152500D02*X231613Y153300D01*
X229500Y133000D02*Y131400D01*
Y133000D02*X230887Y133800D01*
X229500Y133000D02*X228113Y133800D01*
X256500Y136000D02*Y134400D01*
Y136000D02*X257887Y136800D01*
X256500Y136000D02*X255113Y136800D01*
X256500Y133000D02*Y131400D01*
Y133000D02*X257887Y133800D01*
X256500Y133000D02*X255113Y133800D01*
X234000Y126000D02*Y124400D01*
Y126000D02*X235387Y126800D01*
X234000Y126000D02*X232613Y126800D01*
X15000Y346250D02*Y344650D01*
Y346250D02*X16387Y347050D01*
X15000Y346250D02*X13613Y347050D01*
X135000Y348500D02*X136500Y345500D01*
X138000Y348500D01*
X136500Y345500D02*Y342500D01*
X139800Y345800D02*X142050D01*
X139800Y342500D02*X142800D01*
X139800Y348500D02*Y342500D01*
Y348500D02*X142800D01*
X147600D02*X148350Y347750D01*
X145350Y348500D02*X147600D01*
X144600Y347750D02*X145350Y348500D01*
X144600Y347750D02*Y346250D01*
X145350Y345500D01*
X147600D01*
X148350Y344750D01*
Y343250D01*
X147600Y342500D02*X148350Y343250D01*
X145350Y342500D02*X147600D01*
X144600Y343250D02*X145350Y342500D01*
X98000Y347300D02*X99200Y348500D01*
Y342500D01*
X98000D02*X100250D01*
X102050Y347300D02*X103250Y348500D01*
Y342500D01*
X102050D02*X104300D01*
X106100Y343250D02*X106850Y342500D01*
X106100Y347750D02*Y343250D01*
Y347750D02*X106850Y348500D01*
X108350D01*
X109100Y347750D01*
Y343250D01*
X108350Y342500D02*X109100Y343250D01*
X106850Y342500D02*X108350D01*
X106100Y344000D02*X109100Y347000D01*
X45000Y343250D02*X45750Y342500D01*
X45000Y347750D02*Y343250D01*
Y347750D02*X45750Y348500D01*
X47250D01*
X48000Y347750D01*
Y343250D01*
X47250Y342500D02*X48000Y343250D01*
X45750Y342500D02*X47250D01*
X45000Y344000D02*X48000Y347000D01*
X49800Y342500D02*X50550D01*
X52350Y343250D02*X53100Y342500D01*
X52350Y347750D02*Y343250D01*
Y347750D02*X53100Y348500D01*
X54600D01*
X55350Y347750D01*
Y343250D01*
X54600Y342500D02*X55350Y343250D01*
X53100Y342500D02*X54600D01*
X52350Y344000D02*X55350Y347000D01*
X57150Y347300D02*X58350Y348500D01*
Y342500D01*
X57150D02*X59400D01*
X61200Y347750D02*X61950Y348500D01*
X64200D01*
X64950Y347750D01*
Y346250D01*
X61200Y342500D02*X64950Y346250D01*
X61200Y342500D02*X64950D01*
X3000Y363500D02*X3750Y362750D01*
X750Y363500D02*X3000D01*
X0Y362750D02*X750Y363500D01*
X0Y362750D02*Y361250D01*
X750Y360500D01*
X3000D01*
X3750Y359750D01*
Y358250D01*
X3000Y357500D02*X3750Y358250D01*
X750Y357500D02*X3000D01*
X0Y358250D02*X750Y357500D01*
X5550Y360500D02*Y358250D01*
X6300Y357500D01*
X8550Y360500D02*Y356000D01*
X7800Y355250D02*X8550Y356000D01*
X6300Y355250D02*X7800D01*
X5550Y356000D02*X6300Y355250D01*
Y357500D02*X7800D01*
X8550Y358250D01*
X11100Y359750D02*Y357500D01*
Y359750D02*X11850Y360500D01*
X12600D01*
X13350Y359750D01*
Y357500D01*
Y359750D02*X14100Y360500D01*
X14850D01*
X15600Y359750D01*
Y357500D01*
X10350Y360500D02*X11100Y359750D01*
X17400Y363500D02*Y357500D01*
Y358250D02*X18150Y357500D01*
X19650D01*
X20400Y358250D01*
Y359750D02*Y358250D01*
X19650Y360500D02*X20400Y359750D01*
X18150Y360500D02*X19650D01*
X17400Y359750D02*X18150Y360500D01*
X22200Y359750D02*Y358250D01*
Y359750D02*X22950Y360500D01*
X24450D01*
X25200Y359750D01*
Y358250D01*
X24450Y357500D02*X25200Y358250D01*
X22950Y357500D02*X24450D01*
X22200Y358250D02*X22950Y357500D01*
X27000Y363500D02*Y358250D01*
X27750Y357500D01*
X0Y354250D02*X29250D01*
X41750Y363500D02*Y357500D01*
X43700Y363500D02*X44750Y362450D01*
Y358550D01*
X43700Y357500D02*X44750Y358550D01*
X41000Y357500D02*X43700D01*
X41000Y363500D02*X43700D01*
G54D121*X46550Y362000D02*Y361850D01*
G54D120*Y359750D02*Y357500D01*
X50300Y360500D02*X51050Y359750D01*
X48800Y360500D02*X50300D01*
X48050Y359750D02*X48800Y360500D01*
X48050Y359750D02*Y358250D01*
X48800Y357500D01*
X51050Y360500D02*Y358250D01*
X51800Y357500D01*
X48800D02*X50300D01*
X51050Y358250D01*
X54350Y359750D02*Y357500D01*
Y359750D02*X55100Y360500D01*
X55850D01*
X56600Y359750D01*
Y357500D01*
Y359750D02*X57350Y360500D01*
X58100D01*
X58850Y359750D01*
Y357500D01*
X53600Y360500D02*X54350Y359750D01*
X60650Y357500D02*X61400D01*
X65900Y358250D02*X66650Y357500D01*
X65900Y362750D02*X66650Y363500D01*
X65900Y362750D02*Y358250D01*
X68450Y363500D02*X69950D01*
X69200D02*Y357500D01*
X68450D02*X69950D01*
X72500Y359750D02*Y357500D01*
Y359750D02*X73250Y360500D01*
X74000D01*
X74750Y359750D01*
Y357500D01*
X71750Y360500D02*X72500Y359750D01*
X77300Y360500D02*X79550D01*
X76550Y359750D02*X77300Y360500D01*
X76550Y359750D02*Y358250D01*
X77300Y357500D01*
X79550D01*
X81350Y363500D02*Y357500D01*
Y359750D02*X82100Y360500D01*
X83600D01*
X84350Y359750D01*
Y357500D01*
X86150Y363500D02*X86900Y362750D01*
Y358250D01*
X86150Y357500D02*X86900Y358250D01*
X41000Y354250D02*X88700D01*
X96050Y357500D02*X98000D01*
X95000Y358550D02*X96050Y357500D01*
X95000Y362450D02*Y358550D01*
Y362450D02*X96050Y363500D01*
X98000D01*
X99800Y359750D02*Y358250D01*
Y359750D02*X100550Y360500D01*
X102050D01*
X102800Y359750D01*
Y358250D01*
X102050Y357500D02*X102800Y358250D01*
X100550Y357500D02*X102050D01*
X99800Y358250D02*X100550Y357500D01*
X104600Y360500D02*Y358250D01*
X105350Y357500D01*
X106850D01*
X107600Y358250D01*
Y360500D02*Y358250D01*
X110150Y359750D02*Y357500D01*
Y359750D02*X110900Y360500D01*
X111650D01*
X112400Y359750D01*
Y357500D01*
X109400Y360500D02*X110150Y359750D01*
X114950Y363500D02*Y358250D01*
X115700Y357500D01*
X114200Y361250D02*X115700D01*
X95000Y354250D02*X117200D01*
X130750Y363500D02*Y357500D01*
X130000Y363500D02*X133000D01*
X133750Y362750D01*
Y361250D01*
X133000Y360500D02*X133750Y361250D01*
X130750Y360500D02*X133000D01*
X135550Y363500D02*Y358250D01*
X136300Y357500D01*
X140050Y360500D02*X140800Y359750D01*
X138550Y360500D02*X140050D01*
X137800Y359750D02*X138550Y360500D01*
X137800Y359750D02*Y358250D01*
X138550Y357500D01*
X140800Y360500D02*Y358250D01*
X141550Y357500D01*
X138550D02*X140050D01*
X140800Y358250D01*
X144100Y363500D02*Y358250D01*
X144850Y357500D01*
X143350Y361250D02*X144850D01*
X147100Y357500D02*X149350D01*
X146350Y358250D02*X147100Y357500D01*
X146350Y359750D02*Y358250D01*
Y359750D02*X147100Y360500D01*
X148600D01*
X149350Y359750D01*
X146350Y359000D02*X149350D01*
Y359750D02*Y359000D01*
X154150Y363500D02*Y357500D01*
X153400D02*X154150Y358250D01*
X151900Y357500D02*X153400D01*
X151150Y358250D02*X151900Y357500D01*
X151150Y359750D02*Y358250D01*
Y359750D02*X151900Y360500D01*
X153400D01*
X154150Y359750D01*
X157450Y360500D02*Y359750D01*
Y358250D02*Y357500D01*
X155950Y362750D02*Y362000D01*
Y362750D02*X156700Y363500D01*
X158200D01*
X158950Y362750D01*
Y362000D01*
X157450Y360500D02*X158950Y362000D01*
X130000Y354250D02*X160750D01*
X0Y378500D02*X3000D01*
X1500D02*Y372500D01*
X4800Y378500D02*Y372500D01*
Y374750D02*X5550Y375500D01*
X7050D01*
X7800Y374750D01*
Y372500D01*
X10350D02*X12600D01*
X9600Y373250D02*X10350Y372500D01*
X9600Y374750D02*Y373250D01*
Y374750D02*X10350Y375500D01*
X11850D01*
X12600Y374750D01*
X9600Y374000D02*X12600D01*
Y374750D02*Y374000D01*
X15150Y374750D02*Y372500D01*
Y374750D02*X15900Y375500D01*
X17400D01*
X14400D02*X15150Y374750D01*
X19950Y372500D02*X22200D01*
X19200Y373250D02*X19950Y372500D01*
X19200Y374750D02*Y373250D01*
Y374750D02*X19950Y375500D01*
X21450D01*
X22200Y374750D01*
X19200Y374000D02*X22200D01*
Y374750D02*Y374000D01*
X28950Y375500D02*X29700Y374750D01*
X27450Y375500D02*X28950D01*
X26700Y374750D02*X27450Y375500D01*
X26700Y374750D02*Y373250D01*
X27450Y372500D01*
X29700Y375500D02*Y373250D01*
X30450Y372500D01*
X27450D02*X28950D01*
X29700Y373250D01*
X33000Y374750D02*Y372500D01*
Y374750D02*X33750Y375500D01*
X35250D01*
X32250D02*X33000Y374750D01*
X37800Y372500D02*X40050D01*
X37050Y373250D02*X37800Y372500D01*
X37050Y374750D02*Y373250D01*
Y374750D02*X37800Y375500D01*
X39300D01*
X40050Y374750D01*
X37050Y374000D02*X40050D01*
Y374750D02*Y374000D01*
X44550Y373250D02*X45300Y372500D01*
X44550Y374450D02*Y373250D01*
Y374450D02*X45600Y375500D01*
X46500D01*
X47550Y374450D01*
Y373250D01*
X46800Y372500D02*X47550Y373250D01*
X45300Y372500D02*X46800D01*
X44550Y376550D02*X45600Y375500D01*
X44550Y377750D02*Y376550D01*
Y377750D02*X45300Y378500D01*
X46800D01*
X47550Y377750D01*
Y376550D01*
X46500Y375500D02*X47550Y376550D01*
X55050Y378500D02*Y372500D01*
X54300D02*X55050Y373250D01*
X52800Y372500D02*X54300D01*
X52050Y373250D02*X52800Y372500D01*
X52050Y374750D02*Y373250D01*
Y374750D02*X52800Y375500D01*
X54300D01*
X55050Y374750D01*
G54D121*X56850Y377000D02*Y376850D01*
G54D120*Y374750D02*Y372500D01*
X59100Y377750D02*Y372500D01*
Y377750D02*X59850Y378500D01*
X60600D01*
X58350Y375500D02*X59850D01*
X62850Y377750D02*Y372500D01*
Y377750D02*X63600Y378500D01*
X64350D01*
X62100Y375500D02*X63600D01*
X66600Y372500D02*X68850D01*
X65850Y373250D02*X66600Y372500D01*
X65850Y374750D02*Y373250D01*
Y374750D02*X66600Y375500D01*
X68100D01*
X68850Y374750D01*
X65850Y374000D02*X68850D01*
Y374750D02*Y374000D01*
X71400Y374750D02*Y372500D01*
Y374750D02*X72150Y375500D01*
X73650D01*
X70650D02*X71400Y374750D01*
X76200Y372500D02*X78450D01*
X75450Y373250D02*X76200Y372500D01*
X75450Y374750D02*Y373250D01*
Y374750D02*X76200Y375500D01*
X77700D01*
X78450Y374750D01*
X75450Y374000D02*X78450D01*
Y374750D02*Y374000D01*
X81000Y374750D02*Y372500D01*
Y374750D02*X81750Y375500D01*
X82500D01*
X83250Y374750D01*
Y372500D01*
X80250Y375500D02*X81000Y374750D01*
X85800Y378500D02*Y373250D01*
X86550Y372500D01*
X85050Y376250D02*X86550D01*
X93750Y378500D02*Y372500D01*
X93000D02*X93750Y373250D01*
X91500Y372500D02*X93000D01*
X90750Y373250D02*X91500Y372500D01*
X90750Y374750D02*Y373250D01*
Y374750D02*X91500Y375500D01*
X93000D01*
X93750Y374750D01*
X96300D02*Y372500D01*
Y374750D02*X97050Y375500D01*
X98550D01*
X95550D02*X96300Y374750D01*
G54D121*X100350Y377000D02*Y376850D01*
G54D120*Y374750D02*Y372500D01*
X101850Y378500D02*Y373250D01*
X102600Y372500D01*
X104100Y378500D02*Y373250D01*
X104850Y372500D01*
X109800D02*X112050D01*
X112800Y373250D01*
X112050Y374000D02*X112800Y373250D01*
X109800Y374000D02*X112050D01*
X109050Y374750D02*X109800Y374000D01*
X109050Y374750D02*X109800Y375500D01*
X112050D01*
X112800Y374750D01*
X109050Y373250D02*X109800Y372500D01*
G54D121*X114600Y377000D02*Y376850D01*
G54D120*Y374750D02*Y372500D01*
X116100Y375500D02*X119100D01*
X116100Y372500D02*X119100Y375500D01*
X116100Y372500D02*X119100D01*
X121650D02*X123900D01*
X120900Y373250D02*X121650Y372500D01*
X120900Y374750D02*Y373250D01*
Y374750D02*X121650Y375500D01*
X123150D01*
X123900Y374750D01*
X120900Y374000D02*X123900D01*
Y374750D02*Y374000D01*
X126450Y372500D02*X128700D01*
X129450Y373250D01*
X128700Y374000D02*X129450Y373250D01*
X126450Y374000D02*X128700D01*
X125700Y374750D02*X126450Y374000D01*
X125700Y374750D02*X126450Y375500D01*
X128700D01*
X129450Y374750D01*
X125700Y373250D02*X126450Y372500D01*
X133950Y375500D02*Y373250D01*
X134700Y372500D01*
X136200D01*
X136950Y373250D01*
Y375500D02*Y373250D01*
X139500Y372500D02*X141750D01*
X142500Y373250D01*
X141750Y374000D02*X142500Y373250D01*
X139500Y374000D02*X141750D01*
X138750Y374750D02*X139500Y374000D01*
X138750Y374750D02*X139500Y375500D01*
X141750D01*
X142500Y374750D01*
X138750Y373250D02*X139500Y372500D01*
X145050D02*X147300D01*
X144300Y373250D02*X145050Y372500D01*
X144300Y374750D02*Y373250D01*
Y374750D02*X145050Y375500D01*
X146550D01*
X147300Y374750D01*
X144300Y374000D02*X147300D01*
Y374750D02*Y374000D01*
X152100Y378500D02*Y372500D01*
X151350D02*X152100Y373250D01*
X149850Y372500D02*X151350D01*
X149100Y373250D02*X149850Y372500D01*
X149100Y374750D02*Y373250D01*
Y374750D02*X149850Y375500D01*
X151350D01*
X152100Y374750D01*
G54D121*X156600Y377000D02*Y376850D01*
G54D120*Y374750D02*Y372500D01*
X158850Y374750D02*Y372500D01*
Y374750D02*X159600Y375500D01*
X160350D01*
X161100Y374750D01*
Y372500D01*
X158100Y375500D02*X158850Y374750D01*
X166350Y378500D02*Y373250D01*
X167100Y372500D01*
X165600Y376250D02*X167100D01*
X168600Y378500D02*Y372500D01*
Y374750D02*X169350Y375500D01*
X170850D01*
X171600Y374750D01*
Y372500D01*
G54D121*X173400Y377000D02*Y376850D01*
G54D120*Y374750D02*Y372500D01*
X175650D02*X177900D01*
X178650Y373250D01*
X177900Y374000D02*X178650Y373250D01*
X175650Y374000D02*X177900D01*
X174900Y374750D02*X175650Y374000D01*
X174900Y374750D02*X175650Y375500D01*
X177900D01*
X178650Y374750D01*
X174900Y373250D02*X175650Y372500D01*
X183150Y378500D02*Y373250D01*
X183900Y372500D01*
X187650Y375500D02*X188400Y374750D01*
X186150Y375500D02*X187650D01*
X185400Y374750D02*X186150Y375500D01*
X185400Y374750D02*Y373250D01*
X186150Y372500D01*
X188400Y375500D02*Y373250D01*
X189150Y372500D01*
X186150D02*X187650D01*
X188400Y373250D01*
X190950Y375500D02*Y373250D01*
X191700Y372500D01*
X193950Y375500D02*Y371000D01*
X193200Y370250D02*X193950Y371000D01*
X191700Y370250D02*X193200D01*
X190950Y371000D02*X191700Y370250D01*
Y372500D02*X193200D01*
X193950Y373250D01*
X195750Y374750D02*Y373250D01*
Y374750D02*X196500Y375500D01*
X198000D01*
X198750Y374750D01*
Y373250D01*
X198000Y372500D02*X198750Y373250D01*
X196500Y372500D02*X198000D01*
X195750Y373250D02*X196500Y372500D01*
X200550Y375500D02*Y373250D01*
X201300Y372500D01*
X202800D01*
X203550Y373250D01*
Y375500D02*Y373250D01*
X206100Y378500D02*Y373250D01*
X206850Y372500D01*
X205350Y376250D02*X206850D01*
X208350Y371000D02*X209850Y372500D01*
X214350Y377300D02*X215550Y378500D01*
Y372500D01*
X214350D02*X216600D01*
X218400Y377750D02*X219150Y378500D01*
X220650D01*
X221400Y377750D01*
X220650Y372500D02*X221400Y373250D01*
X219150Y372500D02*X220650D01*
X218400Y373250D02*X219150Y372500D01*
Y375800D02*X220650D01*
X221400Y377750D02*Y376550D01*
Y375050D02*Y373250D01*
Y375050D02*X220650Y375800D01*
X221400Y376550D02*X220650Y375800D01*
X225450Y378500D02*X226200Y377750D01*
X223950Y378500D02*X225450D01*
X223200Y377750D02*X223950Y378500D01*
X223200Y377750D02*Y373250D01*
X223950Y372500D01*
X225450Y375800D02*X226200Y375050D01*
X223200Y375800D02*X225450D01*
X223950Y372500D02*X225450D01*
X226200Y373250D01*
Y375050D02*Y373250D01*
X230700Y378500D02*Y372500D01*
Y374750D02*X231450Y375500D01*
X232950D01*
X233700Y374750D01*
Y372500D01*
X235500Y374750D02*Y373250D01*
Y374750D02*X236250Y375500D01*
X237750D01*
X238500Y374750D01*
Y373250D01*
X237750Y372500D02*X238500Y373250D01*
X236250Y372500D02*X237750D01*
X235500Y373250D02*X236250Y372500D01*
X240300Y378500D02*Y373250D01*
X241050Y372500D01*
X243300D02*X245550D01*
X242550Y373250D02*X243300Y372500D01*
X242550Y374750D02*Y373250D01*
Y374750D02*X243300Y375500D01*
X244800D01*
X245550Y374750D01*
X242550Y374000D02*X245550D01*
Y374750D02*Y374000D01*
X248100Y372500D02*X250350D01*
X251100Y373250D01*
X250350Y374000D02*X251100Y373250D01*
X248100Y374000D02*X250350D01*
X247350Y374750D02*X248100Y374000D01*
X247350Y374750D02*X248100Y375500D01*
X250350D01*
X251100Y374750D01*
X247350Y373250D02*X248100Y372500D01*
X256350Y378500D02*Y373250D01*
X257100Y372500D01*
X255600Y376250D02*X257100D01*
X258600Y374750D02*Y373250D01*
Y374750D02*X259350Y375500D01*
X260850D01*
X261600Y374750D01*
Y373250D01*
X260850Y372500D02*X261600Y373250D01*
X259350Y372500D02*X260850D01*
X258600Y373250D02*X259350Y372500D01*
X264150Y378500D02*Y373250D01*
X264900Y372500D01*
X263400Y376250D02*X264900D01*
X268650Y375500D02*X269400Y374750D01*
X267150Y375500D02*X268650D01*
X266400Y374750D02*X267150Y375500D01*
X266400Y374750D02*Y373250D01*
X267150Y372500D01*
X269400Y375500D02*Y373250D01*
X270150Y372500D01*
X267150D02*X268650D01*
X269400Y373250D01*
X271950Y378500D02*Y373250D01*
X272700Y372500D01*
G54D122*X335000Y0D02*X0D01*
Y230000D01*
X335000D01*
Y0D01*
G54D120*X81175Y-9500D02*X84175D01*
X84925Y-8750D01*
Y-6950D02*Y-8750D01*
X84175Y-6200D02*X84925Y-6950D01*
X81925Y-6200D02*X84175D01*
X81925Y-3500D02*Y-9500D01*
X81175Y-3500D02*X84175D01*
X84925Y-4250D01*
Y-5450D01*
X84175Y-6200D02*X84925Y-5450D01*
X86725Y-7250D02*Y-8750D01*
Y-7250D02*X87475Y-6500D01*
X88975D01*
X89725Y-7250D01*
Y-8750D01*
X88975Y-9500D02*X89725Y-8750D01*
X87475Y-9500D02*X88975D01*
X86725Y-8750D02*X87475Y-9500D01*
X93775Y-6500D02*X94525Y-7250D01*
X92275Y-6500D02*X93775D01*
X91525Y-7250D02*X92275Y-6500D01*
X91525Y-7250D02*Y-8750D01*
X92275Y-9500D01*
X94525Y-6500D02*Y-8750D01*
X95275Y-9500D01*
X92275D02*X93775D01*
X94525Y-8750D01*
X97825Y-7250D02*Y-9500D01*
Y-7250D02*X98575Y-6500D01*
X100075D01*
X97075D02*X97825Y-7250D01*
X104875Y-3500D02*Y-9500D01*
X104125D02*X104875Y-8750D01*
X102625Y-9500D02*X104125D01*
X101875Y-8750D02*X102625Y-9500D01*
X101875Y-7250D02*Y-8750D01*
Y-7250D02*X102625Y-6500D01*
X104125D01*
X104875Y-7250D01*
X109375D02*Y-8750D01*
Y-7250D02*X110125Y-6500D01*
X111625D01*
X112375Y-7250D01*
Y-8750D01*
X111625Y-9500D02*X112375Y-8750D01*
X110125Y-9500D02*X111625D01*
X109375Y-8750D02*X110125Y-9500D01*
X114175Y-6500D02*Y-8750D01*
X114925Y-9500D01*
X116425D01*
X117175Y-8750D01*
Y-6500D02*Y-8750D01*
X119725Y-3500D02*Y-8750D01*
X120475Y-9500D01*
X118975Y-5750D02*X120475D01*
X121975Y-3500D02*Y-8750D01*
X122725Y-9500D01*
G54D121*X124225Y-5000D02*Y-5150D01*
G54D120*Y-7250D02*Y-9500D01*
X126475Y-7250D02*Y-9500D01*
Y-7250D02*X127225Y-6500D01*
X127975D01*
X128725Y-7250D01*
Y-9500D01*
X125725Y-6500D02*X126475Y-7250D01*
X131275Y-9500D02*X133525D01*
X130525Y-8750D02*X131275Y-9500D01*
X130525Y-7250D02*Y-8750D01*
Y-7250D02*X131275Y-6500D01*
X132775D01*
X133525Y-7250D01*
X130525Y-8000D02*X133525D01*
Y-7250D02*Y-8000D01*
G54D121*X138025Y-5000D02*Y-5150D01*
G54D120*Y-7250D02*Y-9500D01*
X140275D02*X142525D01*
X143275Y-8750D01*
X142525Y-8000D02*X143275Y-8750D01*
X140275Y-8000D02*X142525D01*
X139525Y-7250D02*X140275Y-8000D01*
X139525Y-7250D02*X140275Y-6500D01*
X142525D01*
X143275Y-7250D01*
X139525Y-8750D02*X140275Y-9500D01*
X148525Y-3500D02*Y-8750D01*
X149275Y-9500D01*
X147775Y-5750D02*X149275D01*
X150775Y-3500D02*Y-9500D01*
Y-7250D02*X151525Y-6500D01*
X153025D01*
X153775Y-7250D01*
Y-9500D01*
X156325D02*X158575D01*
X155575Y-8750D02*X156325Y-9500D01*
X155575Y-7250D02*Y-8750D01*
Y-7250D02*X156325Y-6500D01*
X157825D01*
X158575Y-7250D01*
X155575Y-8000D02*X158575D01*
Y-7250D02*Y-8000D01*
X163825Y-6500D02*X166075D01*
X163075Y-7250D02*X163825Y-6500D01*
X163075Y-7250D02*Y-8750D01*
X163825Y-9500D01*
X166075D01*
X168625D02*X170875D01*
X167875Y-8750D02*X168625Y-9500D01*
X167875Y-7250D02*Y-8750D01*
Y-7250D02*X168625Y-6500D01*
X170125D01*
X170875Y-7250D01*
X167875Y-8000D02*X170875D01*
Y-7250D02*Y-8000D01*
X173425Y-7250D02*Y-9500D01*
Y-7250D02*X174175Y-6500D01*
X174925D01*
X175675Y-7250D01*
Y-9500D01*
X172675Y-6500D02*X173425Y-7250D01*
X178225Y-3500D02*Y-8750D01*
X178975Y-9500D01*
X177475Y-5750D02*X178975D01*
X181225Y-9500D02*X183475D01*
X180475Y-8750D02*X181225Y-9500D01*
X180475Y-7250D02*Y-8750D01*
Y-7250D02*X181225Y-6500D01*
X182725D01*
X183475Y-7250D01*
X180475Y-8000D02*X183475D01*
Y-7250D02*Y-8000D01*
X186025Y-7250D02*Y-9500D01*
Y-7250D02*X186775Y-6500D01*
X188275D01*
X185275D02*X186025Y-7250D01*
X190075Y-3500D02*Y-8750D01*
X190825Y-9500D01*
G54D121*X192325Y-5000D02*Y-5150D01*
G54D120*Y-7250D02*Y-9500D01*
X194575Y-7250D02*Y-9500D01*
Y-7250D02*X195325Y-6500D01*
X196075D01*
X196825Y-7250D01*
Y-9500D01*
X193825Y-6500D02*X194575Y-7250D01*
X199375Y-9500D02*X201625D01*
X198625Y-8750D02*X199375Y-9500D01*
X198625Y-7250D02*Y-8750D01*
Y-7250D02*X199375Y-6500D01*
X200875D01*
X201625Y-7250D01*
X198625Y-8000D02*X201625D01*
Y-7250D02*Y-8000D01*
X206125Y-7250D02*Y-8750D01*
Y-7250D02*X206875Y-6500D01*
X208375D01*
X209125Y-7250D01*
Y-8750D01*
X208375Y-9500D02*X209125Y-8750D01*
X206875Y-9500D02*X208375D01*
X206125Y-8750D02*X206875Y-9500D01*
X211675Y-4250D02*Y-9500D01*
Y-4250D02*X212425Y-3500D01*
X213175D01*
X210925Y-6500D02*X212425D01*
X218125Y-3500D02*Y-8750D01*
X218875Y-9500D01*
X217375Y-5750D02*X218875D01*
X220375Y-3500D02*Y-9500D01*
Y-7250D02*X221125Y-6500D01*
X222625D01*
X223375Y-7250D01*
Y-9500D01*
G54D121*X225175Y-5000D02*Y-5150D01*
G54D120*Y-7250D02*Y-9500D01*
X227425D02*X229675D01*
X230425Y-8750D01*
X229675Y-8000D02*X230425Y-8750D01*
X227425Y-8000D02*X229675D01*
X226675Y-7250D02*X227425Y-8000D01*
X226675Y-7250D02*X227425Y-6500D01*
X229675D01*
X230425Y-7250D01*
X226675Y-8750D02*X227425Y-9500D01*
X235675Y-7250D02*Y-11750D01*
X234925Y-6500D02*X235675Y-7250D01*
X236425Y-6500D01*
X237925D01*
X238675Y-7250D01*
Y-8750D01*
X237925Y-9500D02*X238675Y-8750D01*
X236425Y-9500D02*X237925D01*
X235675Y-8750D02*X236425Y-9500D01*
X242725Y-6500D02*X243475Y-7250D01*
X241225Y-6500D02*X242725D01*
X240475Y-7250D02*X241225Y-6500D01*
X240475Y-7250D02*Y-8750D01*
X241225Y-9500D01*
X243475Y-6500D02*Y-8750D01*
X244225Y-9500D01*
X241225D02*X242725D01*
X243475Y-8750D01*
X246775Y-3500D02*Y-8750D01*
X247525Y-9500D01*
X246025Y-5750D02*X247525D01*
X249025Y-3500D02*Y-9500D01*
Y-7250D02*X249775Y-6500D01*
X251275D01*
X252025Y-7250D01*
Y-9500D01*
X200750Y258500D02*Y252500D01*
X202700Y258500D02*X203750Y257450D01*
Y253550D01*
X202700Y252500D02*X203750Y253550D01*
X200000Y252500D02*X202700D01*
X200000Y258500D02*X202700D01*
X207800Y255500D02*X208550Y254750D01*
X206300Y255500D02*X207800D01*
X205550Y254750D02*X206300Y255500D01*
X205550Y254750D02*Y253250D01*
X206300Y252500D01*
X208550Y255500D02*Y253250D01*
X209300Y252500D01*
X206300D02*X207800D01*
X208550Y253250D01*
X211850Y258500D02*Y253250D01*
X212600Y252500D01*
X211100Y256250D02*X212600D01*
X214850Y252500D02*X217100D01*
X214100Y253250D02*X214850Y252500D01*
X214100Y254750D02*Y253250D01*
Y254750D02*X214850Y255500D01*
X216350D01*
X217100Y254750D01*
X214100Y254000D02*X217100D01*
Y254750D02*Y254000D01*
X218900Y256250D02*X219650D01*
X218900Y254750D02*X219650D01*
X227150Y258500D02*X227900Y257750D01*
X224900Y258500D02*X227150D01*
X224150Y257750D02*X224900Y258500D01*
X224150Y257750D02*Y256250D01*
X224900Y255500D01*
X227150D01*
X227900Y254750D01*
Y253250D01*
X227150Y252500D02*X227900Y253250D01*
X224900Y252500D02*X227150D01*
X224150Y253250D02*X224900Y252500D01*
X231950Y255500D02*X232700Y254750D01*
X230450Y255500D02*X231950D01*
X229700Y254750D02*X230450Y255500D01*
X229700Y254750D02*Y253250D01*
X230450Y252500D01*
X232700Y255500D02*Y253250D01*
X233450Y252500D01*
X230450D02*X231950D01*
X232700Y253250D01*
X236000Y258500D02*Y253250D01*
X236750Y252500D01*
X235250Y256250D02*X236750D01*
X240950Y257300D02*X242150Y258500D01*
Y252500D01*
X240950D02*X243200D01*
X245000Y254750D02*X248000Y258500D01*
X245000Y254750D02*X248750D01*
X248000Y258500D02*Y252500D01*
X254000Y258500D02*Y252500D01*
X255950Y258500D02*X257000Y257450D01*
Y253550D01*
X255950Y252500D02*X257000Y253550D01*
X253250Y252500D02*X255950D01*
X253250Y258500D02*X255950D01*
X259550Y252500D02*X261800D01*
X258800Y253250D02*X259550Y252500D01*
X258800Y254750D02*Y253250D01*
Y254750D02*X259550Y255500D01*
X261050D01*
X261800Y254750D01*
X258800Y254000D02*X261800D01*
Y254750D02*Y254000D01*
X264350Y255500D02*X266600D01*
X263600Y254750D02*X264350Y255500D01*
X263600Y254750D02*Y253250D01*
X264350Y252500D01*
X266600D01*
X271100Y257750D02*X271850Y258500D01*
X274100D01*
X274850Y257750D01*
Y256250D01*
X271100Y252500D02*X274850Y256250D01*
X271100Y252500D02*X274850D01*
X276650Y253250D02*X277400Y252500D01*
X276650Y257750D02*Y253250D01*
Y257750D02*X277400Y258500D01*
X278900D01*
X279650Y257750D01*
Y253250D01*
X278900Y252500D02*X279650Y253250D01*
X277400Y252500D02*X278900D01*
X276650Y254000D02*X279650Y257000D01*
X281450Y257300D02*X282650Y258500D01*
Y252500D01*
X281450D02*X283700D01*
X286250D02*X288500Y255500D01*
Y257750D02*Y255500D01*
X287750Y258500D02*X288500Y257750D01*
X286250Y258500D02*X287750D01*
X285500Y257750D02*X286250Y258500D01*
X285500Y257750D02*Y256250D01*
X286250Y255500D01*
X288500D01*
X293000Y253250D02*X293750Y252500D01*
X293000Y257750D02*Y253250D01*
Y257750D02*X293750Y258500D01*
X295250D01*
X296000Y257750D01*
Y253250D01*
X295250Y252500D02*X296000Y253250D01*
X293750Y252500D02*X295250D01*
X293000Y254000D02*X296000Y257000D01*
X297800Y257750D02*X298550Y258500D01*
X300050D01*
X300800Y257750D01*
X300050Y252500D02*X300800Y253250D01*
X298550Y252500D02*X300050D01*
X297800Y253250D02*X298550Y252500D01*
Y255800D02*X300050D01*
X300800Y257750D02*Y256550D01*
Y255050D02*Y253250D01*
Y255050D02*X300050Y255800D01*
X300800Y256550D02*X300050Y255800D01*
X302600Y256250D02*X303350D01*
X302600Y254750D02*X303350D01*
X305150D02*X308150Y258500D01*
X305150Y254750D02*X308900D01*
X308150Y258500D02*Y252500D01*
X311450D02*X314450Y258500D01*
X310700D02*X314450D01*
X316250Y256250D02*X317000D01*
X316250Y254750D02*X317000D01*
X318800Y253250D02*X319550Y252500D01*
X318800Y257750D02*Y253250D01*
Y257750D02*X319550Y258500D01*
X321050D01*
X321800Y257750D01*
Y253250D01*
X321050Y252500D02*X321800Y253250D01*
X319550Y252500D02*X321050D01*
X318800Y254000D02*X321800Y257000D01*
X323600Y258500D02*X326600D01*
X323600D02*Y255500D01*
X324350Y256250D01*
X325850D01*
X326600Y255500D01*
Y253250D01*
X325850Y252500D02*X326600Y253250D01*
X324350Y252500D02*X325850D01*
X323600Y253250D02*X324350Y252500D01*
X331100Y257000D02*Y252500D01*
Y257000D02*X332150Y258500D01*
X333800D01*
X334850Y257000D01*
Y252500D01*
X331100Y255500D02*X334850D01*
X336650Y258500D02*Y252500D01*
Y258500D02*X338900Y255500D01*
X341150Y258500D01*
Y252500D01*
X348650Y258500D02*X349400Y257750D01*
X346400Y258500D02*X348650D01*
X345650Y257750D02*X346400Y258500D01*
X345650Y257750D02*Y253250D01*
X346400Y252500D01*
X348650D01*
X349400Y253250D01*
Y254750D02*Y253250D01*
X348650Y255500D02*X349400Y254750D01*
X347150Y255500D02*X348650D01*
X351200Y258500D02*Y252500D01*
Y258500D02*X353450Y255500D01*
X355700Y258500D01*
Y252500D01*
X357500Y258500D02*X360500D01*
X359000D02*Y252500D01*
X365000Y258500D02*Y253250D01*
X365750Y252500D01*
X367250D01*
X368000Y253250D01*
Y258500D02*Y253250D01*
X369800Y258500D02*X372800D01*
X371300D02*Y252500D01*
X375650D02*X377600D01*
X374600Y253550D02*X375650Y252500D01*
X374600Y257450D02*Y253550D01*
Y257450D02*X375650Y258500D01*
X377600D01*
X200000Y272000D02*Y267500D01*
Y272000D02*X201050Y273500D01*
X202700D01*
X203750Y272000D01*
Y267500D01*
X200000Y270500D02*X203750D01*
X205550D02*Y268250D01*
X206300Y267500D01*
X207800D01*
X208550Y268250D01*
Y270500D02*Y268250D01*
X211100Y273500D02*Y268250D01*
X211850Y267500D01*
X210350Y271250D02*X211850D01*
X213350Y273500D02*Y267500D01*
Y269750D02*X214100Y270500D01*
X215600D01*
X216350Y269750D01*
Y267500D01*
X218150Y269750D02*Y268250D01*
Y269750D02*X218900Y270500D01*
X220400D01*
X221150Y269750D01*
Y268250D01*
X220400Y267500D02*X221150Y268250D01*
X218900Y267500D02*X220400D01*
X218150Y268250D02*X218900Y267500D01*
X223700Y269750D02*Y267500D01*
Y269750D02*X224450Y270500D01*
X225950D01*
X222950D02*X223700Y269750D01*
X227750Y271250D02*X228500D01*
X227750Y269750D02*X228500D01*
X233000Y273500D02*Y267500D01*
Y273500D02*X235250Y270500D01*
X237500Y273500D01*
Y267500D01*
G54D121*X239300Y272000D02*Y271850D01*
G54D120*Y269750D02*Y267500D01*
X241550Y270500D02*X243800D01*
X240800Y269750D02*X241550Y270500D01*
X240800Y269750D02*Y268250D01*
X241550Y267500D01*
X243800D01*
X245600Y273500D02*Y267500D01*
Y269750D02*X246350Y270500D01*
X247850D01*
X248600Y269750D01*
Y267500D01*
X252650Y270500D02*X253400Y269750D01*
X251150Y270500D02*X252650D01*
X250400Y269750D02*X251150Y270500D01*
X250400Y269750D02*Y268250D01*
X251150Y267500D01*
X253400Y270500D02*Y268250D01*
X254150Y267500D01*
X251150D02*X252650D01*
X253400Y268250D01*
X256700Y267500D02*X258950D01*
X255950Y268250D02*X256700Y267500D01*
X255950Y269750D02*Y268250D01*
Y269750D02*X256700Y270500D01*
X258200D01*
X258950Y269750D01*
X255950Y269000D02*X258950D01*
Y269750D02*Y269000D01*
X260750Y273500D02*Y268250D01*
X261500Y267500D01*
X266450Y273500D02*Y267500D01*
X265700Y273500D02*X268700D01*
X269450Y272750D01*
Y271250D01*
X268700Y270500D02*X269450Y271250D01*
X266450Y270500D02*X268700D01*
X272000Y267500D02*X274250D01*
X271250Y268250D02*X272000Y267500D01*
X271250Y269750D02*Y268250D01*
Y269750D02*X272000Y270500D01*
X273500D01*
X274250Y269750D01*
X271250Y269000D02*X274250D01*
Y269750D02*Y269000D01*
X276800Y273500D02*Y268250D01*
X277550Y267500D01*
X276050Y271250D02*X277550D01*
X279800Y267500D02*X282050D01*
X279050Y268250D02*X279800Y267500D01*
X279050Y269750D02*Y268250D01*
Y269750D02*X279800Y270500D01*
X281300D01*
X282050Y269750D01*
X279050Y269000D02*X282050D01*
Y269750D02*Y269000D01*
X284600Y269750D02*Y267500D01*
Y269750D02*X285350Y270500D01*
X286850D01*
X283850D02*X284600Y269750D01*
X289400Y267500D02*X291650D01*
X292400Y268250D01*
X291650Y269000D02*X292400Y268250D01*
X289400Y269000D02*X291650D01*
X288650Y269750D02*X289400Y269000D01*
X288650Y269750D02*X289400Y270500D01*
X291650D01*
X292400Y269750D01*
X288650Y268250D02*X289400Y267500D01*
X294950D02*X297200D01*
X294200Y268250D02*X294950Y267500D01*
X294200Y269750D02*Y268250D01*
Y269750D02*X294950Y270500D01*
X296450D01*
X297200Y269750D01*
X294200Y269000D02*X297200D01*
Y269750D02*Y269000D01*
X299750Y269750D02*Y267500D01*
Y269750D02*X300500Y270500D01*
X301250D01*
X302000Y269750D01*
Y267500D01*
X299000Y270500D02*X299750Y269750D01*
X200000Y288500D02*X203000D01*
X201500D02*Y282500D01*
G54D121*X204800Y287000D02*Y286850D01*
G54D120*Y284750D02*Y282500D01*
X207050Y288500D02*Y283250D01*
X207800Y282500D01*
X206300Y286250D02*X207800D01*
X209300Y288500D02*Y283250D01*
X210050Y282500D01*
X212300D02*X214550D01*
X211550Y283250D02*X212300Y282500D01*
X211550Y284750D02*Y283250D01*
Y284750D02*X212300Y285500D01*
X213800D01*
X214550Y284750D01*
X211550Y284000D02*X214550D01*
Y284750D02*Y284000D01*
X216350Y286250D02*X217100D01*
X216350Y284750D02*X217100D01*
X221600Y283250D02*X222350Y282500D01*
X221600Y287750D02*X222350Y288500D01*
X221600Y287750D02*Y283250D01*
X224150Y285500D02*Y283250D01*
X224900Y282500D01*
X226400D01*
X227150Y283250D01*
Y285500D02*Y283250D01*
X229700Y284750D02*Y282500D01*
Y284750D02*X230450Y285500D01*
X231200D01*
X231950Y284750D01*
Y282500D01*
X228950Y285500D02*X229700Y284750D01*
X233750Y288500D02*Y282500D01*
Y284750D02*X236000Y282500D01*
X233750Y284750D02*X235250Y286250D01*
X238550Y284750D02*Y282500D01*
Y284750D02*X239300Y285500D01*
X240050D01*
X240800Y284750D01*
Y282500D01*
X237800Y285500D02*X238550Y284750D01*
X242600D02*Y283250D01*
Y284750D02*X243350Y285500D01*
X244850D01*
X245600Y284750D01*
Y283250D01*
X244850Y282500D02*X245600Y283250D01*
X243350Y282500D02*X244850D01*
X242600Y283250D02*X243350Y282500D01*
X247400Y285500D02*Y283250D01*
X248150Y282500D01*
X248900D01*
X249650Y283250D01*
Y285500D02*Y283250D01*
X250400Y282500D01*
X251150D01*
X251900Y283250D01*
Y285500D02*Y283250D01*
X254450Y284750D02*Y282500D01*
Y284750D02*X255200Y285500D01*
X255950D01*
X256700Y284750D01*
Y282500D01*
X253700Y285500D02*X254450Y284750D01*
X258500Y288500D02*X259250Y287750D01*
Y283250D01*
X258500Y282500D02*X259250Y283250D01*
X263750Y285500D02*X266750D01*
X271250Y288500D02*Y282500D01*
Y288500D02*X274250D01*
X271250Y285800D02*X273500D01*
X278300Y285500D02*X279050Y284750D01*
X276800Y285500D02*X278300D01*
X276050Y284750D02*X276800Y285500D01*
X276050Y284750D02*Y283250D01*
X276800Y282500D01*
X279050Y285500D02*Y283250D01*
X279800Y282500D01*
X276800D02*X278300D01*
X279050Y283250D01*
X281600Y288500D02*Y282500D01*
Y283250D02*X282350Y282500D01*
X283850D01*
X284600Y283250D01*
Y284750D02*Y283250D01*
X283850Y285500D02*X284600Y284750D01*
X282350Y285500D02*X283850D01*
X281600Y284750D02*X282350Y285500D01*
X287150Y284750D02*Y282500D01*
Y284750D02*X287900Y285500D01*
X289400D01*
X286400D02*X287150Y284750D01*
G54D121*X291200Y287000D02*Y286850D01*
G54D120*Y284750D02*Y282500D01*
X293450Y285500D02*X295700D01*
X292700Y284750D02*X293450Y285500D01*
X292700Y284750D02*Y283250D01*
X293450Y282500D01*
X295700D01*
X299750Y285500D02*X300500Y284750D01*
X298250Y285500D02*X299750D01*
X297500Y284750D02*X298250Y285500D01*
X297500Y284750D02*Y283250D01*
X298250Y282500D01*
X300500Y285500D02*Y283250D01*
X301250Y282500D01*
X298250D02*X299750D01*
X300500Y283250D01*
X303800Y288500D02*Y283250D01*
X304550Y282500D01*
X303050Y286250D02*X304550D01*
G54D121*X306050Y287000D02*Y286850D01*
G54D120*Y284750D02*Y282500D01*
X307550Y284750D02*Y283250D01*
Y284750D02*X308300Y285500D01*
X309800D01*
X310550Y284750D01*
Y283250D01*
X309800Y282500D02*X310550Y283250D01*
X308300Y282500D02*X309800D01*
X307550Y283250D02*X308300Y282500D01*
X313100Y284750D02*Y282500D01*
Y284750D02*X313850Y285500D01*
X314600D01*
X315350Y284750D01*
Y282500D01*
X312350Y285500D02*X313100Y284750D01*
X320600Y288500D02*Y282500D01*
X322550Y288500D02*X323600Y287450D01*
Y283550D01*
X322550Y282500D02*X323600Y283550D01*
X319850Y282500D02*X322550D01*
X319850Y288500D02*X322550D01*
X326150Y284750D02*Y282500D01*
Y284750D02*X326900Y285500D01*
X328400D01*
X325400D02*X326150Y284750D01*
X332450Y285500D02*X333200Y284750D01*
X330950Y285500D02*X332450D01*
X330200Y284750D02*X330950Y285500D01*
X330200Y284750D02*Y283250D01*
X330950Y282500D01*
X333200Y285500D02*Y283250D01*
X333950Y282500D01*
X330950D02*X332450D01*
X333200Y283250D01*
X335750Y285500D02*Y283250D01*
X336500Y282500D01*
X337250D01*
X338000Y283250D01*
Y285500D02*Y283250D01*
X338750Y282500D01*
X339500D01*
X340250Y283250D01*
Y285500D02*Y283250D01*
G54D121*X342050Y287000D02*Y286850D01*
G54D120*Y284750D02*Y282500D01*
X344300Y284750D02*Y282500D01*
Y284750D02*X345050Y285500D01*
X345800D01*
X346550Y284750D01*
Y282500D01*
X343550Y285500D02*X344300Y284750D01*
X350600Y285500D02*X351350Y284750D01*
X349100Y285500D02*X350600D01*
X348350Y284750D02*X349100Y285500D01*
X348350Y284750D02*Y283250D01*
X349100Y282500D01*
X350600D01*
X351350Y283250D01*
X348350Y281000D02*X349100Y280250D01*
X350600D01*
X351350Y281000D01*
Y285500D02*Y281000D01*
M02*
