G04 start of page 2 for group 0 idx 0 *
G04 Title: (unknown), top *
G04 Creator: pcb 4.0.2 *
G04 CreationDate: Sun Oct 16 03:55:39 2022 UTC *
G04 For: ndholmes *
G04 Format: Gerber/RS-274X *
G04 PCB-Dimensions (mil): 3350.00 2300.00 *
G04 PCB-Coordinate-Origin: lower left *
%MOIN*%
%FSLAX25Y25*%
%LNTOP*%
%ADD30C,0.0480*%
%ADD29C,0.1280*%
%ADD28C,0.1285*%
%ADD27C,0.0390*%
%ADD26C,0.0935*%
%ADD25C,0.0120*%
%ADD24C,0.0260*%
%ADD23C,0.0310*%
%ADD22C,0.0800*%
%ADD21C,0.0700*%
%ADD20C,0.1440*%
%ADD19C,0.2937*%
%ADD18C,0.0250*%
%ADD17C,0.0400*%
%ADD16C,0.0500*%
%ADD15C,0.0300*%
%ADD14C,0.0200*%
%ADD13C,0.0100*%
%ADD12C,0.0150*%
%ADD11C,0.0001*%
G54D11*G36*
X131621Y115000D02*X138193D01*
X138221Y114639D01*
X138306Y114287D01*
X138444Y113953D01*
X138634Y113644D01*
X138869Y113369D01*
X139144Y113134D01*
X139453Y112944D01*
X139787Y112806D01*
X140139Y112721D01*
X140500Y112693D01*
X140861Y112721D01*
X141213Y112806D01*
X141547Y112944D01*
X141856Y113134D01*
X142131Y113369D01*
X142366Y113644D01*
X142556Y113953D01*
X142694Y114287D01*
X142779Y114639D01*
X142800Y115000D01*
X160000D01*
Y97807D01*
X159639Y97779D01*
X159287Y97694D01*
X158953Y97556D01*
X158644Y97366D01*
X158369Y97131D01*
X158134Y96856D01*
X157944Y96547D01*
X157806Y96213D01*
X157721Y95861D01*
X157693Y95500D01*
X157721Y95139D01*
X157806Y94787D01*
X157944Y94453D01*
X158134Y94144D01*
X158369Y93869D01*
X158644Y93634D01*
X158953Y93444D01*
X159287Y93306D01*
X159639Y93221D01*
X160000Y93193D01*
Y76000D01*
X142800D01*
X142779Y76361D01*
X142694Y76713D01*
X142556Y77047D01*
X142366Y77356D01*
X142131Y77631D01*
X141856Y77866D01*
X141547Y78056D01*
X141213Y78194D01*
X140861Y78279D01*
X140500Y78307D01*
X140139Y78279D01*
X139787Y78194D01*
X139453Y78056D01*
X139144Y77866D01*
X138869Y77631D01*
X138634Y77356D01*
X138444Y77047D01*
X138306Y76713D01*
X138221Y76361D01*
X138193Y76000D01*
X121000D01*
Y90044D01*
X121361Y90072D01*
X121713Y90157D01*
X122047Y90296D01*
X122356Y90485D01*
X122631Y90720D01*
X122866Y90995D01*
X123056Y91304D01*
X123194Y91638D01*
X123279Y91990D01*
X123300Y92351D01*
X123279Y92712D01*
X123194Y93064D01*
X123056Y93399D01*
X122866Y93707D01*
X122631Y93983D01*
X122356Y94218D01*
X122047Y94407D01*
X121713Y94545D01*
X121361Y94630D01*
X121000Y94658D01*
Y102756D01*
X121144Y102634D01*
X121453Y102444D01*
X121787Y102306D01*
X122139Y102221D01*
X122500Y102193D01*
X122861Y102221D01*
X123213Y102306D01*
X123547Y102444D01*
X123856Y102634D01*
X124131Y102869D01*
X124366Y103144D01*
X124556Y103453D01*
X124694Y103787D01*
X124779Y104139D01*
X124800Y104500D01*
X124779Y104861D01*
X124695Y105208D01*
X124861Y105221D01*
X125213Y105306D01*
X125547Y105444D01*
X125856Y105634D01*
X126131Y105869D01*
X126366Y106144D01*
X126556Y106453D01*
X126694Y106787D01*
X126779Y107139D01*
X126800Y107500D01*
X126779Y107861D01*
X126694Y108213D01*
X126556Y108547D01*
X126366Y108856D01*
X126131Y109131D01*
X125856Y109366D01*
X125547Y109556D01*
X125213Y109694D01*
X124861Y109779D01*
X124695Y109792D01*
X124779Y110139D01*
X124800Y110500D01*
X124779Y110861D01*
X124694Y111213D01*
X124556Y111547D01*
X124366Y111856D01*
X124244Y112000D01*
X127941D01*
X128000Y111995D01*
X128235Y112014D01*
X128235Y112014D01*
X128465Y112069D01*
X128683Y112159D01*
X128884Y112283D01*
X129064Y112436D01*
X129102Y112481D01*
X131621Y115000D01*
G37*
G36*
X101500Y100500D02*X107500D01*
X111500Y96500D01*
X124500D01*
Y94500D01*
X121822D01*
X121713Y94545D01*
X121361Y94630D01*
X121000Y94658D01*
X120639Y94630D01*
X120287Y94545D01*
X120178Y94500D01*
X101500D01*
Y100500D01*
G37*
G36*
Y87500D02*Y93500D01*
X114495D01*
X114395Y93383D01*
X114251Y93148D01*
X114145Y92894D01*
X114081Y92626D01*
X114060Y92351D01*
X114081Y92077D01*
X114145Y91809D01*
X114251Y91554D01*
X114284Y91500D01*
X111500D01*
X107500Y87500D01*
X101500D01*
G37*
G36*
X179500D02*X173500D01*
X169500Y91500D01*
X156500D01*
Y93500D01*
X158862D01*
X158953Y93444D01*
X159287Y93306D01*
X159639Y93221D01*
X160000Y93193D01*
X160361Y93221D01*
X160713Y93306D01*
X161047Y93444D01*
X161138Y93500D01*
X179500D01*
Y87500D01*
G37*
G36*
Y100500D02*Y94500D01*
X166625D01*
X166749Y94703D01*
X166855Y94958D01*
X166919Y95225D01*
X166940Y95500D01*
X166919Y95775D01*
X166855Y96042D01*
X166749Y96297D01*
X166625Y96500D01*
X169500D01*
X173500Y100500D01*
X179500D01*
G37*
G36*
X135500Y21500D02*X145500D01*
Y15500D01*
X135500D01*
Y21500D01*
G37*
G36*
X128500Y137500D02*X143500D01*
Y131500D01*
X138559D01*
X138500Y131505D01*
X138441Y131500D01*
X133059D01*
X133000Y131505D01*
X132941Y131500D01*
X128500D01*
Y137500D01*
G37*
G36*
X194500Y146000D02*X204500D01*
Y109000D01*
X194500D01*
Y146000D01*
G37*
G36*
X199000Y101000D02*X193000D01*
Y111500D01*
X199000D01*
Y101000D01*
G37*
G36*
X194500Y146000D02*X214500D01*
Y142000D01*
X194500D01*
Y146000D01*
G37*
G36*
X205500Y115500D02*X215000D01*
Y101000D01*
X205500D01*
Y115500D01*
G37*
G36*
X215000Y101000D02*X200000D01*
Y108000D01*
X215000D01*
Y101000D01*
G37*
G36*
X166500Y215500D02*X149500D01*
Y221500D01*
X166500D01*
Y215500D01*
G37*
G36*
X127000Y222000D02*X133000D01*
Y207848D01*
X127000Y207841D01*
Y222000D01*
G37*
G36*
Y207841D02*Y214500D01*
X195000D01*
Y205500D01*
X135846D01*
X135841Y207007D01*
X135804Y207160D01*
X135744Y207305D01*
X135662Y207440D01*
X135559Y207559D01*
X135440Y207662D01*
X135305Y207744D01*
X135160Y207804D01*
X135007Y207841D01*
X134850Y207850D01*
X127000Y207841D01*
G37*
G36*
Y210000D02*X145500D01*
Y163000D01*
X127000D01*
Y210000D01*
G37*
G36*
Y171000D02*X146500D01*
Y156500D01*
X127000D01*
Y171000D01*
G37*
G36*
X63000Y116500D02*X53500D01*
Y130500D01*
X63000D01*
Y116500D01*
G37*
G36*
X53500Y124500D02*X63000D01*
Y103500D01*
X53500D01*
Y124500D01*
G37*
G36*
X64000Y116500D02*Y145500D01*
X73000D01*
Y116500D01*
X64000D01*
G37*
G36*
X60500Y216500D02*X68500D01*
Y174500D01*
X60500D01*
Y216500D01*
G37*
G36*
X73000Y145500D02*Y142000D01*
X53500D01*
Y145500D01*
X73000D01*
G37*
G36*
X60500Y172000D02*Y188500D01*
X89000D01*
Y172000D01*
X60500D01*
G37*
G36*
X125500Y162000D02*X91000D01*
Y181000D01*
X125500D01*
Y162000D01*
G37*
G36*
X100500Y192000D02*X106000D01*
X111500Y197500D01*
X113000D01*
Y183500D01*
X111500D01*
X106000Y189000D01*
X100500D01*
Y192000D01*
G37*
G36*
X60500Y153000D02*Y170500D01*
X125500D01*
Y156500D01*
X105000D01*
Y153000D01*
X60500D01*
G37*
G36*
X91500Y94500D02*Y100500D01*
X106000D01*
Y94500D01*
X91500D01*
G37*
G36*
X107500Y100500D02*Y98000D01*
X96000D01*
Y109500D01*
X98500D01*
X107500Y100500D01*
G37*
G36*
X93000Y94500D02*X91500D01*
X82500Y103500D01*
Y105500D01*
X93000D01*
Y94500D01*
G37*
G36*
X53500Y103500D02*Y112000D01*
X98457D01*
Y111602D01*
X98452Y111543D01*
X98471Y111308D01*
X98500Y111186D01*
Y103500D01*
X53500D01*
G37*
G36*
X98500Y111186D02*Y94500D01*
X91500D01*
Y112000D01*
X98457D01*
Y111602D01*
X98452Y111543D01*
X98471Y111308D01*
X98500Y111186D01*
G37*
G36*
X190500Y205500D02*Y219500D01*
X207500D01*
Y217384D01*
X202127Y217381D01*
X201974Y217344D01*
X201829Y217284D01*
X201694Y217202D01*
X201575Y217099D01*
X201472Y216980D01*
X201390Y216845D01*
X201330Y216700D01*
X201293Y216547D01*
X201284Y216390D01*
X201293Y212453D01*
X201330Y212300D01*
X201390Y212155D01*
X201472Y212020D01*
X201575Y211901D01*
X201694Y211798D01*
X201829Y211716D01*
X201974Y211656D01*
X202127Y211619D01*
X202284Y211610D01*
X207500Y211613D01*
Y205500D01*
X190500D01*
G37*
G36*
X207500Y195500D02*X201500D01*
Y208500D01*
X207500D01*
Y195500D01*
G37*
G36*
X177000Y204000D02*X189000D01*
Y188500D01*
X177000D01*
Y204000D01*
G37*
G36*
X142000Y174000D02*X150500D01*
Y156500D01*
X142000D01*
Y174000D01*
G37*
G36*
X136000Y207500D02*X150500D01*
Y171000D01*
X136000D01*
Y207500D01*
G37*
G36*
X142000Y156500D02*Y168000D01*
X158256D01*
X158369Y167869D01*
X158644Y167634D01*
X158953Y167444D01*
X159287Y167306D01*
X159639Y167221D01*
X160000Y167193D01*
X160361Y167221D01*
X160713Y167306D01*
X161047Y167444D01*
X161356Y167634D01*
X161631Y167869D01*
X161744Y168000D01*
X163256D01*
X163369Y167869D01*
X163644Y167634D01*
X163953Y167444D01*
X164287Y167306D01*
X164639Y167221D01*
X165000Y167193D01*
X165361Y167221D01*
X165713Y167306D01*
X166047Y167444D01*
X166356Y167634D01*
X166631Y167869D01*
X166744Y168000D01*
X168256D01*
X168369Y167869D01*
X168644Y167634D01*
X168953Y167444D01*
X169287Y167306D01*
X169639Y167221D01*
X170000Y167193D01*
X170361Y167221D01*
X170713Y167306D01*
X171047Y167444D01*
X171356Y167634D01*
X171631Y167869D01*
X171744Y168000D01*
X178256D01*
X178369Y167869D01*
X178644Y167634D01*
X178953Y167444D01*
X179287Y167306D01*
X179639Y167221D01*
X180000Y167193D01*
X180361Y167221D01*
X180713Y167306D01*
X181047Y167444D01*
X181356Y167634D01*
X181631Y167869D01*
X181744Y168000D01*
X183000D01*
Y156500D01*
X142000D01*
G37*
G36*
X183000Y168000D02*Y135500D01*
X182059D01*
X182000Y135505D01*
X181765Y135486D01*
X181535Y135431D01*
X181317Y135341D01*
X181116Y135217D01*
X181115Y135217D01*
X180936Y135064D01*
X180898Y135019D01*
X175879Y130000D01*
X167000D01*
Y168000D01*
X168256D01*
X168369Y167869D01*
X168644Y167634D01*
X168953Y167444D01*
X169287Y167306D01*
X169639Y167221D01*
X170000Y167193D01*
X170361Y167221D01*
X170713Y167306D01*
X171047Y167444D01*
X171356Y167634D01*
X171631Y167869D01*
X171744Y168000D01*
X178256D01*
X178369Y167869D01*
X178644Y167634D01*
X178953Y167444D01*
X179287Y167306D01*
X179639Y167221D01*
X180000Y167193D01*
X180361Y167221D01*
X180713Y167306D01*
X181047Y167444D01*
X181356Y167634D01*
X181631Y167869D01*
X181744Y168000D01*
X183000D01*
G37*
G36*
X209500Y222500D02*X235000D01*
Y218000D01*
X209500D01*
Y222500D01*
G37*
G36*
X219000D02*X235000D01*
Y211500D01*
X219000D01*
Y222500D01*
G37*
G36*
X229000D02*X235000D01*
Y203059D01*
X234995Y203000D01*
X235000Y202941D01*
Y193500D01*
X229000D01*
Y222500D01*
G37*
G36*
X228000Y210500D02*Y190036D01*
X222464Y184500D01*
X209000D01*
Y209500D01*
X210000Y210500D01*
X228000D01*
G37*
G36*
X254500Y138000D02*X264500D01*
Y131000D01*
X254500D01*
Y138000D01*
G37*
G54D12*X137350Y70815D02*Y81500D01*
X140500Y76000D02*Y70815D01*
G54D13*X146799D02*Y63200D01*
X153098Y70815D02*Y64901D01*
X154999Y63000D01*
X149948Y70815D02*Y64051D01*
X156247Y70815D02*Y66752D01*
X157499Y65500D01*
X146799Y63200D02*X150999Y59000D01*
X153499Y60500D02*X159499D01*
X149948Y64051D02*X153499Y60500D01*
X150999Y59000D02*Y52450D01*
X160999Y59000D02*Y52450D01*
X170999Y59000D02*Y52450D01*
X159499Y60500D02*X160999Y59000D01*
X154999Y63000D02*X166999D01*
X170999Y59000D01*
X157499Y65500D02*X174499D01*
X180999Y59000D01*
X172000Y78000D02*X191000Y59000D01*
X173500Y80500D02*X194000Y60000D01*
X175000Y83000D02*X195500Y62500D01*
X180999Y59000D02*Y52450D01*
X191000Y59000D02*Y52450D01*
G54D14*X143000Y18550D02*X221000D01*
G54D13*X194000Y60000D02*X200000D01*
X201000Y59000D01*
Y52450D01*
X195500Y62500D02*X207500D01*
X211000Y59000D01*
Y52450D01*
X176500Y85500D02*X197000Y65000D01*
X181500Y84500D02*X196000Y70000D01*
X202957D01*
X184000Y86000D02*X191500Y78500D01*
X202957D01*
X191500Y87000D02*X202957D01*
X169300Y89200D02*X173000Y85500D01*
X176500D01*
X181500Y101000D02*Y84500D01*
X184000Y86000D02*Y101500D01*
X168949Y86051D02*X172000Y83000D01*
X168599Y82901D02*X171000Y80500D01*
X167748Y79752D02*X169500Y78000D01*
X172000D02*X169500D01*
X171000Y80500D02*X173500D01*
X172000Y83000D02*X175000D01*
G54D12*X160000Y95500D02*X165185D01*
G54D13*Y89200D02*X169300D01*
X165185Y86051D02*X168949D01*
X165185Y82901D02*X168599D01*
X165185Y79752D02*X167748D01*
X186500Y102000D02*Y92000D01*
X191500Y87000D01*
X197000Y65000D02*X215000D01*
X221000Y59000D01*
Y52450D01*
X239000Y70000D02*X210043D01*
X234000Y78500D02*X210043D01*
X247000Y69000D02*X229000Y87000D01*
X249500Y70000D02*X224000Y95500D01*
X229000Y87000D02*X210043D01*
X224000Y95500D02*X210043D01*
X196098D02*X202957D01*
X242000Y10500D02*Y67000D01*
X262457Y33000D02*X250500D01*
X247000Y36500D01*
X262457Y46000D02*X253000D01*
X249500Y49500D01*
X262457Y7000D02*X245500D01*
X242000Y10500D01*
X262457Y20000D02*X248000D01*
X244500Y23500D01*
G54D15*X268000Y7000D02*Y46000D01*
G54D13*X244500Y23500D02*Y68000D01*
X247000Y36500D02*Y69000D01*
X249500Y49500D02*Y70000D01*
X242000Y67000D02*X239000Y70000D01*
X244500Y68000D02*X234000Y78500D01*
X137043Y218500D02*X145457D01*
X170543D02*X178957D01*
X186043D02*Y223043D01*
X187500Y224500D01*
G54D15*X294799Y223988D02*X299500D01*
X294799Y214146D02*X299500D01*
G54D13*X187500Y224500D02*X207500D01*
X199000Y191000D02*X184500D01*
G54D14*X160000Y196500D02*X147500D01*
G54D13*X160000Y169500D02*Y178760D01*
X165000Y169500D02*Y186500D01*
X170000Y191500D01*
X199500Y164000D02*X179000D01*
X193957Y181000D02*Y171000D01*
X201043Y181000D02*Y188957D01*
X199000Y191000D01*
X201043Y171000D02*Y165543D01*
X199500Y164000D01*
X207500Y224500D02*X211000Y221000D01*
G54D15*X243201Y209224D02*X232000D01*
G54D13*X238500Y198000D02*X239882Y199382D01*
X243201D01*
Y204303D02*X237803D01*
X236500Y203000D01*
G54D15*X243201Y214146D02*X238500D01*
X232000Y190500D02*Y201500D01*
G54D13*X236500Y203000D02*Y188000D01*
X243201Y184618D02*X240118D01*
X238500Y198000D02*Y187000D01*
X240118Y184618D02*X233500Y178000D01*
G54D15*X232000Y190500D02*X214000Y172500D01*
G54D13*X238500Y187000D02*X230500Y179000D01*
X236500Y188000D02*X228500Y180000D01*
X222543Y167500D02*X228500D01*
X207543Y175957D02*X210000Y173500D01*
X170000Y169500D02*Y178760D01*
X180000Y169500D02*Y178760D01*
Y175957D02*X207543D01*
X165185Y98649D02*X169149D01*
X172500Y102000D01*
X165185Y101799D02*X169299D01*
X171500Y104000D01*
X165185Y104948D02*X169448D01*
X170500Y106000D01*
X165185Y108098D02*X183500D01*
X171500Y104000D02*X181500D01*
X170500Y106000D02*X182500D01*
X172500Y102000D02*X180500D01*
X181500Y101000D01*
X184000Y101500D02*X181500Y104000D01*
X124457Y131043D02*Y151000D01*
X125500Y130000D02*X124457Y131043D01*
X133000Y130000D02*X125500D01*
X134201Y128799D02*X133000Y130000D01*
X126500Y125500D02*X127902Y124098D01*
Y120185D01*
X137351Y128851D02*X138500Y130000D01*
X134201Y120185D02*Y128799D01*
X137351Y120185D02*Y128851D01*
X146800Y120185D02*Y125800D01*
X152000Y131000D01*
X149949Y120185D02*Y125949D01*
X155500Y131500D01*
X153099Y120185D02*Y126099D01*
X159000Y132000D01*
X156248Y120185D02*Y126248D01*
X162500Y132500D01*
G54D16*X171000Y134000D02*X162500Y125500D01*
Y117500D01*
X156500Y111500D01*
G54D14*X166000Y114000D02*X162500Y117500D01*
G54D13*X147543Y131043D02*Y151000D01*
X146500Y130000D02*X147543Y131043D01*
X138500Y130000D02*X146500D01*
X152000Y131000D02*Y144500D01*
X155500Y131500D02*Y144500D01*
X159000Y132000D02*Y144500D01*
X162500Y132500D02*Y144500D01*
X189250Y144000D02*Y146750D01*
X191000Y148500D01*
X220000D01*
X186500Y102000D02*X182500Y106000D01*
X183500Y108098D02*X196098Y95500D01*
G54D14*X189250Y114000D02*X166000D01*
G54D13*X169000Y117000D02*X177000D01*
X179000Y119000D01*
X171500Y120500D02*X176500D01*
X169500Y123500D02*X175500D01*
X179000Y119000D02*X189250D01*
X176500Y120500D02*X180000Y124000D01*
X189250D01*
X175500Y123500D02*X181000Y129000D01*
X171500Y126500D02*X174500D01*
X182000Y134000D01*
X181000Y129000D02*X189250D01*
X182000Y134000D02*X189250D01*
X216000D02*X209750D01*
X216000Y129000D02*X209750D01*
X216000Y124000D02*X209750D01*
X216000Y119000D02*X209750D01*
G54D15*X220000Y115500D02*Y147500D01*
X214000Y153500D01*
G54D13*X225500Y152500D02*X223500D01*
X233000D02*X230500D01*
X233000Y123000D02*X232000Y124000D01*
X224000D01*
X239500Y121000D02*Y141500D01*
X230500Y136000D02*X229500Y135000D01*
Y133000D01*
X226500Y132000D02*X229000Y129500D01*
X234000D01*
X237500Y143000D02*Y125500D01*
G54D15*X220000Y115500D02*X218500Y114000D01*
X209750D01*
G54D13*X227000Y119000D02*X237500D01*
X239500Y121000D01*
X237500Y125500D02*X235000Y123000D01*
X233000D01*
X294799Y174776D02*X300224D01*
X302500Y172500D01*
X305500Y182500D02*Y154000D01*
X303382Y184618D02*X305500Y182500D01*
X308500Y152500D02*Y187500D01*
X310000Y149500D02*Y144000D01*
X305500Y145000D02*Y137000D01*
X307000Y135500D01*
X311000D01*
X294799Y189539D02*X306461D01*
X308500Y187500D01*
X327500Y170500D02*X316500D01*
X294799Y184618D02*X303382D01*
X327500Y163457D02*Y137500D01*
X325500Y135500D01*
X318086D01*
X316500Y163457D02*Y150500D01*
X318000Y149000D01*
Y144000D01*
X298500Y145500D02*X302500Y149500D01*
X299500Y143500D02*X308500Y152500D01*
G54D15*X294799Y160012D02*X299500D01*
G54D13*X302500Y172500D02*Y149500D01*
X296000Y147500D02*X299500Y151000D01*
X302000Y123000D02*X306500D01*
X308500Y121000D01*
Y114500D01*
X298500Y104500D01*
X299500Y120500D02*X302000Y123000D01*
X299500Y125500D02*X301100Y127100D01*
X290800Y116800D02*X294500Y120500D01*
X235500Y171000D02*Y158500D01*
X233500Y178000D02*Y156000D01*
G54D15*X214000Y153500D02*Y172500D01*
G54D13*X210000Y173500D02*Y151500D01*
G54D15*X243201Y169854D02*X238500D01*
G54D13*X243201Y174776D02*X239276D01*
X235500Y171000D01*
X289500Y125500D02*X287000D01*
X286000Y126500D01*
X289500Y120500D02*X287000D01*
X286000Y119500D01*
X283000Y104500D02*X270500Y117000D01*
X290800Y108000D02*Y116800D01*
X299000Y104500D02*X283500D01*
X286000Y119500D02*X255000D01*
X270500Y117000D02*X254000D01*
X298500Y145500D02*X240000D01*
X299500Y143500D02*X241500D01*
X287500Y140500D02*X243500D01*
X290800Y141000D02*Y143500D01*
X242000Y147500D02*X296000D01*
X294500Y125500D02*X291000Y129000D01*
Y137000D01*
X287500Y140500D01*
X286000Y126500D02*X251500D01*
X268543Y134500D02*Y140500D01*
X301100Y127100D02*Y128400D01*
X305700Y133000D01*
X242500D02*X245000D01*
X251500Y126500D01*
X255000Y119500D02*X245000Y129500D01*
X242500D01*
X254000Y117000D02*X246000Y125000D01*
X242500D01*
X228500Y180000D02*Y137000D01*
X226500Y132000D02*Y135000D01*
X228500Y137000D02*X226500Y135000D01*
X239500Y141500D02*X241500Y143500D01*
X223500Y152500D02*X222500Y153500D01*
Y158500D01*
X223500Y149000D02*Y131500D01*
X229000Y126000D01*
X234000D01*
G54D15*X243201Y160012D02*X238500D01*
G54D13*X237500Y143000D02*X240000Y145500D01*
X233500Y156000D02*X242000Y147500D01*
X243500Y150500D02*X235500Y158500D01*
X230500Y179000D02*Y136000D01*
X134200Y70815D02*Y63200D01*
X130000Y59000D01*
X131051Y70815D02*Y64051D01*
X127901Y64901D02*X126000Y63000D01*
X127901Y70815D02*Y64901D01*
X131051Y64051D02*X127500Y60500D01*
X124752Y70815D02*Y66752D01*
X123500Y65500D01*
X130000Y59000D02*Y52450D01*
X127500Y60500D02*X121500D01*
X120000Y59000D01*
Y52450D01*
X114000Y63000D02*X110000Y59000D01*
Y52450D01*
X123500Y65500D02*X106500D01*
X126000Y63000D02*X114000D01*
X82500Y61500D02*X88500D01*
X82500D02*X80000Y59000D01*
X106500Y65500D02*X100000Y59000D01*
X109000Y78000D02*X90000Y59000D01*
X109000Y78000D02*X111500D01*
X107500Y80500D02*X88500Y61500D01*
X100000Y59000D02*Y52450D01*
X90000Y59000D02*Y52450D01*
X80000Y59000D02*Y52450D01*
X106000Y83000D02*X87000Y64000D01*
X104500Y85500D02*X85500Y66500D01*
X63500Y63000D02*X74500Y74000D01*
X64500Y61000D02*X77500Y74000D01*
G54D14*X60000Y18550D02*X138000D01*
G54D13*X87000Y64000D02*X79000D01*
X70000Y55000D01*
X64000Y59000D02*X71000D01*
X78500Y66500D01*
X85500D01*
X60000Y55000D02*X64000Y59000D01*
X45500Y53000D02*X55500Y63000D01*
X63500D01*
X36500Y41000D02*X56500Y61000D01*
X64500D01*
G54D17*X67000Y78500D02*Y72500D01*
X61000Y66500D01*
X48000D01*
X6000Y108500D01*
G54D13*X36500Y88500D02*X15000Y110000D01*
X13000Y109000D02*X35500Y86500D01*
X67000Y88500D02*X36500D01*
X35500Y86500D02*X54000D01*
X57000Y83500D01*
X11457Y53000D02*Y41000D01*
X36500D02*X18543D01*
X45500Y53000D02*X18543D01*
G54D17*X6000Y108500D02*Y185000D01*
G54D13*X58250Y139000D02*X53500D01*
X52000Y137500D01*
X58250Y134000D02*X53500D01*
X52000Y135500D01*
X18000D01*
X52000Y137500D02*X17000D01*
X22000D02*Y145000D01*
Y135500D02*Y125000D01*
X18000Y135500D02*X15000Y132500D01*
X17000Y137500D02*X13000Y133500D01*
X15000Y132500D02*Y110000D01*
X13000Y133500D02*Y109000D01*
X78750Y134000D02*X68500D01*
G54D17*X6000Y185000D02*Y190000D01*
X10000Y194000D01*
X27000D01*
X22000Y185000D02*X46500D01*
X51500Y190000D01*
Y197000D01*
X27000Y194000D02*X44500Y211500D01*
X51500D01*
G54D12*X143650Y120185D02*Y109500D01*
X140500Y120185D02*Y115000D01*
X115815Y92351D02*X121000D01*
G54D13*X111700Y89200D02*X115815D01*
X111700D02*X108000Y85500D01*
X112051Y86051D02*X115815D01*
X112051D02*X109000Y83000D01*
X112401Y82901D02*X115815D01*
X112401D02*X110000Y80500D01*
X107500D02*X110000D01*
X106000Y83000D02*X109000D01*
X104500Y85500D02*X108000D01*
X115815Y101800D02*X109700D01*
X113252Y79752D02*X111500Y78000D01*
X121500Y113500D02*X106000Y129000D01*
X112000Y118000D02*X107043D01*
X94000Y144000D02*X112500Y125500D01*
X93500Y123000D02*X99000D01*
X99957Y122043D01*
X113252Y79752D02*X115815D01*
Y111248D02*X119752D01*
X115815Y108099D02*X119401D01*
X120000Y107500D01*
X119752Y111248D02*X120500Y110500D01*
X112500Y125500D02*X126500D01*
X123185Y120185D02*X124752D01*
X120500Y110500D02*X122500D01*
X120000Y107500D02*X124500D01*
X115815Y104949D02*X119551D01*
X120000Y104500D01*
X122500D01*
X131052Y120185D02*Y116552D01*
X128000Y113500D01*
X121500D01*
X122500Y116500D02*Y119500D01*
X123185Y120185D01*
G54D18*X102700Y186200D02*Y165000D01*
G54D13*X94957Y203000D02*Y198543D01*
X96000Y197500D01*
X102000D01*
X102700Y196800D01*
Y194500D01*
X94500D02*X91000D01*
Y210000D02*X132000D01*
G54D14*X94500Y186700D02*X84000D01*
G54D13*X94500Y190600D02*X88100D01*
X87000Y189500D01*
Y186700D01*
X102043Y203500D02*X113450D01*
X91000Y194500D02*X89500Y196000D01*
Y208500D01*
X91000Y210000D01*
X94000Y144000D02*X78750D01*
Y139000D02*X86000D01*
X88000Y137000D01*
Y132000D01*
X96575D02*Y136575D01*
X99000Y139000D01*
X74500Y74000D02*Y107500D01*
X77500Y74000D02*Y101000D01*
X106000Y129000D02*X78750D01*
X96575Y126000D02*X94000D01*
X93000Y127000D01*
X85500D01*
X77500Y114500D02*Y129000D01*
X85500Y127000D02*X84457Y125957D01*
Y118000D01*
X91543D02*Y109000D01*
X88000Y124000D02*X92500D01*
X93500Y123000D01*
X99957Y122043D02*Y111543D01*
X109700Y101800D02*X99957Y111543D01*
G54D19*X318000Y213000D03*
Y17000D03*
G54D20*X32000Y106000D03*
G54D21*X67000Y98500D03*
X57000Y93500D03*
X67000Y88500D03*
X57000Y83500D03*
X67000Y78500D03*
X57000Y73500D03*
G54D20*X32000Y66000D03*
G54D19*X17000Y17000D03*
Y213000D03*
G54D11*G36*
X18000Y149000D02*Y141000D01*
X26000D01*
Y149000D01*
X18000D01*
G37*
G54D22*X22000Y125000D03*
G54D11*G36*
X18000Y189000D02*Y181000D01*
X26000D01*
Y189000D01*
X18000D01*
G37*
G54D22*X22000Y165000D03*
G54D11*G36*
X54000Y145000D02*Y143000D01*
X62500D01*
Y145000D01*
X54000D01*
G37*
G36*
Y140000D02*Y138000D01*
X62500D01*
Y140000D01*
X54000D01*
G37*
G36*
Y135000D02*Y133000D01*
X62500D01*
Y135000D01*
X54000D01*
G37*
G36*
X74500Y130000D02*Y128000D01*
X83000D01*
Y130000D01*
X74500D01*
G37*
G36*
Y135000D02*Y133000D01*
X83000D01*
Y135000D01*
X74500D01*
G37*
G36*
Y140000D02*Y138000D01*
X83000D01*
Y140000D01*
X74500D01*
G37*
G36*
Y145000D02*Y143000D01*
X83000D01*
Y145000D01*
X74500D01*
G37*
G36*
X54000Y130000D02*Y128000D01*
X62500D01*
Y130000D01*
X54000D01*
G37*
G36*
X62516Y122952D02*X57398D01*
Y117048D01*
X62516D01*
Y122952D01*
G37*
G36*
X109602Y120952D02*X104484D01*
Y115048D01*
X109602D01*
Y120952D01*
G37*
G36*
X102516D02*X97398D01*
Y115048D01*
X102516D01*
Y120952D01*
G37*
G36*
X87016D02*X81898D01*
Y115048D01*
X87016D01*
Y120952D01*
G37*
G36*
X94102D02*X88984D01*
Y115048D01*
X94102D01*
Y120952D01*
G37*
G36*
X69602Y122952D02*X64484D01*
Y117048D01*
X69602D01*
Y122952D01*
G37*
G36*
X67650Y166457D02*X61350D01*
Y153858D01*
X67650D01*
Y166457D01*
G37*
G36*
X106472Y154937D02*Y147063D01*
X130094D01*
Y154937D01*
X106472D01*
G37*
G36*
X141906D02*Y147063D01*
X165528D01*
Y154937D01*
X141906D01*
G37*
G36*
X150102Y137452D02*X144984D01*
Y131548D01*
X150102D01*
Y137452D01*
G37*
G36*
X143016D02*X137898D01*
Y131548D01*
X143016D01*
Y137452D01*
G37*
G36*
X127016D02*X121898D01*
Y131548D01*
X127016D01*
Y137452D01*
G37*
G36*
X134102D02*X128984D01*
Y131548D01*
X134102D01*
Y137452D01*
G37*
G36*
X205500Y130000D02*Y128000D01*
X214000D01*
Y130000D01*
X205500D01*
G37*
G36*
Y135000D02*Y133000D01*
X214000D01*
Y135000D01*
X205500D01*
G37*
G36*
Y140000D02*Y138000D01*
X214000D01*
Y140000D01*
X205500D01*
G37*
G36*
Y145000D02*Y143000D01*
X214000D01*
Y145000D01*
X205500D01*
G37*
G36*
X225102Y161452D02*X219984D01*
Y155548D01*
X225102D01*
Y161452D01*
G37*
G36*
X218016D02*X212898D01*
Y155548D01*
X218016D01*
Y161452D01*
G37*
G36*
X185000Y145000D02*Y143000D01*
X193500D01*
Y145000D01*
X185000D01*
G37*
G36*
Y140000D02*Y138000D01*
X193500D01*
Y140000D01*
X185000D01*
G37*
G36*
Y135000D02*Y133000D01*
X193500D01*
Y135000D01*
X185000D01*
G37*
G54D23*X289500Y120500D03*
Y125500D03*
X294500Y120500D03*
Y125500D03*
X299500Y120500D03*
Y125500D03*
G54D11*G36*
X264016Y137452D02*X258898D01*
Y131548D01*
X264016D01*
Y137452D01*
G37*
G36*
X271102D02*X265984D01*
Y131548D01*
X271102D01*
Y137452D01*
G37*
G36*
X320645Y138452D02*X315527D01*
Y132548D01*
X320645D01*
Y138452D01*
G37*
G36*
X313559D02*X308441D01*
Y132548D01*
X313559D01*
Y138452D01*
G37*
G36*
X320602Y146952D02*X315484D01*
Y141048D01*
X320602D01*
Y146952D01*
G37*
G36*
X313516D02*X308398D01*
Y141048D01*
X313516D01*
Y146952D01*
G37*
G36*
X185000Y130000D02*Y128000D01*
X193500D01*
Y130000D01*
X185000D01*
G37*
G36*
X205500Y115000D02*Y113000D01*
X214000D01*
Y115000D01*
X205500D01*
G37*
G36*
Y120000D02*Y118000D01*
X214000D01*
Y120000D01*
X205500D01*
G37*
G36*
Y125000D02*Y123000D01*
X214000D01*
Y125000D01*
X205500D01*
G37*
G36*
X185000D02*Y123000D01*
X193500D01*
Y125000D01*
X185000D01*
G37*
G36*
Y120000D02*Y118000D01*
X193500D01*
Y120000D01*
X185000D01*
G37*
G36*
Y115000D02*Y113000D01*
X193500D01*
Y115000D01*
X185000D01*
G37*
G36*
X205602Y107452D02*X200484D01*
Y101548D01*
X205602D01*
Y107452D01*
G37*
G36*
X198516D02*X193398D01*
Y101548D01*
X198516D01*
Y107452D01*
G37*
G36*
X212602Y98452D02*X207484D01*
Y92548D01*
X212602D01*
Y98452D01*
G37*
G36*
X205516D02*X200398D01*
Y92548D01*
X205516D01*
Y98452D01*
G37*
G36*
X212602Y89952D02*X207484D01*
Y84048D01*
X212602D01*
Y89952D01*
G37*
G36*
X205516D02*X200398D01*
Y84048D01*
X205516D01*
Y89952D01*
G37*
G36*
X212602Y81452D02*X207484D01*
Y75548D01*
X212602D01*
Y81452D01*
G37*
G36*
X205516D02*X200398D01*
Y75548D01*
X205516D01*
Y81452D01*
G37*
G36*
X212602Y72952D02*X207484D01*
Y67048D01*
X212602D01*
Y72952D01*
G37*
G36*
X205516D02*X200398D01*
Y67048D01*
X205516D01*
Y72952D01*
G37*
G36*
X207016Y201952D02*X201898D01*
Y196048D01*
X207016D01*
Y201952D01*
G37*
G36*
X214102D02*X208984D01*
Y196048D01*
X214102D01*
Y201952D01*
G37*
G36*
X181516Y221452D02*X176398D01*
Y215548D01*
X181516D01*
Y221452D01*
G37*
G36*
X188602D02*X183484D01*
Y215548D01*
X188602D01*
Y221452D01*
G37*
G36*
X166016D02*X160898D01*
Y215548D01*
X166016D01*
Y221452D01*
G37*
G36*
X173102D02*X167984D01*
Y215548D01*
X173102D01*
Y221452D01*
G37*
G36*
X210000Y210484D02*Y206704D01*
X217874D01*
Y210484D01*
X210000D01*
G37*
G36*
X202284Y216390D02*Y212610D01*
X217874D01*
Y216390D01*
X202284D01*
G37*
G36*
X195825Y219225D02*Y209775D01*
X207165D01*
Y219225D01*
X195825D01*
G37*
G36*
X210005Y212615D02*X208585Y214035D01*
X205745Y211195D01*
X207165Y209775D01*
X210005Y212615D01*
G37*
G36*
X207165Y219225D02*X205745Y217805D01*
X208585Y214965D01*
X210005Y216385D01*
X207165Y219225D01*
G37*
G36*
X210000Y222296D02*Y218516D01*
X217874D01*
Y222296D01*
X210000D01*
G37*
G36*
X227516Y209952D02*X222398D01*
Y204048D01*
X227516D01*
Y209952D01*
G37*
G36*
Y199952D02*X222398D01*
Y194048D01*
X227516D01*
Y199952D01*
G37*
G36*
X139602Y221452D02*X134484D01*
Y215548D01*
X139602D01*
Y221452D01*
G37*
G36*
X132516D02*X127398D01*
Y215548D01*
X132516D01*
Y221452D01*
G37*
G36*
X155102D02*X149984D01*
Y215548D01*
X155102D01*
Y221452D01*
G37*
G36*
X148016D02*X142898D01*
Y215548D01*
X148016D01*
Y221452D01*
G37*
G36*
X162500Y186004D02*X157500D01*
Y171516D01*
X162500D01*
Y186004D01*
G37*
G36*
Y203484D02*X157500D01*
Y188996D01*
X162500D01*
Y203484D01*
G37*
G36*
X172500Y186004D02*X167500D01*
Y171516D01*
X172500D01*
Y186004D01*
G37*
G36*
Y203484D02*X167500D01*
Y188996D01*
X172500D01*
Y203484D01*
G37*
G36*
X182500Y186004D02*X177500D01*
Y171516D01*
X182500D01*
Y186004D01*
G37*
G36*
Y203484D02*X177500D01*
Y188996D01*
X182500D01*
Y203484D01*
G37*
G36*
X196516Y183952D02*X191398D01*
Y178048D01*
X196516D01*
Y183952D01*
G37*
G36*
X203602D02*X198484D01*
Y178048D01*
X203602D01*
Y183952D01*
G37*
G36*
X196516Y173952D02*X191398D01*
Y168048D01*
X196516D01*
Y173952D01*
G37*
G36*
X203602D02*X198484D01*
Y168048D01*
X203602D01*
Y173952D01*
G37*
G36*
X134850Y206850D02*X132550D01*
Y183150D01*
X134850D01*
Y206850D01*
G37*
G36*
X126950D02*Y204550D01*
X134850D01*
Y206850D01*
X126950D01*
G37*
G36*
X134671Y188923D02*X132550Y191044D01*
X126956Y185450D01*
X129077Y183329D01*
X134671Y188923D01*
G37*
G36*
X129077Y206671D02*X126956Y204550D01*
X132550Y198956D01*
X134671Y201077D01*
X129077Y206671D01*
G37*
G36*
X130550Y187450D02*Y183450D01*
X134550D01*
Y187450D01*
X130550D01*
G37*
G36*
Y206550D02*Y202550D01*
X134550D01*
Y206550D01*
X130550D01*
G37*
G36*
X126950Y185450D02*Y183150D01*
X134850D01*
Y185450D01*
X126950D01*
G37*
G36*
X132102Y178452D02*X126984D01*
Y172548D01*
X132102D01*
Y178452D01*
G37*
G36*
Y169452D02*X126984D01*
Y163548D01*
X132102D01*
Y169452D01*
G37*
G36*
X240350Y215796D02*Y212496D01*
X246052D01*
Y215796D01*
X240350D01*
G37*
G36*
Y210874D02*Y207574D01*
X246052D01*
Y210874D01*
X240350D01*
G37*
G36*
Y205953D02*Y202653D01*
X246052D01*
Y205953D01*
X240350D01*
G37*
G36*
Y201032D02*Y197732D01*
X246052D01*
Y201032D01*
X240350D01*
G37*
G36*
Y196111D02*Y192811D01*
X246052D01*
Y196111D01*
X240350D01*
G37*
G36*
Y191189D02*Y187889D01*
X246052D01*
Y191189D01*
X240350D01*
G37*
G36*
Y186268D02*Y182968D01*
X246052D01*
Y186268D01*
X240350D01*
G37*
G36*
X234602Y209952D02*X229484D01*
Y204048D01*
X234602D01*
Y209952D01*
G37*
G36*
Y199952D02*X229484D01*
Y194048D01*
X234602D01*
Y199952D01*
G37*
G36*
X240350Y181347D02*Y178047D01*
X246052D01*
Y181347D01*
X240350D01*
G37*
G36*
Y176426D02*Y173126D01*
X246052D01*
Y176426D01*
X240350D01*
G37*
G36*
Y171504D02*Y168204D01*
X246052D01*
Y171504D01*
X240350D01*
G37*
G36*
Y166583D02*Y163283D01*
X246052D01*
Y166583D01*
X240350D01*
G37*
G36*
Y161662D02*Y158362D01*
X246052D01*
Y161662D01*
X240350D01*
G37*
G36*
X253426Y156800D02*X250126D01*
Y151102D01*
X253426D01*
Y156800D01*
G37*
G36*
X225102Y170452D02*X219984D01*
Y164548D01*
X225102D01*
Y170452D01*
G37*
G36*
X218016D02*X212898D01*
Y164548D01*
X218016D01*
Y170452D01*
G37*
G36*
X258347Y156800D02*X255047D01*
Y151102D01*
X258347D01*
Y156800D01*
G37*
G36*
X263268D02*X259968D01*
Y151102D01*
X263268D01*
Y156800D01*
G37*
G36*
X268189D02*X264889D01*
Y151102D01*
X268189D01*
Y156800D01*
G37*
G36*
X273111D02*X269811D01*
Y151102D01*
X273111D01*
Y156800D01*
G37*
G36*
X278032D02*X274732D01*
Y151102D01*
X278032D01*
Y156800D01*
G37*
G36*
X282953D02*X279653D01*
Y151102D01*
X282953D01*
Y156800D01*
G37*
G36*
X287874D02*X284574D01*
Y151102D01*
X287874D01*
Y156800D01*
G37*
G36*
X291948Y161662D02*Y158362D01*
X297650D01*
Y161662D01*
X291948D01*
G37*
G36*
Y166583D02*Y163283D01*
X297650D01*
Y166583D01*
X291948D01*
G37*
G36*
Y171504D02*Y168204D01*
X297650D01*
Y171504D01*
X291948D01*
G37*
G36*
Y176426D02*Y173126D01*
X297650D01*
Y176426D01*
X291948D01*
G37*
G36*
X313548Y173102D02*Y167984D01*
X319452D01*
Y173102D01*
X313548D01*
G37*
G36*
Y166016D02*Y160898D01*
X319452D01*
Y166016D01*
X313548D01*
G37*
G36*
X324548Y173102D02*Y167984D01*
X330452D01*
Y173102D01*
X324548D01*
G37*
G36*
Y166016D02*Y160898D01*
X330452D01*
Y166016D01*
X324548D01*
G37*
G36*
X291948Y181347D02*Y178047D01*
X297650D01*
Y181347D01*
X291948D01*
G37*
G36*
Y186268D02*Y182968D01*
X297650D01*
Y186268D01*
X291948D01*
G37*
G36*
Y191189D02*Y187889D01*
X297650D01*
Y191189D01*
X291948D01*
G37*
G36*
Y196111D02*Y192811D01*
X297650D01*
Y196111D01*
X291948D01*
G37*
G36*
Y201032D02*Y197732D01*
X297650D01*
Y201032D01*
X291948D01*
G37*
G36*
Y205953D02*Y202653D01*
X297650D01*
Y205953D01*
X291948D01*
G37*
G36*
Y210874D02*Y207574D01*
X297650D01*
Y210874D01*
X291948D01*
G37*
G36*
Y215796D02*Y212496D01*
X297650D01*
Y215796D01*
X291948D01*
G37*
G36*
Y220717D02*Y217417D01*
X297650D01*
Y220717D01*
X291948D01*
G37*
G36*
Y225638D02*Y222338D01*
X297650D01*
Y225638D01*
X291948D01*
G37*
G36*
X153200Y23350D02*X148800D01*
Y13750D01*
X153200D01*
Y23350D01*
G37*
G36*
X163200D02*X158800D01*
Y13750D01*
X163200D01*
Y23350D01*
G37*
G36*
X173200D02*X168800D01*
Y13750D01*
X173200D01*
Y23350D01*
G37*
G36*
X183200D02*X178800D01*
Y13750D01*
X183200D01*
Y23350D01*
G37*
G36*
X193200D02*X188800D01*
Y13750D01*
X193200D01*
Y23350D01*
G37*
G36*
X203200D02*X198800D01*
Y13750D01*
X203200D01*
Y23350D01*
G37*
G36*
X213200D02*X208800D01*
Y13750D01*
X213200D01*
Y23350D01*
G37*
G36*
X153200Y57250D02*X148800D01*
Y47650D01*
X153200D01*
Y57250D01*
G37*
G36*
X163200D02*X158800D01*
Y47650D01*
X163200D01*
Y57250D01*
G37*
G36*
X173200D02*X168800D01*
Y47650D01*
X173200D01*
Y57250D01*
G37*
G36*
X183200D02*X178800D01*
Y47650D01*
X183200D01*
Y57250D01*
G37*
G36*
X193200D02*X188800D01*
Y47650D01*
X193200D01*
Y57250D01*
G37*
G36*
X203200D02*X198800D01*
Y47650D01*
X203200D01*
Y57250D01*
G37*
G36*
X213200D02*X208800D01*
Y47650D01*
X213200D01*
Y57250D01*
G37*
G36*
X223200D02*X218800D01*
Y47650D01*
X223200D01*
Y57250D01*
G37*
G36*
X62200Y23350D02*X57800D01*
Y13750D01*
X62200D01*
Y23350D01*
G37*
G36*
X72200D02*X67800D01*
Y13750D01*
X72200D01*
Y23350D01*
G37*
G36*
X82200D02*X77800D01*
Y13750D01*
X82200D01*
Y23350D01*
G37*
G36*
X92200D02*X87800D01*
Y13750D01*
X92200D01*
Y23350D01*
G37*
G36*
X102200D02*X97800D01*
Y13750D01*
X102200D01*
Y23350D01*
G37*
G36*
X112200D02*X107800D01*
Y13750D01*
X112200D01*
Y23350D01*
G37*
G36*
X122200D02*X117800D01*
Y13750D01*
X122200D01*
Y23350D01*
G37*
G36*
X132200D02*X127800D01*
Y13750D01*
X132200D01*
Y23350D01*
G37*
G36*
X14016Y55952D02*X8898D01*
Y50048D01*
X14016D01*
Y55952D01*
G37*
G36*
X21102D02*X15984D01*
Y50048D01*
X21102D01*
Y55952D01*
G37*
G36*
Y43952D02*X15984D01*
Y38048D01*
X21102D01*
Y43952D01*
G37*
G36*
X14016D02*X8898D01*
Y38048D01*
X14016D01*
Y43952D01*
G37*
G36*
X223200Y23350D02*X218800D01*
Y13750D01*
X223200D01*
Y23350D01*
G37*
G36*
X270602Y9952D02*X265484D01*
Y4048D01*
X270602D01*
Y9952D01*
G37*
G36*
X263516D02*X258398D01*
Y4048D01*
X263516D01*
Y9952D01*
G37*
G36*
X270602Y22952D02*X265484D01*
Y17048D01*
X270602D01*
Y22952D01*
G37*
G36*
X263516D02*X258398D01*
Y17048D01*
X263516D01*
Y22952D01*
G37*
G36*
X270602Y35952D02*X265484D01*
Y30048D01*
X270602D01*
Y35952D01*
G37*
G36*
X263516D02*X258398D01*
Y30048D01*
X263516D01*
Y35952D01*
G37*
G36*
X270602Y48952D02*X265484D01*
Y43048D01*
X270602D01*
Y48952D01*
G37*
G36*
X263516D02*X258398D01*
Y43048D01*
X263516D01*
Y48952D01*
G37*
G36*
X62200Y57250D02*X57800D01*
Y47650D01*
X62200D01*
Y57250D01*
G37*
G36*
X72200D02*X67800D01*
Y47650D01*
X72200D01*
Y57250D01*
G37*
G36*
X82200D02*X77800D01*
Y47650D01*
X82200D01*
Y57250D01*
G37*
G36*
X92200D02*X87800D01*
Y47650D01*
X92200D01*
Y57250D01*
G37*
G36*
X102200D02*X97800D01*
Y47650D01*
X102200D01*
Y57250D01*
G37*
G36*
X112200D02*X107800D01*
Y47650D01*
X112200D01*
Y57250D01*
G37*
G36*
X122200D02*X117800D01*
Y47650D01*
X122200D01*
Y57250D01*
G37*
G36*
X132200D02*X127800D01*
Y47650D01*
X132200D01*
Y57250D01*
G37*
G36*
X157035Y123185D02*X155461D01*
Y117185D01*
X157035D01*
Y123185D01*
G37*
G36*
X153886D02*X152312D01*
Y117185D01*
X153886D01*
Y123185D01*
G37*
G36*
X150736D02*X149162D01*
Y117185D01*
X150736D01*
Y123185D01*
G37*
G36*
X147587D02*X146013D01*
Y117185D01*
X147587D01*
Y123185D01*
G37*
G36*
X144437D02*X142863D01*
Y117185D01*
X144437D01*
Y123185D01*
G37*
G36*
X141287D02*X139713D01*
Y117185D01*
X141287D01*
Y123185D01*
G37*
G36*
X138138D02*X136564D01*
Y117185D01*
X138138D01*
Y123185D01*
G37*
G36*
X134988D02*X133414D01*
Y117185D01*
X134988D01*
Y123185D01*
G37*
G36*
X131839D02*X130265D01*
Y117185D01*
X131839D01*
Y123185D01*
G37*
G36*
X128689D02*X127115D01*
Y117185D01*
X128689D01*
Y123185D01*
G37*
G36*
X125539D02*X123965D01*
Y117185D01*
X125539D01*
Y123185D01*
G37*
G36*
X112815Y112035D02*Y110461D01*
X118815D01*
Y112035D01*
X112815D01*
G37*
G36*
Y108886D02*Y107312D01*
X118815D01*
Y108886D01*
X112815D01*
G37*
G36*
Y105736D02*Y104162D01*
X118815D01*
Y105736D01*
X112815D01*
G37*
G36*
Y102587D02*Y101013D01*
X118815D01*
Y102587D01*
X112815D01*
G37*
G36*
Y99437D02*Y97863D01*
X118815D01*
Y99437D01*
X112815D01*
G37*
G36*
Y96287D02*Y94713D01*
X118815D01*
Y96287D01*
X112815D01*
G37*
G36*
X101548Y100102D02*Y94984D01*
X107452D01*
Y100102D01*
X101548D01*
G37*
G36*
Y93016D02*Y87898D01*
X107452D01*
Y93016D01*
X101548D01*
G37*
G36*
X112815Y93138D02*Y91564D01*
X118815D01*
Y93138D01*
X112815D01*
G37*
G36*
Y89988D02*Y88414D01*
X118815D01*
Y89988D01*
X112815D01*
G37*
G36*
Y86839D02*Y85265D01*
X118815D01*
Y86839D01*
X112815D01*
G37*
G36*
Y83689D02*Y82115D01*
X118815D01*
Y83689D01*
X112815D01*
G37*
G36*
Y80539D02*Y78965D01*
X118815D01*
Y80539D01*
X112815D01*
G37*
G36*
X125539Y73815D02*X123965D01*
Y67815D01*
X125539D01*
Y73815D01*
G37*
G36*
X128688D02*X127114D01*
Y67815D01*
X128688D01*
Y73815D01*
G37*
G36*
X131838D02*X130264D01*
Y67815D01*
X131838D01*
Y73815D01*
G37*
G36*
X134987D02*X133413D01*
Y67815D01*
X134987D01*
Y73815D01*
G37*
G36*
X138137D02*X136563D01*
Y67815D01*
X138137D01*
Y73815D01*
G37*
G36*
X141287D02*X139713D01*
Y67815D01*
X141287D01*
Y73815D01*
G37*
G36*
X144436D02*X142862D01*
Y67815D01*
X144436D01*
Y73815D01*
G37*
G36*
X147586D02*X146012D01*
Y67815D01*
X147586D01*
Y73815D01*
G37*
G36*
X150735D02*X149161D01*
Y67815D01*
X150735D01*
Y73815D01*
G37*
G36*
X153885D02*X152311D01*
Y67815D01*
X153885D01*
Y73815D01*
G37*
G36*
X157035D02*X155461D01*
Y67815D01*
X157035D01*
Y73815D01*
G37*
G36*
X162185Y80539D02*Y78965D01*
X168185D01*
Y80539D01*
X162185D01*
G37*
G36*
Y83688D02*Y82114D01*
X168185D01*
Y83688D01*
X162185D01*
G37*
G36*
Y86838D02*Y85264D01*
X168185D01*
Y86838D01*
X162185D01*
G37*
G36*
Y89987D02*Y88413D01*
X168185D01*
Y89987D01*
X162185D01*
G37*
G36*
Y93137D02*Y91563D01*
X168185D01*
Y93137D01*
X162185D01*
G37*
G36*
X173548Y93016D02*Y87898D01*
X179452D01*
Y93016D01*
X173548D01*
G37*
G36*
Y100102D02*Y94984D01*
X179452D01*
Y100102D01*
X173548D01*
G37*
G36*
X162185Y96287D02*Y94713D01*
X168185D01*
Y96287D01*
X162185D01*
G37*
G36*
Y99436D02*Y97862D01*
X168185D01*
Y99436D01*
X162185D01*
G37*
G36*
Y102586D02*Y101012D01*
X168185D01*
Y102586D01*
X162185D01*
G37*
G36*
Y105735D02*Y104161D01*
X168185D01*
Y105735D01*
X162185D01*
G37*
G36*
Y108885D02*Y107311D01*
X168185D01*
Y108885D01*
X162185D01*
G37*
G36*
Y112035D02*Y110461D01*
X168185D01*
Y112035D01*
X162185D01*
G37*
G36*
X54250Y215250D02*X48750D01*
Y207750D01*
X54250D01*
Y215250D01*
G37*
G36*
X67250D02*X61750D01*
Y207750D01*
X67250D01*
Y215250D01*
G37*
G36*
X54250Y200750D02*X48750D01*
Y193250D01*
X54250D01*
Y200750D01*
G37*
G36*
X67250D02*X61750D01*
Y193250D01*
X67250D01*
Y200750D01*
G37*
G36*
X67650Y186142D02*X61350D01*
Y173543D01*
X67650D01*
Y186142D01*
G37*
G36*
X82048Y177102D02*Y171984D01*
X87952D01*
Y177102D01*
X82048D01*
G37*
G36*
Y170016D02*Y164898D01*
X87952D01*
Y170016D01*
X82048D01*
G37*
G36*
X113450Y206850D02*X111150D01*
Y183150D01*
X113450D01*
Y206850D01*
G37*
G36*
X111150Y185450D02*Y183150D01*
X119050D01*
Y185450D01*
X111150D01*
G37*
G36*
Y206850D02*Y204550D01*
X119050D01*
Y206850D01*
X111150D01*
G37*
G36*
X111450Y187450D02*Y183450D01*
X115450D01*
Y187450D01*
X111450D01*
G37*
G36*
Y206550D02*Y202550D01*
X115450D01*
Y206550D01*
X111450D01*
G37*
G36*
X113450Y191044D02*X111329Y188923D01*
X116923Y183329D01*
X119044Y185450D01*
X113450Y191044D01*
G37*
G36*
X119044Y204550D02*X116923Y206671D01*
X111329Y201077D01*
X113450Y198956D01*
X119044Y204550D01*
G37*
G36*
X125016Y178452D02*X119898D01*
Y172548D01*
X125016D01*
Y178452D01*
G37*
G36*
Y169452D02*X119898D01*
Y163548D01*
X125016D01*
Y169452D01*
G37*
G36*
X92500Y195700D02*Y193300D01*
X96500D01*
Y195700D01*
X92500D01*
G37*
G36*
Y191800D02*Y189400D01*
X96500D01*
Y191800D01*
X92500D01*
G37*
G36*
Y187900D02*Y185500D01*
X96500D01*
Y187900D01*
X92500D01*
G37*
G36*
X100700D02*Y185500D01*
X104700D01*
Y187900D01*
X100700D01*
G37*
G36*
Y191800D02*Y189400D01*
X104700D01*
Y191800D01*
X100700D01*
G37*
G36*
Y195700D02*Y193300D01*
X104700D01*
Y195700D01*
X100700D01*
G37*
G36*
X97516Y206452D02*X92398D01*
Y200548D01*
X97516D01*
Y206452D01*
G37*
G36*
X104602D02*X99484D01*
Y200548D01*
X104602D01*
Y206452D01*
G37*
G54D24*X216000Y134000D03*
Y129000D03*
Y124000D03*
Y119000D03*
X210000Y151500D03*
X199500Y129000D03*
X202000Y131000D03*
Y127000D03*
X197000D03*
Y131000D03*
X227000Y119000D03*
X224000Y124000D03*
X234000Y129500D03*
X226500Y135000D03*
X229500Y133000D03*
X234000Y126000D03*
X242500Y133000D03*
X243500Y140500D03*
Y150500D03*
X242500Y129500D03*
Y125000D03*
X223500Y149000D03*
X225500Y152500D03*
X233000D03*
X289800Y108000D03*
X140500Y76000D03*
X138000Y18500D03*
X143000D03*
X268000Y13500D03*
Y26500D03*
Y39500D03*
X158000Y220000D03*
Y217000D03*
X160000Y169500D03*
X165000D03*
X170000D03*
X180000D03*
X187000Y201500D03*
Y198000D03*
Y194500D03*
Y191000D03*
X220000Y204000D03*
X216500D03*
Y200500D03*
X220000D03*
X238500Y214146D03*
X216500Y197000D03*
X220000D03*
Y193500D03*
X216500D03*
Y190000D03*
X220000D03*
Y186500D03*
X216500D03*
X213000Y193500D03*
Y190000D03*
Y186500D03*
X299500Y223988D03*
Y214146D03*
Y160012D03*
X305500Y154000D03*
Y145000D03*
X305700Y133000D03*
X322000Y170500D03*
X299500Y151000D03*
X290800Y141000D03*
X310000Y149500D03*
X238500Y169854D03*
Y160012D03*
X256500Y136000D03*
Y133000D03*
X73000Y162500D03*
Y159000D03*
Y155500D03*
X79500Y162500D03*
X86000D03*
X92500D03*
X136000Y133000D03*
Y136000D03*
X121000Y92351D03*
X122500Y110500D03*
X124500Y107500D03*
X122500Y104500D03*
Y116500D03*
X112000Y118000D03*
X140500Y115000D03*
X160000Y95500D03*
X169500Y117500D03*
Y123500D03*
X171500Y120500D03*
Y126500D03*
X152000Y144500D03*
X155500D03*
X159000D03*
X162500D03*
X68500Y136500D03*
X71000Y138500D03*
X66000D03*
X71000Y134500D03*
X66000D03*
X77500Y114500D03*
Y101000D03*
X88000Y124000D03*
Y132000D03*
X96575D03*
Y126000D03*
X79500Y159000D03*
X86000D03*
X92500D03*
X99000D03*
X79500Y155500D03*
X86000D03*
X92500D03*
X99000D03*
Y162500D03*
X110000Y162000D03*
X113500D03*
X117000D03*
X110000Y171000D03*
X113500D03*
X117000D03*
X99000Y176500D03*
X102500D03*
X106000D03*
G54D25*G54D26*G54D27*G54D26*G54D27*G54D28*G54D29*G54D15*G54D29*G54D28*G54D30*M02*
