M48
INCH
T50C0.012
T49C0.048
T48C0.030
T47C0.128
T46C0.129
%
T50
X006600Y013850
X006600Y013450
X006850Y013650
X007100Y013850
X007100Y013450
X007300Y016250
X007300Y015900
X007300Y015550
X007750Y011450
X007750Y010100
X007950Y016250
X007950Y015900
X007950Y015550
X008600Y016250
X008600Y015900
X008600Y015550
X008800Y013200
X008800Y012400
X009250Y016250
X009250Y015900
X009250Y015550
X009658Y013200
X009658Y012600
X009900Y017650
X009900Y016250
X009900Y015900
X009900Y015550
X010250Y017650
X010600Y017650
X011000Y017100
X011000Y016200
X011200Y011800
X011350Y017100
X011350Y016200
X011700Y017100
X011700Y016200
X012100Y009235
X012250Y011650
X012250Y011050
X012250Y010450
X012450Y010750
X013600Y013600
X013600Y013300
X013800Y001850
X014050Y011500
X014050Y007600
X014300Y001850
X015200Y014450
X015550Y014450
X015800Y022000
X015800Y021700
X015900Y014450
X016000Y016950
X016000Y009550
X016250Y014450
X016500Y016950
X016950Y012350
X016950Y011750
X017000Y016950
X017150Y012650
X017150Y012050
X018000Y016950
X018700Y020150
X018700Y019800
X018700Y019450
X018700Y019100
X019700Y013100
X019700Y012700
X019950Y012900
X020200Y013100
X020200Y012700
X021000Y015150
X021300Y019350
X021300Y019000
X021300Y018650
X021600Y013400
X021600Y012900
X021600Y012400
X021600Y011900
X021650Y020400
X021650Y020050
X021650Y019700
X021650Y019350
X021650Y019000
X021650Y018650
X022000Y020400
X022000Y020050
X022000Y019700
X022000Y019350
X022000Y019000
X022000Y018650
X022350Y014900
X022400Y012400
X022550Y015250
X022650Y013500
X022700Y011900
X022950Y013300
X023300Y015250
X023400Y012950
X023400Y012600
X023850Y021415
X023850Y016985
X023850Y016001
X024250Y013300
X024250Y012950
X024250Y012500
X024350Y015050
X024350Y014050
X025650Y013600
X025650Y013300
X026800Y003950
X026800Y002650
X026800Y001350
X028980Y010800
X029080Y014100
X029950Y022399
X029950Y021415
X029950Y016001
X029950Y015100
X030550Y015400
X030550Y014500
X030570Y013300
X031000Y014950
X032200Y017050
T48
X005700Y009350
X005700Y008350
X005700Y007350
X006700Y009850
X006700Y008850
X006700Y007850
T49
X002200Y018500
X002200Y016500
X002200Y014500
X002200Y012500
T47
X003200Y010600
X003200Y006600
T46
X001700Y021300
X001700Y001700
X031800Y021300
X031800Y001700
M30
