G04 start of page 7 for group -4063 idx -4063 *
G04 Title: (unknown), componentmask *
G04 Creator: pcb 4.0.2 *
G04 CreationDate: Sun Oct 16 03:55:39 2022 UTC *
G04 For: ndholmes *
G04 Format: Gerber/RS-274X *
G04 PCB-Dimensions (mil): 3350.00 2300.00 *
G04 PCB-Coordinate-Origin: lower left *
%MOIN*%
%FSLAX25Y25*%
%LNTOPMASK*%
%ADD61C,0.0370*%
%ADD60C,0.0860*%
%ADD59C,0.0001*%
%ADD58C,0.0760*%
%ADD57C,0.1500*%
%ADD56C,0.2997*%
%ADD55C,0.1025*%
%ADD54C,0.0490*%
%ADD53C,0.1035*%
G54D53*X284500Y133000D03*
X297000D03*
G54D54*X284500Y123000D03*
G54D55*X297000Y113000D03*
G54D53*X284500D03*
G54D54*X304500Y127000D03*
Y119000D03*
G54D56*X318000Y213000D03*
Y17000D03*
G54D57*X32000Y106000D03*
G54D58*X67000Y98500D03*
X57000Y93500D03*
X67000Y88500D03*
X57000Y83500D03*
X67000Y78500D03*
X57000Y73500D03*
G54D57*X32000Y66000D03*
G54D56*X17000Y17000D03*
Y213000D03*
G54D59*G36*
X17700Y149300D02*Y140700D01*
X26300D01*
Y149300D01*
X17700D01*
G37*
G54D60*X22000Y125000D03*
G54D59*G36*
X17700Y189300D02*Y180700D01*
X26300D01*
Y189300D01*
X17700D01*
G37*
G54D60*X22000Y165000D03*
G54D59*G36*
X53500Y145500D02*Y142500D01*
X63000D01*
Y145500D01*
X53500D01*
G37*
G36*
Y140500D02*Y137500D01*
X63000D01*
Y140500D01*
X53500D01*
G37*
G36*
Y135500D02*Y132500D01*
X63000D01*
Y135500D01*
X53500D01*
G37*
G36*
X74000Y130500D02*Y127500D01*
X83500D01*
Y130500D01*
X74000D01*
G37*
G36*
Y135500D02*Y132500D01*
X83500D01*
Y135500D01*
X74000D01*
G37*
G36*
Y140500D02*Y137500D01*
X83500D01*
Y140500D01*
X74000D01*
G37*
G36*
Y145500D02*Y142500D01*
X83500D01*
Y145500D01*
X74000D01*
G37*
G36*
X53500Y130500D02*Y127500D01*
X63000D01*
Y130500D01*
X53500D01*
G37*
G36*
X62816Y123252D02*X57098D01*
Y116748D01*
X62816D01*
Y123252D01*
G37*
G36*
X109902Y121252D02*X104184D01*
Y114748D01*
X109902D01*
Y121252D01*
G37*
G36*
X102816D02*X97098D01*
Y114748D01*
X102816D01*
Y121252D01*
G37*
G36*
X87316D02*X81598D01*
Y114748D01*
X87316D01*
Y121252D01*
G37*
G36*
X94402D02*X88684D01*
Y114748D01*
X94402D01*
Y121252D01*
G37*
G36*
X69902Y123252D02*X64184D01*
Y116748D01*
X69902D01*
Y123252D01*
G37*
G36*
X67950Y166757D02*X61050D01*
Y153558D01*
X67950D01*
Y166757D01*
G37*
G36*
X106172Y155237D02*Y146763D01*
X130394D01*
Y155237D01*
X106172D01*
G37*
G36*
X141606D02*Y146763D01*
X165828D01*
Y155237D01*
X141606D01*
G37*
G36*
X150402Y137752D02*X144684D01*
Y131248D01*
X150402D01*
Y137752D01*
G37*
G36*
X143316D02*X137598D01*
Y131248D01*
X143316D01*
Y137752D01*
G37*
G36*
X127316D02*X121598D01*
Y131248D01*
X127316D01*
Y137752D01*
G37*
G36*
X134402D02*X128684D01*
Y131248D01*
X134402D01*
Y137752D01*
G37*
G36*
X205000Y130500D02*Y127500D01*
X214500D01*
Y130500D01*
X205000D01*
G37*
G36*
Y135500D02*Y132500D01*
X214500D01*
Y135500D01*
X205000D01*
G37*
G36*
Y140500D02*Y137500D01*
X214500D01*
Y140500D01*
X205000D01*
G37*
G36*
Y145500D02*Y142500D01*
X214500D01*
Y145500D01*
X205000D01*
G37*
G36*
X225402Y161752D02*X219684D01*
Y155248D01*
X225402D01*
Y161752D01*
G37*
G36*
X218316D02*X212598D01*
Y155248D01*
X218316D01*
Y161752D01*
G37*
G36*
X184500Y145500D02*Y142500D01*
X194000D01*
Y145500D01*
X184500D01*
G37*
G36*
Y140500D02*Y137500D01*
X194000D01*
Y140500D01*
X184500D01*
G37*
G36*
Y135500D02*Y132500D01*
X194000D01*
Y135500D01*
X184500D01*
G37*
G54D61*X289500Y120500D03*
Y125500D03*
X294500Y120500D03*
Y125500D03*
X299500Y120500D03*
Y125500D03*
G54D59*G36*
X264316Y137752D02*X258598D01*
Y131248D01*
X264316D01*
Y137752D01*
G37*
G36*
X271402D02*X265684D01*
Y131248D01*
X271402D01*
Y137752D01*
G37*
G36*
X320945Y138752D02*X315227D01*
Y132248D01*
X320945D01*
Y138752D01*
G37*
G36*
X313859D02*X308141D01*
Y132248D01*
X313859D01*
Y138752D01*
G37*
G36*
X320902Y147252D02*X315184D01*
Y140748D01*
X320902D01*
Y147252D01*
G37*
G36*
X313816D02*X308098D01*
Y140748D01*
X313816D01*
Y147252D01*
G37*
G36*
X184500Y130500D02*Y127500D01*
X194000D01*
Y130500D01*
X184500D01*
G37*
G36*
X205000Y115500D02*Y112500D01*
X214500D01*
Y115500D01*
X205000D01*
G37*
G36*
Y120500D02*Y117500D01*
X214500D01*
Y120500D01*
X205000D01*
G37*
G36*
Y125500D02*Y122500D01*
X214500D01*
Y125500D01*
X205000D01*
G37*
G36*
X184500D02*Y122500D01*
X194000D01*
Y125500D01*
X184500D01*
G37*
G36*
Y120500D02*Y117500D01*
X194000D01*
Y120500D01*
X184500D01*
G37*
G36*
Y115500D02*Y112500D01*
X194000D01*
Y115500D01*
X184500D01*
G37*
G36*
X205902Y107752D02*X200184D01*
Y101248D01*
X205902D01*
Y107752D01*
G37*
G36*
X198816D02*X193098D01*
Y101248D01*
X198816D01*
Y107752D01*
G37*
G36*
X212902Y98752D02*X207184D01*
Y92248D01*
X212902D01*
Y98752D01*
G37*
G36*
X205816D02*X200098D01*
Y92248D01*
X205816D01*
Y98752D01*
G37*
G36*
X212902Y90252D02*X207184D01*
Y83748D01*
X212902D01*
Y90252D01*
G37*
G36*
X205816D02*X200098D01*
Y83748D01*
X205816D01*
Y90252D01*
G37*
G36*
X212902Y81752D02*X207184D01*
Y75248D01*
X212902D01*
Y81752D01*
G37*
G36*
X205816D02*X200098D01*
Y75248D01*
X205816D01*
Y81752D01*
G37*
G36*
X212902Y73252D02*X207184D01*
Y66748D01*
X212902D01*
Y73252D01*
G37*
G36*
X205816D02*X200098D01*
Y66748D01*
X205816D01*
Y73252D01*
G37*
G36*
X207316Y202252D02*X201598D01*
Y195748D01*
X207316D01*
Y202252D01*
G37*
G36*
X214402D02*X208684D01*
Y195748D01*
X214402D01*
Y202252D01*
G37*
G36*
X181816Y221752D02*X176098D01*
Y215248D01*
X181816D01*
Y221752D01*
G37*
G36*
X188902D02*X183184D01*
Y215248D01*
X188902D01*
Y221752D01*
G37*
G36*
X166316D02*X160598D01*
Y215248D01*
X166316D01*
Y221752D01*
G37*
G36*
X173402D02*X167684D01*
Y215248D01*
X173402D01*
Y221752D01*
G37*
G36*
X209700Y210784D02*Y206404D01*
X218174D01*
Y210784D01*
X209700D01*
G37*
G36*
X201984Y216690D02*Y212310D01*
X218174D01*
Y216690D01*
X201984D01*
G37*
G36*
X195525Y219525D02*Y209475D01*
X207465D01*
Y219525D01*
X195525D01*
G37*
G36*
X210429Y212615D02*X208585Y214459D01*
X205321Y211195D01*
X207165Y209351D01*
X210429Y212615D01*
G37*
G36*
X207165Y219649D02*X205321Y217805D01*
X208585Y214541D01*
X210429Y216385D01*
X207165Y219649D01*
G37*
G36*
X209700Y222596D02*Y218216D01*
X218174D01*
Y222596D01*
X209700D01*
G37*
G36*
X227816Y210252D02*X222098D01*
Y203748D01*
X227816D01*
Y210252D01*
G37*
G36*
Y200252D02*X222098D01*
Y193748D01*
X227816D01*
Y200252D01*
G37*
G36*
X139902Y221752D02*X134184D01*
Y215248D01*
X139902D01*
Y221752D01*
G37*
G36*
X132816D02*X127098D01*
Y215248D01*
X132816D01*
Y221752D01*
G37*
G36*
X155402D02*X149684D01*
Y215248D01*
X155402D01*
Y221752D01*
G37*
G36*
X148316D02*X142598D01*
Y215248D01*
X148316D01*
Y221752D01*
G37*
G36*
X162800Y186304D02*X157200D01*
Y171216D01*
X162800D01*
Y186304D01*
G37*
G36*
Y203784D02*X157200D01*
Y188696D01*
X162800D01*
Y203784D01*
G37*
G36*
X172800Y186304D02*X167200D01*
Y171216D01*
X172800D01*
Y186304D01*
G37*
G36*
Y203784D02*X167200D01*
Y188696D01*
X172800D01*
Y203784D01*
G37*
G36*
X182800Y186304D02*X177200D01*
Y171216D01*
X182800D01*
Y186304D01*
G37*
G36*
Y203784D02*X177200D01*
Y188696D01*
X182800D01*
Y203784D01*
G37*
G36*
X196816Y184252D02*X191098D01*
Y177748D01*
X196816D01*
Y184252D01*
G37*
G36*
X203902D02*X198184D01*
Y177748D01*
X203902D01*
Y184252D01*
G37*
G36*
X196816Y174252D02*X191098D01*
Y167748D01*
X196816D01*
Y174252D01*
G37*
G36*
X203902D02*X198184D01*
Y167748D01*
X203902D01*
Y174252D01*
G37*
G36*
X135150Y207150D02*X132250D01*
Y182850D01*
X135150D01*
Y207150D01*
G37*
G36*
X126650D02*Y204250D01*
X135150D01*
Y207150D01*
X126650D01*
G37*
G36*
X135096Y188923D02*X132550Y191469D01*
X126531Y185450D01*
X129077Y182904D01*
X135096Y188923D01*
G37*
G36*
X129077Y207096D02*X126531Y204550D01*
X132550Y198531D01*
X135096Y201077D01*
X129077Y207096D01*
G37*
G36*
X130750Y187250D02*Y183650D01*
X134350D01*
Y187250D01*
X130750D01*
G37*
G36*
Y206350D02*Y202750D01*
X134350D01*
Y206350D01*
X130750D01*
G37*
G36*
X126650Y185750D02*Y182850D01*
X135150D01*
Y185750D01*
X126650D01*
G37*
G36*
X132402Y178752D02*X126684D01*
Y172248D01*
X132402D01*
Y178752D01*
G37*
G36*
Y169752D02*X126684D01*
Y163248D01*
X132402D01*
Y169752D01*
G37*
G36*
X240050Y216096D02*Y212196D01*
X246352D01*
Y216096D01*
X240050D01*
G37*
G36*
Y211174D02*Y207274D01*
X246352D01*
Y211174D01*
X240050D01*
G37*
G36*
Y206253D02*Y202353D01*
X246352D01*
Y206253D01*
X240050D01*
G37*
G36*
Y201332D02*Y197432D01*
X246352D01*
Y201332D01*
X240050D01*
G37*
G36*
Y196411D02*Y192511D01*
X246352D01*
Y196411D01*
X240050D01*
G37*
G36*
Y191489D02*Y187589D01*
X246352D01*
Y191489D01*
X240050D01*
G37*
G36*
Y186568D02*Y182668D01*
X246352D01*
Y186568D01*
X240050D01*
G37*
G36*
X234902Y210252D02*X229184D01*
Y203748D01*
X234902D01*
Y210252D01*
G37*
G36*
Y200252D02*X229184D01*
Y193748D01*
X234902D01*
Y200252D01*
G37*
G36*
X240050Y181647D02*Y177747D01*
X246352D01*
Y181647D01*
X240050D01*
G37*
G36*
Y176726D02*Y172826D01*
X246352D01*
Y176726D01*
X240050D01*
G37*
G36*
Y171804D02*Y167904D01*
X246352D01*
Y171804D01*
X240050D01*
G37*
G36*
Y166883D02*Y162983D01*
X246352D01*
Y166883D01*
X240050D01*
G37*
G36*
Y161962D02*Y158062D01*
X246352D01*
Y161962D01*
X240050D01*
G37*
G36*
X253726Y157100D02*X249826D01*
Y150802D01*
X253726D01*
Y157100D01*
G37*
G36*
X225402Y170752D02*X219684D01*
Y164248D01*
X225402D01*
Y170752D01*
G37*
G36*
X218316D02*X212598D01*
Y164248D01*
X218316D01*
Y170752D01*
G37*
G36*
X258647Y157100D02*X254747D01*
Y150802D01*
X258647D01*
Y157100D01*
G37*
G36*
X263568D02*X259668D01*
Y150802D01*
X263568D01*
Y157100D01*
G37*
G36*
X268489D02*X264589D01*
Y150802D01*
X268489D01*
Y157100D01*
G37*
G36*
X273411D02*X269511D01*
Y150802D01*
X273411D01*
Y157100D01*
G37*
G36*
X278332D02*X274432D01*
Y150802D01*
X278332D01*
Y157100D01*
G37*
G36*
X283253D02*X279353D01*
Y150802D01*
X283253D01*
Y157100D01*
G37*
G36*
X288174D02*X284274D01*
Y150802D01*
X288174D01*
Y157100D01*
G37*
G36*
X291648Y161962D02*Y158062D01*
X297950D01*
Y161962D01*
X291648D01*
G37*
G36*
Y166883D02*Y162983D01*
X297950D01*
Y166883D01*
X291648D01*
G37*
G36*
Y171804D02*Y167904D01*
X297950D01*
Y171804D01*
X291648D01*
G37*
G36*
Y176726D02*Y172826D01*
X297950D01*
Y176726D01*
X291648D01*
G37*
G36*
X313248Y173402D02*Y167684D01*
X319752D01*
Y173402D01*
X313248D01*
G37*
G36*
Y166316D02*Y160598D01*
X319752D01*
Y166316D01*
X313248D01*
G37*
G36*
X324248Y173402D02*Y167684D01*
X330752D01*
Y173402D01*
X324248D01*
G37*
G36*
Y166316D02*Y160598D01*
X330752D01*
Y166316D01*
X324248D01*
G37*
G36*
X291648Y181647D02*Y177747D01*
X297950D01*
Y181647D01*
X291648D01*
G37*
G36*
Y186568D02*Y182668D01*
X297950D01*
Y186568D01*
X291648D01*
G37*
G36*
Y191489D02*Y187589D01*
X297950D01*
Y191489D01*
X291648D01*
G37*
G36*
Y196411D02*Y192511D01*
X297950D01*
Y196411D01*
X291648D01*
G37*
G36*
Y201332D02*Y197432D01*
X297950D01*
Y201332D01*
X291648D01*
G37*
G36*
Y206253D02*Y202353D01*
X297950D01*
Y206253D01*
X291648D01*
G37*
G36*
Y211174D02*Y207274D01*
X297950D01*
Y211174D01*
X291648D01*
G37*
G36*
Y216096D02*Y212196D01*
X297950D01*
Y216096D01*
X291648D01*
G37*
G36*
Y221017D02*Y217117D01*
X297950D01*
Y221017D01*
X291648D01*
G37*
G36*
Y225938D02*Y222038D01*
X297950D01*
Y225938D01*
X291648D01*
G37*
G36*
X153500Y23650D02*X148500D01*
Y13450D01*
X153500D01*
Y23650D01*
G37*
G36*
X163500D02*X158500D01*
Y13450D01*
X163500D01*
Y23650D01*
G37*
G36*
X173500D02*X168500D01*
Y13450D01*
X173500D01*
Y23650D01*
G37*
G36*
X183500D02*X178500D01*
Y13450D01*
X183500D01*
Y23650D01*
G37*
G36*
X193500D02*X188500D01*
Y13450D01*
X193500D01*
Y23650D01*
G37*
G36*
X203500D02*X198500D01*
Y13450D01*
X203500D01*
Y23650D01*
G37*
G36*
X213500D02*X208500D01*
Y13450D01*
X213500D01*
Y23650D01*
G37*
G36*
X153500Y57550D02*X148500D01*
Y47350D01*
X153500D01*
Y57550D01*
G37*
G36*
X163500D02*X158500D01*
Y47350D01*
X163500D01*
Y57550D01*
G37*
G36*
X173500D02*X168500D01*
Y47350D01*
X173500D01*
Y57550D01*
G37*
G36*
X183500D02*X178500D01*
Y47350D01*
X183500D01*
Y57550D01*
G37*
G36*
X193500D02*X188500D01*
Y47350D01*
X193500D01*
Y57550D01*
G37*
G36*
X203500D02*X198500D01*
Y47350D01*
X203500D01*
Y57550D01*
G37*
G36*
X213500D02*X208500D01*
Y47350D01*
X213500D01*
Y57550D01*
G37*
G36*
X223500D02*X218500D01*
Y47350D01*
X223500D01*
Y57550D01*
G37*
G36*
X62500Y23650D02*X57500D01*
Y13450D01*
X62500D01*
Y23650D01*
G37*
G36*
X72500D02*X67500D01*
Y13450D01*
X72500D01*
Y23650D01*
G37*
G36*
X82500D02*X77500D01*
Y13450D01*
X82500D01*
Y23650D01*
G37*
G36*
X92500D02*X87500D01*
Y13450D01*
X92500D01*
Y23650D01*
G37*
G36*
X102500D02*X97500D01*
Y13450D01*
X102500D01*
Y23650D01*
G37*
G36*
X112500D02*X107500D01*
Y13450D01*
X112500D01*
Y23650D01*
G37*
G36*
X122500D02*X117500D01*
Y13450D01*
X122500D01*
Y23650D01*
G37*
G36*
X132500D02*X127500D01*
Y13450D01*
X132500D01*
Y23650D01*
G37*
G36*
X14316Y56252D02*X8598D01*
Y49748D01*
X14316D01*
Y56252D01*
G37*
G36*
X21402D02*X15684D01*
Y49748D01*
X21402D01*
Y56252D01*
G37*
G36*
Y44252D02*X15684D01*
Y37748D01*
X21402D01*
Y44252D01*
G37*
G36*
X14316D02*X8598D01*
Y37748D01*
X14316D01*
Y44252D01*
G37*
G36*
X223500Y23650D02*X218500D01*
Y13450D01*
X223500D01*
Y23650D01*
G37*
G36*
X270902Y10252D02*X265184D01*
Y3748D01*
X270902D01*
Y10252D01*
G37*
G36*
X263816D02*X258098D01*
Y3748D01*
X263816D01*
Y10252D01*
G37*
G36*
X270902Y23252D02*X265184D01*
Y16748D01*
X270902D01*
Y23252D01*
G37*
G36*
X263816D02*X258098D01*
Y16748D01*
X263816D01*
Y23252D01*
G37*
G36*
X270902Y36252D02*X265184D01*
Y29748D01*
X270902D01*
Y36252D01*
G37*
G36*
X263816D02*X258098D01*
Y29748D01*
X263816D01*
Y36252D01*
G37*
G36*
X270902Y49252D02*X265184D01*
Y42748D01*
X270902D01*
Y49252D01*
G37*
G36*
X263816D02*X258098D01*
Y42748D01*
X263816D01*
Y49252D01*
G37*
G36*
X62500Y57550D02*X57500D01*
Y47350D01*
X62500D01*
Y57550D01*
G37*
G36*
X72500D02*X67500D01*
Y47350D01*
X72500D01*
Y57550D01*
G37*
G36*
X82500D02*X77500D01*
Y47350D01*
X82500D01*
Y57550D01*
G37*
G36*
X92500D02*X87500D01*
Y47350D01*
X92500D01*
Y57550D01*
G37*
G36*
X102500D02*X97500D01*
Y47350D01*
X102500D01*
Y57550D01*
G37*
G36*
X112500D02*X107500D01*
Y47350D01*
X112500D01*
Y57550D01*
G37*
G36*
X122500D02*X117500D01*
Y47350D01*
X122500D01*
Y57550D01*
G37*
G36*
X132500D02*X127500D01*
Y47350D01*
X132500D01*
Y57550D01*
G37*
G36*
X157335Y123485D02*X155161D01*
Y116885D01*
X157335D01*
Y123485D01*
G37*
G36*
X154186D02*X152012D01*
Y116885D01*
X154186D01*
Y123485D01*
G37*
G36*
X151036D02*X148862D01*
Y116885D01*
X151036D01*
Y123485D01*
G37*
G36*
X147887D02*X145713D01*
Y116885D01*
X147887D01*
Y123485D01*
G37*
G36*
X144737D02*X142563D01*
Y116885D01*
X144737D01*
Y123485D01*
G37*
G36*
X141587D02*X139413D01*
Y116885D01*
X141587D01*
Y123485D01*
G37*
G36*
X138438D02*X136264D01*
Y116885D01*
X138438D01*
Y123485D01*
G37*
G36*
X135288D02*X133114D01*
Y116885D01*
X135288D01*
Y123485D01*
G37*
G36*
X132139D02*X129965D01*
Y116885D01*
X132139D01*
Y123485D01*
G37*
G36*
X128989D02*X126815D01*
Y116885D01*
X128989D01*
Y123485D01*
G37*
G36*
X125839D02*X123665D01*
Y116885D01*
X125839D01*
Y123485D01*
G37*
G36*
X112515Y112335D02*Y110161D01*
X119115D01*
Y112335D01*
X112515D01*
G37*
G36*
Y109186D02*Y107012D01*
X119115D01*
Y109186D01*
X112515D01*
G37*
G36*
Y106036D02*Y103862D01*
X119115D01*
Y106036D01*
X112515D01*
G37*
G36*
Y102887D02*Y100713D01*
X119115D01*
Y102887D01*
X112515D01*
G37*
G36*
Y99737D02*Y97563D01*
X119115D01*
Y99737D01*
X112515D01*
G37*
G36*
Y96587D02*Y94413D01*
X119115D01*
Y96587D01*
X112515D01*
G37*
G36*
X101248Y100402D02*Y94684D01*
X107752D01*
Y100402D01*
X101248D01*
G37*
G36*
Y93316D02*Y87598D01*
X107752D01*
Y93316D01*
X101248D01*
G37*
G36*
X112515Y93438D02*Y91264D01*
X119115D01*
Y93438D01*
X112515D01*
G37*
G36*
Y90288D02*Y88114D01*
X119115D01*
Y90288D01*
X112515D01*
G37*
G36*
Y87139D02*Y84965D01*
X119115D01*
Y87139D01*
X112515D01*
G37*
G36*
Y83989D02*Y81815D01*
X119115D01*
Y83989D01*
X112515D01*
G37*
G36*
Y80839D02*Y78665D01*
X119115D01*
Y80839D01*
X112515D01*
G37*
G36*
X125839Y74115D02*X123665D01*
Y67515D01*
X125839D01*
Y74115D01*
G37*
G36*
X128988D02*X126814D01*
Y67515D01*
X128988D01*
Y74115D01*
G37*
G36*
X132138D02*X129964D01*
Y67515D01*
X132138D01*
Y74115D01*
G37*
G36*
X135287D02*X133113D01*
Y67515D01*
X135287D01*
Y74115D01*
G37*
G36*
X138437D02*X136263D01*
Y67515D01*
X138437D01*
Y74115D01*
G37*
G36*
X141587D02*X139413D01*
Y67515D01*
X141587D01*
Y74115D01*
G37*
G36*
X144736D02*X142562D01*
Y67515D01*
X144736D01*
Y74115D01*
G37*
G36*
X147886D02*X145712D01*
Y67515D01*
X147886D01*
Y74115D01*
G37*
G36*
X151035D02*X148861D01*
Y67515D01*
X151035D01*
Y74115D01*
G37*
G36*
X154185D02*X152011D01*
Y67515D01*
X154185D01*
Y74115D01*
G37*
G36*
X157335D02*X155161D01*
Y67515D01*
X157335D01*
Y74115D01*
G37*
G36*
X161885Y80839D02*Y78665D01*
X168485D01*
Y80839D01*
X161885D01*
G37*
G36*
Y83988D02*Y81814D01*
X168485D01*
Y83988D01*
X161885D01*
G37*
G36*
Y87138D02*Y84964D01*
X168485D01*
Y87138D01*
X161885D01*
G37*
G36*
Y90287D02*Y88113D01*
X168485D01*
Y90287D01*
X161885D01*
G37*
G36*
Y93437D02*Y91263D01*
X168485D01*
Y93437D01*
X161885D01*
G37*
G36*
X173248Y93316D02*Y87598D01*
X179752D01*
Y93316D01*
X173248D01*
G37*
G36*
Y100402D02*Y94684D01*
X179752D01*
Y100402D01*
X173248D01*
G37*
G36*
X161885Y96587D02*Y94413D01*
X168485D01*
Y96587D01*
X161885D01*
G37*
G36*
Y99736D02*Y97562D01*
X168485D01*
Y99736D01*
X161885D01*
G37*
G36*
Y102886D02*Y100712D01*
X168485D01*
Y102886D01*
X161885D01*
G37*
G36*
Y106035D02*Y103861D01*
X168485D01*
Y106035D01*
X161885D01*
G37*
G36*
Y109185D02*Y107011D01*
X168485D01*
Y109185D01*
X161885D01*
G37*
G36*
Y112335D02*Y110161D01*
X168485D01*
Y112335D01*
X161885D01*
G37*
G36*
X54550Y215550D02*X48450D01*
Y207450D01*
X54550D01*
Y215550D01*
G37*
G36*
X67550D02*X61450D01*
Y207450D01*
X67550D01*
Y215550D01*
G37*
G36*
X54550Y201050D02*X48450D01*
Y192950D01*
X54550D01*
Y201050D01*
G37*
G36*
X67550D02*X61450D01*
Y192950D01*
X67550D01*
Y201050D01*
G37*
G36*
X67950Y186442D02*X61050D01*
Y173243D01*
X67950D01*
Y186442D01*
G37*
G36*
X81748Y177402D02*Y171684D01*
X88252D01*
Y177402D01*
X81748D01*
G37*
G36*
Y170316D02*Y164598D01*
X88252D01*
Y170316D01*
X81748D01*
G37*
G36*
X113750Y207150D02*X110850D01*
Y182850D01*
X113750D01*
Y207150D01*
G37*
G36*
X110850Y185750D02*Y182850D01*
X119350D01*
Y185750D01*
X110850D01*
G37*
G36*
Y207150D02*Y204250D01*
X119350D01*
Y207150D01*
X110850D01*
G37*
G36*
X111650Y187250D02*Y183650D01*
X115250D01*
Y187250D01*
X111650D01*
G37*
G36*
Y206350D02*Y202750D01*
X115250D01*
Y206350D01*
X111650D01*
G37*
G36*
X113450Y191469D02*X110904Y188923D01*
X116923Y182904D01*
X119469Y185450D01*
X113450Y191469D01*
G37*
G36*
X119469Y204550D02*X116923Y207096D01*
X110904Y201077D01*
X113450Y198531D01*
X119469Y204550D01*
G37*
G36*
X125316Y178752D02*X119598D01*
Y172248D01*
X125316D01*
Y178752D01*
G37*
G36*
Y169752D02*X119598D01*
Y163248D01*
X125316D01*
Y169752D01*
G37*
G36*
X92200Y196000D02*Y193000D01*
X96800D01*
Y196000D01*
X92200D01*
G37*
G36*
Y192100D02*Y189100D01*
X96800D01*
Y192100D01*
X92200D01*
G37*
G36*
Y188200D02*Y185200D01*
X96800D01*
Y188200D01*
X92200D01*
G37*
G36*
X100400D02*Y185200D01*
X105000D01*
Y188200D01*
X100400D01*
G37*
G36*
Y192100D02*Y189100D01*
X105000D01*
Y192100D01*
X100400D01*
G37*
G36*
Y196000D02*Y193000D01*
X105000D01*
Y196000D01*
X100400D01*
G37*
G36*
X97816Y206752D02*X92098D01*
Y200248D01*
X97816D01*
Y206752D01*
G37*
G36*
X104902D02*X99184D01*
Y200248D01*
X104902D01*
Y206752D01*
G37*
M02*
