G04 start of page 2 for group 0 idx 0 *
G04 Title: (unknown), top *
G04 Creator: pcb 20140316 *
G04 CreationDate: Sun 13 Sep 2020 06:15:44 PM GMT UTC *
G04 For: railfan *
G04 Format: Gerber/RS-274X *
G04 PCB-Dimensions (mil): 3350.00 2300.00 *
G04 PCB-Coordinate-Origin: lower left *
%MOIN*%
%FSLAX25Y25*%
%LNTOP*%
%ADD44C,0.0480*%
%ADD43C,0.1280*%
%ADD42C,0.1285*%
%ADD41C,0.0390*%
%ADD40C,0.0935*%
%ADD39C,0.0120*%
%ADD38C,0.0260*%
%ADD37R,0.0240X0.0240*%
%ADD36R,0.0550X0.0550*%
%ADD35C,0.0310*%
%ADD34R,0.0330X0.0330*%
%ADD33R,0.0230X0.0230*%
%ADD32R,0.0500X0.0500*%
%ADD31R,0.0945X0.0945*%
%ADD30R,0.0378X0.0378*%
%ADD29R,0.0787X0.0787*%
%ADD28R,0.0157X0.0157*%
%ADD27R,0.0440X0.0440*%
%ADD26R,0.0630X0.0630*%
%ADD25R,0.0167X0.0167*%
%ADD24R,0.0512X0.0512*%
%ADD23R,0.0200X0.0200*%
%ADD22C,0.0800*%
%ADD21C,0.0700*%
%ADD20C,0.1440*%
%ADD19C,0.2937*%
%ADD18C,0.0250*%
%ADD17C,0.0400*%
%ADD16C,0.0500*%
%ADD15C,0.0300*%
%ADD14C,0.0200*%
%ADD13C,0.0100*%
%ADD12C,0.0150*%
%ADD11C,0.0001*%
G54D11*G36*
X131621Y115000D02*X138193D01*
X138221Y114639D01*
X138306Y114287D01*
X138444Y113953D01*
X138634Y113644D01*
X138869Y113369D01*
X139144Y113134D01*
X139453Y112944D01*
X139787Y112806D01*
X140139Y112721D01*
X140500Y112693D01*
X140861Y112721D01*
X141213Y112806D01*
X141547Y112944D01*
X141856Y113134D01*
X142131Y113369D01*
X142366Y113644D01*
X142556Y113953D01*
X142694Y114287D01*
X142779Y114639D01*
X142800Y115000D01*
X160000D01*
Y97807D01*
X159639Y97779D01*
X159287Y97694D01*
X158953Y97556D01*
X158644Y97366D01*
X158369Y97131D01*
X158134Y96856D01*
X157944Y96547D01*
X157806Y96213D01*
X157721Y95861D01*
X157693Y95500D01*
X157721Y95139D01*
X157806Y94787D01*
X157944Y94453D01*
X158134Y94144D01*
X158369Y93869D01*
X158644Y93634D01*
X158953Y93444D01*
X159287Y93306D01*
X159639Y93221D01*
X160000Y93193D01*
Y76000D01*
X142800D01*
X142779Y76361D01*
X142694Y76713D01*
X142556Y77047D01*
X142366Y77356D01*
X142131Y77631D01*
X141856Y77866D01*
X141547Y78056D01*
X141213Y78194D01*
X140861Y78279D01*
X140500Y78307D01*
X140139Y78279D01*
X139787Y78194D01*
X139453Y78056D01*
X139144Y77866D01*
X138869Y77631D01*
X138634Y77356D01*
X138444Y77047D01*
X138306Y76713D01*
X138221Y76361D01*
X138193Y76000D01*
X121000D01*
Y90044D01*
X121361Y90072D01*
X121713Y90157D01*
X122047Y90296D01*
X122356Y90485D01*
X122631Y90720D01*
X122866Y90995D01*
X123056Y91304D01*
X123194Y91638D01*
X123279Y91990D01*
X123300Y92351D01*
X123279Y92712D01*
X123194Y93064D01*
X123056Y93399D01*
X122866Y93707D01*
X122631Y93983D01*
X122356Y94218D01*
X122047Y94407D01*
X121713Y94545D01*
X121361Y94630D01*
X121000Y94658D01*
Y102756D01*
X121144Y102634D01*
X121453Y102444D01*
X121787Y102306D01*
X122139Y102221D01*
X122500Y102193D01*
X122861Y102221D01*
X123213Y102306D01*
X123547Y102444D01*
X123856Y102634D01*
X124131Y102869D01*
X124366Y103144D01*
X124556Y103453D01*
X124694Y103787D01*
X124779Y104139D01*
X124800Y104500D01*
X124779Y104861D01*
X124695Y105208D01*
X124861Y105221D01*
X125213Y105306D01*
X125547Y105444D01*
X125856Y105634D01*
X126131Y105869D01*
X126366Y106144D01*
X126556Y106453D01*
X126694Y106787D01*
X126779Y107139D01*
X126800Y107500D01*
X126779Y107861D01*
X126694Y108213D01*
X126556Y108547D01*
X126366Y108856D01*
X126131Y109131D01*
X125856Y109366D01*
X125547Y109556D01*
X125213Y109694D01*
X124861Y109779D01*
X124695Y109792D01*
X124779Y110139D01*
X124800Y110500D01*
X124779Y110861D01*
X124694Y111213D01*
X124556Y111547D01*
X124366Y111856D01*
X124244Y112000D01*
X127941D01*
X128000Y111995D01*
X128235Y112014D01*
X128235Y112014D01*
X128465Y112069D01*
X128683Y112159D01*
X128884Y112283D01*
X129064Y112436D01*
X129102Y112481D01*
X131621Y115000D01*
G37*
G36*
X101500Y100500D02*X107500D01*
X111500Y96500D01*
X124500D01*
Y94500D01*
X121822D01*
X121713Y94545D01*
X121361Y94630D01*
X121000Y94658D01*
X120639Y94630D01*
X120287Y94545D01*
X120178Y94500D01*
X101500D01*
Y100500D01*
G37*
G36*
Y87500D02*Y93500D01*
X114495D01*
X114395Y93383D01*
X114251Y93148D01*
X114145Y92894D01*
X114081Y92626D01*
X114060Y92351D01*
X114081Y92077D01*
X114145Y91809D01*
X114251Y91554D01*
X114284Y91500D01*
X111500D01*
X107500Y87500D01*
X101500D01*
G37*
G36*
X179500D02*X173500D01*
X169500Y91500D01*
X156500D01*
Y93500D01*
X158862D01*
X158953Y93444D01*
X159287Y93306D01*
X159639Y93221D01*
X160000Y93193D01*
X160361Y93221D01*
X160713Y93306D01*
X161047Y93444D01*
X161138Y93500D01*
X179500D01*
Y87500D01*
G37*
G36*
Y100500D02*Y94500D01*
X166625D01*
X166749Y94703D01*
X166855Y94958D01*
X166919Y95225D01*
X166940Y95500D01*
X166919Y95775D01*
X166855Y96042D01*
X166749Y96297D01*
X166625Y96500D01*
X169500D01*
X173500Y100500D01*
X179500D01*
G37*
G36*
X135500Y21500D02*X145500D01*
Y15500D01*
X135500D01*
Y21500D01*
G37*
G36*
X128500Y137500D02*X143500D01*
Y131500D01*
X138559D01*
X138500Y131505D01*
X138441Y131500D01*
X133059D01*
X133000Y131505D01*
X132941Y131500D01*
X128500D01*
Y137500D01*
G37*
G36*
X194500Y146000D02*X204500D01*
Y109000D01*
X194500D01*
Y146000D01*
G37*
G36*
X199000Y101000D02*X193000D01*
Y111500D01*
X199000D01*
Y101000D01*
G37*
G36*
X194500Y146000D02*X214500D01*
Y142000D01*
X194500D01*
Y146000D01*
G37*
G36*
X205500Y115500D02*X215000D01*
Y101000D01*
X205500D01*
Y115500D01*
G37*
G36*
X215000Y101000D02*X200000D01*
Y108000D01*
X215000D01*
Y101000D01*
G37*
G36*
X166500Y215500D02*X149500D01*
Y221500D01*
X166500D01*
Y215500D01*
G37*
G36*
X127000Y222000D02*X133000D01*
Y207848D01*
X127000Y207841D01*
Y222000D01*
G37*
G36*
Y207841D02*Y214500D01*
X195000D01*
Y205500D01*
X135846D01*
X135841Y207007D01*
X135804Y207160D01*
X135744Y207305D01*
X135662Y207440D01*
X135559Y207559D01*
X135440Y207662D01*
X135305Y207744D01*
X135160Y207804D01*
X135007Y207841D01*
X134850Y207850D01*
X127000Y207841D01*
G37*
G36*
Y210000D02*X145500D01*
Y163000D01*
X127000D01*
Y210000D01*
G37*
G36*
Y171000D02*X146500D01*
Y156500D01*
X127000D01*
Y171000D01*
G37*
G36*
X63000Y116500D02*X53500D01*
Y130500D01*
X63000D01*
Y116500D01*
G37*
G36*
X53500Y124500D02*X63000D01*
Y103500D01*
X53500D01*
Y124500D01*
G37*
G36*
X64000Y116500D02*Y145500D01*
X73000D01*
Y116500D01*
X64000D01*
G37*
G36*
X60500Y216500D02*X68500D01*
Y174500D01*
X60500D01*
Y216500D01*
G37*
G36*
X73000Y145500D02*Y142000D01*
X53500D01*
Y145500D01*
X73000D01*
G37*
G36*
X60500Y172000D02*Y188500D01*
X89000D01*
Y172000D01*
X60500D01*
G37*
G36*
X125500Y162000D02*X91000D01*
Y181000D01*
X125500D01*
Y162000D01*
G37*
G36*
X100500Y192000D02*X106000D01*
X111500Y197500D01*
X113000D01*
Y183500D01*
X111500D01*
X106000Y189000D01*
X100500D01*
Y192000D01*
G37*
G36*
X60500Y153000D02*Y170500D01*
X125500D01*
Y156500D01*
X105000D01*
Y153000D01*
X60500D01*
G37*
G36*
X91500Y94500D02*Y100500D01*
X106000D01*
Y94500D01*
X91500D01*
G37*
G36*
X107500Y100500D02*Y98000D01*
X96000D01*
Y109500D01*
X98500D01*
X107500Y100500D01*
G37*
G36*
X93000Y94500D02*X91500D01*
X82500Y103500D01*
Y105500D01*
X93000D01*
Y94500D01*
G37*
G36*
X53500Y103500D02*Y112000D01*
X98500D01*
Y103500D01*
X53500D01*
G37*
G36*
X98500Y112000D02*Y94500D01*
X91500D01*
Y112000D01*
X98500D01*
G37*
G36*
X190500Y205500D02*Y219500D01*
X207500D01*
Y217384D01*
X202127Y217381D01*
X201974Y217344D01*
X201829Y217284D01*
X201694Y217202D01*
X201575Y217099D01*
X201472Y216980D01*
X201390Y216845D01*
X201330Y216700D01*
X201293Y216547D01*
X201284Y216390D01*
X201293Y212453D01*
X201330Y212300D01*
X201390Y212155D01*
X201472Y212020D01*
X201575Y211901D01*
X201694Y211798D01*
X201829Y211716D01*
X201974Y211656D01*
X202127Y211619D01*
X202284Y211610D01*
X207500Y211613D01*
Y205500D01*
X190500D01*
G37*
G36*
X207500Y195500D02*X201500D01*
Y208500D01*
X207500D01*
Y195500D01*
G37*
G36*
X177000Y204000D02*X189000D01*
Y188500D01*
X177000D01*
Y204000D01*
G37*
G36*
X142000Y174000D02*X150500D01*
Y156500D01*
X142000D01*
Y174000D01*
G37*
G36*
X136000Y207500D02*X150500D01*
Y171000D01*
X136000D01*
Y207500D01*
G37*
G36*
X142000Y156500D02*Y168000D01*
X158256D01*
X158369Y167869D01*
X158644Y167634D01*
X158953Y167444D01*
X159287Y167306D01*
X159639Y167221D01*
X160000Y167193D01*
X160361Y167221D01*
X160713Y167306D01*
X161047Y167444D01*
X161356Y167634D01*
X161631Y167869D01*
X161744Y168000D01*
X163256D01*
X163369Y167869D01*
X163644Y167634D01*
X163953Y167444D01*
X164287Y167306D01*
X164639Y167221D01*
X165000Y167193D01*
X165361Y167221D01*
X165713Y167306D01*
X166047Y167444D01*
X166356Y167634D01*
X166631Y167869D01*
X166744Y168000D01*
X168256D01*
X168369Y167869D01*
X168644Y167634D01*
X168953Y167444D01*
X169287Y167306D01*
X169639Y167221D01*
X170000Y167193D01*
X170361Y167221D01*
X170713Y167306D01*
X171047Y167444D01*
X171356Y167634D01*
X171631Y167869D01*
X171744Y168000D01*
X178256D01*
X178369Y167869D01*
X178644Y167634D01*
X178953Y167444D01*
X179287Y167306D01*
X179639Y167221D01*
X180000Y167193D01*
X180361Y167221D01*
X180713Y167306D01*
X181047Y167444D01*
X181356Y167634D01*
X181631Y167869D01*
X181744Y168000D01*
X183000D01*
Y156500D01*
X142000D01*
G37*
G36*
X183000Y168000D02*Y135500D01*
X182059D01*
X182000Y135505D01*
X181765Y135486D01*
X181535Y135431D01*
X181317Y135341D01*
X181116Y135217D01*
X181115Y135217D01*
X180936Y135064D01*
X180898Y135019D01*
X175879Y130000D01*
X167000D01*
Y168000D01*
X168256D01*
X168369Y167869D01*
X168644Y167634D01*
X168953Y167444D01*
X169287Y167306D01*
X169639Y167221D01*
X170000Y167193D01*
X170361Y167221D01*
X170713Y167306D01*
X171047Y167444D01*
X171356Y167634D01*
X171631Y167869D01*
X171744Y168000D01*
X178256D01*
X178369Y167869D01*
X178644Y167634D01*
X178953Y167444D01*
X179287Y167306D01*
X179639Y167221D01*
X180000Y167193D01*
X180361Y167221D01*
X180713Y167306D01*
X181047Y167444D01*
X181356Y167634D01*
X181631Y167869D01*
X181744Y168000D01*
X183000D01*
G37*
G36*
X209500Y222500D02*X235000D01*
Y218000D01*
X209500D01*
Y222500D01*
G37*
G36*
X219000D02*X235000D01*
Y211500D01*
X219000D01*
Y222500D01*
G37*
G36*
X229000D02*X235000D01*
Y203059D01*
X234995Y203000D01*
X235000Y202941D01*
Y193500D01*
X229000D01*
Y222500D01*
G37*
G36*
X228000Y210500D02*Y190036D01*
X222464Y184500D01*
X209000D01*
Y209500D01*
X210000Y210500D01*
X228000D01*
G37*
G36*
X254500Y138000D02*X264500D01*
Y131000D01*
X254500D01*
Y138000D01*
G37*
G54D12*X137350Y70815D02*Y81500D01*
X140500Y76000D02*Y70815D01*
G54D13*X146799D02*Y63200D01*
X153098Y70815D02*Y64901D01*
X154999Y63000D01*
X149948Y70815D02*Y64051D01*
X156247Y70815D02*Y66752D01*
X157499Y65500D01*
X146799Y63200D02*X150999Y59000D01*
X153499Y60500D02*X159499D01*
X149948Y64051D02*X153499Y60500D01*
X150999Y59000D02*Y52450D01*
X160999Y59000D02*Y52450D01*
X170999Y59000D02*Y52450D01*
X159499Y60500D02*X160999Y59000D01*
X154999Y63000D02*X166999D01*
X170999Y59000D01*
X157499Y65500D02*X174499D01*
X180999Y59000D01*
X172000Y78000D02*X191000Y59000D01*
X173500Y80500D02*X192500Y61500D01*
X175000Y83000D02*X194000Y64000D01*
X180999Y59000D02*Y52450D01*
X191000Y59000D02*Y52450D01*
G54D14*X143000Y18550D02*X221000D01*
G54D13*X176500Y85500D02*X195500Y66500D01*
X194724Y71276D02*X181500Y84500D01*
X195575Y74425D02*X184000Y86000D01*
X196425Y77575D02*X186500Y87500D01*
X197276Y80724D02*X189000Y89000D01*
X169300Y89200D02*X173000Y85500D01*
X176500D01*
X181500Y101000D02*Y84500D01*
X184000Y86000D02*Y101500D01*
X168949Y86051D02*X172000Y83000D01*
X168599Y82901D02*X171000Y80500D01*
X167748Y79752D02*X169500Y78000D01*
X172000D02*X169500D01*
X171000Y80500D02*X173500D01*
X172000Y83000D02*X175000D01*
G54D12*X160000Y95500D02*X165185D01*
G54D13*Y89200D02*X169300D01*
X165185Y86051D02*X168949D01*
X165185Y82901D02*X168599D01*
X165185Y79752D02*X167748D01*
X186500Y87500D02*Y102000D01*
X189000Y89000D02*Y102598D01*
X192500Y61500D02*X198500D01*
X201000Y59000D01*
Y52450D01*
X194000Y64000D02*X206000D01*
X211000Y59000D01*
Y52450D01*
X195500Y66500D02*X213500D01*
X203152Y71276D02*X194724D01*
X203152Y74425D02*X195575D01*
X203152Y77575D02*X196425D01*
X203152Y80724D02*X197276D01*
X213500Y66500D02*X221000Y59000D01*
Y52450D01*
X237724Y71276D02*X209848D01*
X238075Y74425D02*X209848D01*
X238425Y77575D02*X209848D01*
X238776Y80724D02*X209848D01*
X242000Y10500D02*Y67000D01*
X244500Y23500D02*Y68000D01*
X248000Y20000D02*X244500Y23500D01*
X247000Y36500D02*Y69000D01*
X249500Y49500D02*Y70000D01*
X250500Y33000D02*X247000Y36500D01*
X262457Y7000D02*X245500D01*
X242000Y10500D01*
X262457Y20000D02*X248000D01*
X262457Y33000D02*X250500D01*
X262457Y46000D02*X253000D01*
X249500Y49500D01*
G54D15*X268000Y7000D02*Y46000D01*
G54D13*X242000Y67000D02*X237724Y71276D01*
X244500Y68000D02*X238075Y74425D01*
X247000Y69000D02*X238425Y77575D01*
X249500Y70000D02*X238776Y80724D01*
X137043Y218500D02*X145457D01*
X170543D02*X178957D01*
X186043D02*Y223043D01*
X187500Y224500D01*
G54D15*X294799Y223988D02*X299500D01*
X294799Y214146D02*X299500D01*
G54D13*X187500Y224500D02*X207500D01*
X199000Y191000D02*X184500D01*
G54D14*X160000Y196500D02*X147500D01*
G54D13*X160000Y169500D02*Y178760D01*
X165000Y169500D02*Y186500D01*
X170000Y191500D01*
X199500Y164000D02*X179000D01*
X193957Y181000D02*Y171000D01*
X201043Y181000D02*Y188957D01*
X199000Y191000D01*
X201043Y171000D02*Y165543D01*
X199500Y164000D01*
X207500Y224500D02*X211000Y221000D01*
G54D15*X243201Y209224D02*X232000D01*
G54D13*X238500Y198000D02*X239882Y199382D01*
X243201D01*
Y204303D02*X237803D01*
X236500Y203000D01*
G54D15*X243201Y214146D02*X238500D01*
X232000Y190500D02*Y201500D01*
G54D13*X236500Y203000D02*Y188000D01*
X243201Y184618D02*X240118D01*
X238500Y198000D02*Y187000D01*
X240118Y184618D02*X233500Y178000D01*
G54D15*X232000Y190500D02*X214000Y172500D01*
G54D13*X238500Y187000D02*X230500Y179000D01*
X236500Y188000D02*X228500Y180000D01*
X222543Y167500D02*X228500D01*
X207543Y175957D02*X210000Y173500D01*
X170000Y169500D02*Y178760D01*
X180000Y169500D02*Y178760D01*
Y175957D02*X207543D01*
X124457Y131043D02*Y151000D01*
X125500Y130000D02*X124457Y131043D01*
X133000Y130000D02*X125500D01*
X134201Y128799D02*X133000Y130000D01*
X126500Y125500D02*X127902Y124098D01*
Y120185D01*
X137351Y128851D02*X138500Y130000D01*
X134201Y120185D02*Y128799D01*
X137351Y120185D02*Y128851D01*
X146800Y120185D02*Y125800D01*
X147543Y131043D02*Y151000D01*
X146500Y130000D02*X147543Y131043D01*
X138500Y130000D02*X146500D01*
X152000Y131000D02*Y144500D01*
X155500Y131500D02*Y144500D01*
X159000Y132000D02*Y144500D01*
X162500Y132500D02*Y144500D01*
X189250Y144000D02*Y146750D01*
X191000Y148500D01*
X146800Y125800D02*X152000Y131000D01*
X149949Y120185D02*Y125949D01*
X155500Y131500D01*
X153099Y120185D02*Y126099D01*
X159000Y132000D01*
X156248Y120185D02*Y126248D01*
X162500Y132500D01*
G54D16*X171000Y134000D02*X162500Y125500D01*
Y117500D01*
X156500Y111500D01*
G54D14*X166000Y114000D02*X162500Y117500D01*
G54D13*X165185Y98649D02*X169149D01*
X172500Y102000D01*
X165185Y101799D02*X169299D01*
X171500Y104000D01*
X165185Y104948D02*X169448D01*
X170500Y106000D01*
X165185Y108098D02*X183500D01*
X171500Y104000D02*X181500D01*
X170500Y106000D02*X182500D01*
X172500Y102000D02*X180500D01*
X181500Y101000D01*
X184000Y101500D02*X181500Y104000D01*
X186500Y102000D02*X182500Y106000D01*
X189000Y102598D02*X183500Y108098D01*
G54D14*X189250Y114000D02*X166000D01*
G54D13*X169000Y117000D02*X177000D01*
X179000Y119000D01*
X171500Y120500D02*X176500D01*
X179000Y119000D02*X189250D01*
X176500Y120500D02*X180000Y124000D01*
X189250D01*
X169500Y123500D02*X175500D01*
X171500Y126500D02*X174500D01*
X175500Y123500D02*X181000Y129000D01*
X189250D01*
X174500Y126500D02*X182000Y134000D01*
X189250D01*
G54D15*X218500Y114000D02*X209750D01*
G54D13*X191000Y148500D02*X220000D01*
X233000Y152500D02*X230500D01*
G54D15*X220000Y147500D02*X214000Y153500D01*
G54D13*X228500Y180000D02*Y137000D01*
X225500Y152500D02*X223500D01*
X230500Y179000D02*Y136000D01*
X216000Y134000D02*X209750D01*
X216000Y129000D02*X209750D01*
X216000Y124000D02*X209750D01*
X216000Y119000D02*X209750D01*
X227000D02*X237500D01*
X239500Y121000D01*
G54D15*X220000Y115500D02*X218500Y114000D01*
X220000Y115500D02*Y147500D01*
G54D13*X228500Y137000D02*X226500Y135000D01*
Y132000D02*X229000Y129500D01*
X239500Y121000D02*Y141500D01*
X241500Y143500D01*
X237500Y143000D02*Y125500D01*
X230500Y136000D02*X229500Y135000D01*
Y133000D01*
X229000Y129500D02*X234000D01*
X237500Y125500D02*X235000Y123000D01*
X233000D01*
X232000Y124000D01*
X224000D01*
X235500Y171000D02*Y158500D01*
X237500Y143000D02*X240000Y145500D01*
X233500Y156000D02*X242000Y147500D01*
X243500Y150500D02*X235500Y158500D01*
G54D15*X214000Y153500D02*Y172500D01*
G54D13*X210000Y173500D02*Y151500D01*
X223500Y152500D02*X222500Y153500D01*
Y158500D01*
X226500Y132000D02*Y135000D01*
X223500Y149000D02*Y131500D01*
X229000Y126000D01*
X234000D01*
X233500Y178000D02*Y156000D01*
G54D15*X243201Y169854D02*X238500D01*
X243201Y160012D02*X238500D01*
G54D13*X243201Y174776D02*X239276D01*
X235500Y171000D01*
X294799Y174776D02*X300224D01*
X302500Y172500D01*
X305500Y182500D02*Y154000D01*
X303382Y184618D02*X305500Y182500D01*
X308500Y152500D02*Y187500D01*
X294799Y189539D02*X306461D01*
X308500Y187500D01*
X294799Y184618D02*X303382D01*
X289500Y125500D02*X287000D01*
X286000Y126500D01*
X289500Y120500D02*X287000D01*
X286000Y119500D01*
X283000Y104500D02*X270500Y117000D01*
X290800Y108000D02*Y116800D01*
X286000Y119500D02*X255000D01*
X245000Y129500D01*
X270500Y117000D02*X254000D01*
X246000Y125000D01*
X298500Y145500D02*X240000D01*
X299500Y143500D02*X241500D01*
X287500Y140500D02*X243500D01*
X290800Y141000D02*Y143500D01*
X242000Y147500D02*X296000D01*
X294500Y125500D02*X291000Y129000D01*
Y137000D01*
X287500Y140500D01*
X286000Y126500D02*X251500D01*
X268543Y134500D02*Y140500D01*
X301100Y127100D02*Y128400D01*
X305700Y133000D01*
X305500Y145000D02*Y139500D01*
X307075Y137925D01*
X242500Y133000D02*X245000D01*
X251500Y126500D01*
X245000Y129500D02*X242500D01*
X246000Y125000D02*X242500D01*
X298500Y145500D02*X302500Y149500D01*
X299500Y143500D02*X308500Y152500D01*
X310000Y149500D02*Y142500D01*
G54D15*X294799Y160012D02*X299500D01*
G54D13*X302500Y172500D02*Y149500D01*
X296000Y147500D02*X299500Y151000D01*
X310000Y142500D02*X311425Y141075D01*
X316152D01*
X307075Y137925D02*X316152D01*
X302000Y123000D02*X306500D01*
X308500Y121000D01*
Y114500D01*
X298500Y104500D01*
X299500Y120500D02*X302000Y123000D01*
X299500Y125500D02*X301100Y127100D01*
X290800Y116800D02*X294500Y120500D01*
X299000Y104500D02*X283500D01*
X323000Y145000D02*Y141000D01*
X327500Y163457D02*Y139000D01*
X326425Y137925D01*
X322848D01*
X320425Y147575D02*X316500Y151500D01*
Y163457D01*
X327500Y170500D02*X316500D01*
X320500Y147500D02*X323000Y145000D01*
X134200Y70815D02*Y63200D01*
X130000Y59000D01*
X131051Y70815D02*Y64051D01*
X127901Y64901D02*X126000Y63000D01*
X127901Y70815D02*Y64901D01*
X131051Y64051D02*X127500Y60500D01*
X124752Y70815D02*Y66752D01*
X123500Y65500D01*
X130000Y59000D02*Y52450D01*
X127500Y60500D02*X121500D01*
X120000Y59000D01*
Y52450D01*
X114000Y63000D02*X110000Y59000D01*
Y52450D01*
X123500Y65500D02*X106500D01*
X126000Y63000D02*X114000D01*
X82500Y61500D02*X88500D01*
X82500D02*X80000Y59000D01*
X106500Y65500D02*X100000Y59000D01*
X109000Y78000D02*X90000Y59000D01*
X109000Y78000D02*X111500D01*
X107500Y80500D02*X88500Y61500D01*
X100000Y59000D02*Y52450D01*
X90000Y59000D02*Y52450D01*
X80000Y59000D02*Y52450D01*
X106000Y83000D02*X87000Y64000D01*
X104500Y85500D02*X85500Y66500D01*
X63500Y63000D02*X74500Y74000D01*
X64500Y61000D02*X77500Y74000D01*
G54D14*X60000Y18550D02*X138000D01*
G54D13*X87000Y64000D02*X79000D01*
X70000Y55000D01*
X64000Y59000D02*X71000D01*
X78500Y66500D01*
X85500D01*
X60000Y55000D02*X64000Y59000D01*
X45500Y53000D02*X55500Y63000D01*
X63500D01*
X36500Y41000D02*X56500Y61000D01*
X64500D01*
G54D17*X67000Y78500D02*Y72500D01*
X61000Y66500D01*
X48000D01*
X6000Y108500D01*
G54D13*X36500Y88500D02*X15000Y110000D01*
X13000Y109000D02*X35500Y86500D01*
X67000Y88500D02*X36500D01*
X35500Y86500D02*X54000D01*
X57000Y83500D01*
X11457Y53000D02*Y41000D01*
X36500D02*X18543D01*
X45500Y53000D02*X18543D01*
G54D17*X6000Y108500D02*Y185000D01*
G54D13*X58250Y139000D02*X53500D01*
X52000Y137500D01*
X58250Y134000D02*X53500D01*
X52000Y135500D01*
X18000D01*
X52000Y137500D02*X17000D01*
X22000D02*Y145000D01*
Y135500D02*Y125000D01*
X18000Y135500D02*X15000Y132500D01*
X17000Y137500D02*X13000Y133500D01*
X15000Y132500D02*Y110000D01*
X13000Y133500D02*Y109000D01*
X78750Y134000D02*X68500D01*
G54D17*X6000Y185000D02*Y190000D01*
X10000Y194000D01*
X27000D01*
X22000Y185000D02*X46500D01*
X51500Y190000D01*
Y197000D01*
X27000Y194000D02*X44500Y211500D01*
X51500D01*
G54D12*X143650Y120185D02*Y109500D01*
X140500Y120185D02*Y115000D01*
X115815Y92351D02*X121000D01*
G54D13*X111700Y89200D02*X115815D01*
X111700D02*X108000Y85500D01*
X112051Y86051D02*X115815D01*
X112051D02*X109000Y83000D01*
X112401Y82901D02*X115815D01*
X112401D02*X110000Y80500D01*
X107500D02*X110000D01*
X106000Y83000D02*X109000D01*
X104500Y85500D02*X108000D01*
X115815Y101800D02*X109700D01*
X113252Y79752D02*X111500Y78000D01*
X121500Y113500D02*X106000Y129000D01*
X109700Y101800D02*X107500Y104000D01*
X94000Y144000D02*X112500Y125500D01*
X107500Y104000D02*Y120000D01*
X105500Y118500D02*Y111500D01*
X98500Y104500D01*
X107500Y120000D02*X104500Y123000D01*
X96000D01*
X95000Y122000D01*
Y118000D01*
X98348Y116925D02*X102500D01*
X98348Y120075D02*X103925D01*
X105500Y118500D01*
X113252Y79752D02*X115815D01*
Y111248D02*X119752D01*
X115815Y108099D02*X119401D01*
X120000Y107500D01*
X119752Y111248D02*X120500Y110500D01*
X112500Y125500D02*X126500D01*
X123185Y120185D02*X124752D01*
X120500Y110500D02*X122500D01*
X120000Y107500D02*X124500D01*
X115815Y104949D02*X119551D01*
X120000Y104500D01*
X122500D01*
X131052Y120185D02*Y116552D01*
X128000Y113500D01*
X121500D01*
X122500Y116500D02*Y119500D01*
X123185Y120185D01*
X94000Y144000D02*X78750D01*
Y139000D02*X86000D01*
X88000Y137000D01*
Y132000D01*
X96575D02*Y136575D01*
X99000Y139000D01*
X74500Y74000D02*Y107500D01*
X77500Y74000D02*Y101000D01*
X106000Y129000D02*X78750D01*
X96575Y126000D02*X93500D01*
X91652Y124152D01*
Y120075D01*
X77500Y114500D02*Y129000D01*
X88000Y126000D02*Y118000D01*
X89075Y116925D01*
X95000Y118000D02*X93925Y116925D01*
X89075D02*X93925D01*
G54D18*X102700Y186200D02*Y165000D01*
G54D13*X94957Y203000D02*Y198543D01*
X96000Y197500D01*
X102000D01*
X102700Y196800D01*
Y194500D01*
X94500D02*X91000D01*
X94500Y190600D02*X88100D01*
X87000Y189500D01*
Y186700D01*
X91000Y210000D02*X132000D01*
G54D14*X94500Y186700D02*X84000D01*
G54D13*X102043Y203500D02*X113450D01*
X91000Y194500D02*X89500Y196000D01*
Y208500D01*
X91000Y210000D01*
G54D19*X318000Y213000D03*
Y17000D03*
G54D20*X32000Y106000D03*
G54D21*X67000Y98500D03*
X57000Y93500D03*
X67000Y88500D03*
X57000Y83500D03*
X67000Y78500D03*
X57000Y73500D03*
G54D20*X32000Y66000D03*
G54D19*X17000Y17000D03*
Y213000D03*
G54D11*G36*
X18000Y149000D02*Y141000D01*
X26000D01*
Y149000D01*
X18000D01*
G37*
G54D22*X22000Y125000D03*
G54D11*G36*
X18000Y189000D02*Y181000D01*
X26000D01*
Y189000D01*
X18000D01*
G37*
G54D22*X22000Y165000D03*
G54D23*X55000Y144000D02*X61500D01*
X55000Y139000D02*X61500D01*
X55000Y134000D02*X61500D01*
X75500Y129000D02*X82000D01*
X75500Y134000D02*X82000D01*
X75500Y139000D02*X82000D01*
X75500Y144000D02*X82000D01*
X55000Y129000D02*X61500D01*
G54D24*X59957Y120393D02*Y119607D01*
X67043Y120393D02*Y119607D01*
G54D25*X90717Y120075D02*X92587D01*
X90717Y116925D02*X92587D01*
X97413D02*X99283D01*
X97413Y120075D02*X99283D01*
G54D26*X64500Y163307D02*Y157008D01*
G54D27*X60000Y21150D02*Y15950D01*
X70000Y21150D02*Y15950D01*
X80000Y21150D02*Y15950D01*
X90000Y21150D02*Y15950D01*
X100000Y21150D02*Y15950D01*
X110000Y21150D02*Y15950D01*
X120000Y21150D02*Y15950D01*
X130000Y21150D02*Y15950D01*
X60000Y55050D02*Y49850D01*
X70000Y55050D02*Y49850D01*
X80000Y55050D02*Y49850D01*
X90000Y55050D02*Y49850D01*
X100000Y55050D02*Y49850D01*
X110000Y55050D02*Y49850D01*
X120000Y55050D02*Y49850D01*
X130000Y55050D02*Y49850D01*
G54D24*X11457Y53393D02*Y52607D01*
X18543Y53393D02*Y52607D01*
Y41393D02*Y40607D01*
X11457Y41393D02*Y40607D01*
G54D28*X156248Y122398D02*Y117972D01*
X153099Y122398D02*Y117972D01*
X149949Y122398D02*Y117972D01*
X146800Y122398D02*Y117972D01*
X143650Y122398D02*Y117972D01*
X140500Y122398D02*Y117972D01*
X137351Y122398D02*Y117972D01*
X134201Y122398D02*Y117972D01*
G54D29*X145843Y151000D02*X161591D01*
G54D24*X147543Y134893D02*Y134107D01*
X140457Y134893D02*Y134107D01*
G54D28*X131052Y122398D02*Y117972D01*
G54D24*X131543Y134893D02*Y134107D01*
G54D28*X127902Y122398D02*Y117972D01*
X124752Y122398D02*Y117972D01*
X113602Y111248D02*X118028D01*
G54D29*X110409Y151000D02*X126157D01*
G54D24*X124457Y134893D02*Y134107D01*
G54D28*X113602Y108099D02*X118028D01*
X113602Y104949D02*X118028D01*
X113602Y101800D02*X118028D01*
X113602Y98650D02*X118028D01*
X113602Y95500D02*X118028D01*
G54D24*X104107Y97543D02*X104893D01*
X104107Y90457D02*X104893D01*
G54D28*X113602Y92351D02*X118028D01*
X113602Y89201D02*X118028D01*
X113602Y86052D02*X118028D01*
X113602Y82902D02*X118028D01*
X113602Y79752D02*X118028D01*
X124752Y73028D02*Y68602D01*
X127901Y73028D02*Y68602D01*
X131051Y73028D02*Y68602D01*
X134200Y73028D02*Y68602D01*
X137350Y73028D02*Y68602D01*
X140500Y73028D02*Y68602D01*
X143649Y73028D02*Y68602D01*
X146799Y73028D02*Y68602D01*
X149948Y73028D02*Y68602D01*
X153098Y73028D02*Y68602D01*
X156248Y73028D02*Y68602D01*
G54D24*X204457Y199393D02*Y198607D01*
X211543Y199393D02*Y198607D01*
X178957Y218893D02*Y218107D01*
X186043Y218893D02*Y218107D01*
X163457Y218893D02*Y218107D01*
X170543Y218893D02*Y218107D01*
G54D30*X211890Y208594D02*X215984D01*
X204174Y214500D02*X215984D01*
G54D31*X200550D02*X202440D01*
G54D11*G36*
X205745Y211195D02*X208585Y214035D01*
X210005Y212615D01*
X207165Y209775D01*
X205745Y211195D01*
G37*
G36*
X207165Y219225D02*X210005Y216385D01*
X208585Y214965D01*
X205745Y217805D01*
X207165Y219225D01*
G37*
G54D30*X211890Y220406D02*X215984D01*
G54D24*X137043Y218893D02*Y218107D01*
X129957Y218893D02*Y218107D01*
X152543Y218893D02*Y218107D01*
X145457Y218893D02*Y218107D01*
G54D32*X160000Y183504D02*Y174016D01*
Y200984D02*Y191496D01*
X170000Y183504D02*Y174016D01*
Y200984D02*Y191496D01*
X180000Y183504D02*Y174016D01*
Y200984D02*Y191496D01*
G54D24*X193957Y181393D02*Y180607D01*
X201043Y181393D02*Y180607D01*
X193957Y171393D02*Y170607D01*
X201043Y171393D02*Y170607D01*
G54D33*X133700Y205700D02*Y184300D01*
X128100Y205700D02*X133700D01*
G54D11*G36*
X126956Y185450D02*X132550Y191044D01*
X134671Y188923D01*
X129077Y183329D01*
X126956Y185450D01*
G37*
G36*
X129077Y206671D02*X134671Y201077D01*
X132550Y198956D01*
X126956Y204550D01*
X129077Y206671D01*
G37*
G36*
X130550Y187450D02*Y183450D01*
X134550D01*
Y187450D01*
X130550D01*
G37*
G36*
Y206550D02*Y202550D01*
X134550D01*
Y206550D01*
X130550D01*
G37*
G54D33*X128100Y184300D02*X133700D01*
G54D24*X129543Y175893D02*Y175107D01*
Y166893D02*Y166107D01*
G54D34*X242000Y214146D02*X244402D01*
X242000Y209224D02*X244402D01*
X242000Y204303D02*X244402D01*
X242000Y199382D02*X244402D01*
X242000Y194461D02*X244402D01*
X242000Y189539D02*X244402D01*
X242000Y184618D02*X244402D01*
G54D24*X232043Y207393D02*Y206607D01*
X224957Y207393D02*Y206607D01*
X232043Y197393D02*Y196607D01*
X224957Y197393D02*Y196607D01*
G54D34*X242000Y179697D02*X244402D01*
X242000Y174776D02*X244402D01*
X242000Y169854D02*X244402D01*
G54D24*X222543Y167893D02*Y167107D01*
X215457Y167893D02*Y167107D01*
G54D34*X242000Y164933D02*X244402D01*
X242000Y160012D02*X244402D01*
G54D25*X202217Y80724D02*X204087D01*
X202217Y77575D02*X204087D01*
G54D27*X201000Y55050D02*Y49850D01*
G54D25*X202217Y74425D02*X204087D01*
X202217Y71276D02*X204087D01*
X208913D02*X210783D01*
X208913Y74425D02*X210783D01*
X208913Y77575D02*X210783D01*
X208913Y80724D02*X210783D01*
G54D27*X211000Y55050D02*Y49850D01*
X221000Y55050D02*Y49850D01*
X151000Y21150D02*Y15950D01*
Y55050D02*Y49850D01*
X161000Y21150D02*Y15950D01*
Y55050D02*Y49850D01*
X171000Y55050D02*Y49850D01*
X181000Y55050D02*Y49850D01*
X191000Y55050D02*Y49850D01*
X171000Y21150D02*Y15950D01*
X181000Y21150D02*Y15950D01*
X191000Y21150D02*Y15950D01*
X201000Y21150D02*Y15950D01*
X211000Y21150D02*Y15950D01*
X221000Y21150D02*Y15950D01*
G54D24*X268043Y7393D02*Y6607D01*
X260957Y7393D02*Y6607D01*
X268043Y20393D02*Y19607D01*
X260957Y20393D02*Y19607D01*
X268043Y33393D02*Y32607D01*
X260957Y33393D02*Y32607D01*
X268043Y46393D02*Y45607D01*
X260957Y46393D02*Y45607D01*
G54D28*X162972Y79752D02*X167398D01*
X162972Y82901D02*X167398D01*
X162972Y86051D02*X167398D01*
X162972Y89200D02*X167398D01*
X162972Y92350D02*X167398D01*
X162972Y95500D02*X167398D01*
X162972Y98649D02*X167398D01*
X162972Y101799D02*X167398D01*
X162972Y104948D02*X167398D01*
X162972Y108098D02*X167398D01*
X162972Y111248D02*X167398D01*
G54D24*X176107Y90457D02*X176893D01*
X176107Y97543D02*X176893D01*
G54D23*X206500Y114000D02*X213000D01*
G54D24*X203043Y104893D02*Y104107D01*
X195957Y104893D02*Y104107D01*
G54D23*X206500Y119000D02*X213000D01*
X206500Y124000D02*X213000D01*
X206500Y129000D02*X213000D01*
X206500Y134000D02*X213000D01*
X206500Y139000D02*X213000D01*
X206500Y144000D02*X213000D01*
X186000D02*X192500D01*
X186000Y139000D02*X192500D01*
X186000Y134000D02*X192500D01*
X186000Y129000D02*X192500D01*
X186000Y124000D02*X192500D01*
X186000Y119000D02*X192500D01*
X186000Y114000D02*X192500D01*
G54D34*X251776Y155150D02*Y152752D01*
X256697Y155150D02*Y152752D01*
X261618Y155150D02*Y152752D01*
X266539Y155150D02*Y152752D01*
X271461Y155150D02*Y152752D01*
X276382Y155150D02*Y152752D01*
G54D24*X222543Y158893D02*Y158107D01*
X215457Y158893D02*Y158107D01*
G54D34*X281303Y155150D02*Y152752D01*
X286224Y155150D02*Y152752D01*
X293598Y160012D02*X296000D01*
X293598Y164933D02*X296000D01*
G54D35*X289500Y120500D03*
Y125500D03*
X294500Y120500D03*
Y125500D03*
X299500Y120500D03*
Y125500D03*
G54D24*X261457Y134893D02*Y134107D01*
X268543Y134893D02*Y134107D01*
G54D34*X293598Y169854D02*X296000D01*
X293598Y174776D02*X296000D01*
X293598Y179697D02*X296000D01*
X293598Y184618D02*X296000D01*
X293598Y189539D02*X296000D01*
X293598Y194461D02*X296000D01*
X293598Y199382D02*X296000D01*
X293598Y204303D02*X296000D01*
X293598Y209224D02*X296000D01*
X293598Y214146D02*X296000D01*
X293598Y219067D02*X296000D01*
X293598Y223988D02*X296000D01*
G54D25*X321913Y137925D02*X323783D01*
X321913Y141075D02*X323783D01*
X315217D02*X317087D01*
X315217Y137925D02*X317087D01*
G54D24*X316107Y170543D02*X316893D01*
X316107Y163457D02*X316893D01*
X327107Y170543D02*X327893D01*
X327107Y163457D02*X327893D01*
G54D36*X51500Y212500D02*Y210500D01*
X64500Y212500D02*Y210500D01*
X51500Y198000D02*Y196000D01*
X64500Y198000D02*Y196000D01*
G54D26*Y182992D02*Y176693D01*
G54D24*X84607Y174543D02*X85393D01*
X84607Y167457D02*X85393D01*
G54D33*X112300Y205700D02*Y184300D01*
X117900D01*
X112300Y205700D02*X117900D01*
G54D11*G36*
X111450Y187450D02*Y183450D01*
X115450D01*
Y187450D01*
X111450D01*
G37*
G36*
Y206550D02*Y202550D01*
X115450D01*
Y206550D01*
X111450D01*
G37*
G36*
X113450Y191044D02*X119044Y185450D01*
X116923Y183329D01*
X111329Y188923D01*
X113450Y191044D01*
G37*
G36*
X111329Y201077D02*X116923Y206671D01*
X119044Y204550D01*
X113450Y198956D01*
X111329Y201077D01*
G37*
G54D24*X122457Y175893D02*Y175107D01*
Y166893D02*Y166107D01*
G54D37*X93700Y194500D02*X95300D01*
X93700Y190600D02*X95300D01*
X93700Y186700D02*X95300D01*
X101900D02*X103500D01*
X101900Y190600D02*X103500D01*
X101900Y194500D02*X103500D01*
G54D24*X94957Y203893D02*Y203107D01*
X102043Y203893D02*Y203107D01*
G54D38*X216000Y134000D03*
Y129000D03*
Y124000D03*
Y119000D03*
X210000Y151500D03*
X199500Y129000D03*
X202000Y131000D03*
Y127000D03*
X197000D03*
Y131000D03*
X227000Y119000D03*
X224000Y124000D03*
X234000Y129500D03*
X226500Y135000D03*
X229500Y133000D03*
X234000Y126000D03*
X242500Y133000D03*
X243500Y140500D03*
Y150500D03*
X242500Y129500D03*
Y125000D03*
X223500Y149000D03*
X225500Y152500D03*
X233000D03*
X289800Y108000D03*
X140500Y76000D03*
X138000Y18500D03*
X143000D03*
X268000Y13500D03*
Y26500D03*
Y39500D03*
X158000Y220000D03*
Y217000D03*
X160000Y169500D03*
X165000D03*
X170000D03*
X180000D03*
X187000Y201500D03*
Y198000D03*
Y194500D03*
Y191000D03*
X220000Y204000D03*
X216500D03*
Y200500D03*
X220000D03*
X238500Y214146D03*
X216500Y197000D03*
X220000D03*
Y193500D03*
X216500D03*
Y190000D03*
X220000D03*
Y186500D03*
X216500D03*
X213000Y193500D03*
Y190000D03*
Y186500D03*
X299500Y223988D03*
Y214146D03*
Y160012D03*
X305500Y154000D03*
Y145000D03*
X305700Y133000D03*
X322000Y170500D03*
X299500Y151000D03*
X290800Y141000D03*
X310000Y149500D03*
X238500Y169854D03*
Y160012D03*
X256500Y136000D03*
Y133000D03*
X73000Y162500D03*
Y159000D03*
Y155500D03*
X79500Y162500D03*
X86000D03*
X92500D03*
X136000Y133000D03*
Y136000D03*
X121000Y92351D03*
X122500Y110500D03*
X124500Y107500D03*
X122500Y104500D03*
Y116500D03*
X140500Y115000D03*
X160000Y95500D03*
X169500Y117500D03*
Y123500D03*
X171500Y120500D03*
Y126500D03*
X152000Y144500D03*
X155500D03*
X159000D03*
X162500D03*
X68500Y136500D03*
X71000Y138500D03*
X66000D03*
X71000Y134500D03*
X66000D03*
X77500Y114500D03*
Y101000D03*
X88000Y126000D03*
Y132000D03*
X96575D03*
Y126000D03*
X102500Y116925D03*
X79500Y159000D03*
X86000D03*
X92500D03*
X99000D03*
X79500Y155500D03*
X86000D03*
X92500D03*
X99000D03*
Y162500D03*
X110000Y162000D03*
X113500D03*
X117000D03*
X110000Y171000D03*
X113500D03*
X117000D03*
X99000Y176500D03*
X102500D03*
X106000D03*
G54D39*G54D40*G54D41*G54D40*G54D41*G54D42*G54D43*G54D15*G54D43*G54D42*G54D44*M02*
